%TF.GenerationSoftware,KiCad,Pcbnew,9.0.1*%
%TF.CreationDate,2025-06-13T13:21:01-03:00*%
%TF.ProjectId,DYNAMO-PCB,44594e41-4d4f-42d5-9043-422e6b696361,rev?*%
%TF.SameCoordinates,Original*%
%TF.FileFunction,Paste,Top*%
%TF.FilePolarity,Positive*%
%FSLAX46Y46*%
G04 Gerber Fmt 4.6, Leading zero omitted, Abs format (unit mm)*
G04 Created by KiCad (PCBNEW 9.0.1) date 2025-06-13 13:21:01*
%MOMM*%
%LPD*%
G01*
G04 APERTURE LIST*
G04 Aperture macros list*
%AMRoundRect*
0 Rectangle with rounded corners*
0 $1 Rounding radius*
0 $2 $3 $4 $5 $6 $7 $8 $9 X,Y pos of 4 corners*
0 Add a 4 corners polygon primitive as box body*
4,1,4,$2,$3,$4,$5,$6,$7,$8,$9,$2,$3,0*
0 Add four circle primitives for the rounded corners*
1,1,$1+$1,$2,$3*
1,1,$1+$1,$4,$5*
1,1,$1+$1,$6,$7*
1,1,$1+$1,$8,$9*
0 Add four rect primitives between the rounded corners*
20,1,$1+$1,$2,$3,$4,$5,0*
20,1,$1+$1,$4,$5,$6,$7,0*
20,1,$1+$1,$6,$7,$8,$9,0*
20,1,$1+$1,$8,$9,$2,$3,0*%
G04 Aperture macros list end*
%ADD10RoundRect,0.225000X0.225000X1.075000X-0.225000X1.075000X-0.225000X-1.075000X0.225000X-1.075000X0*%
%ADD11RoundRect,0.225000X0.225000X0.850000X-0.225000X0.850000X-0.225000X-0.850000X0.225000X-0.850000X0*%
%ADD12RoundRect,0.175000X0.175000X0.425000X-0.175000X0.425000X-0.175000X-0.425000X0.175000X-0.425000X0*%
%ADD13RoundRect,0.190000X-0.190000X-0.410000X0.190000X-0.410000X0.190000X0.410000X-0.190000X0.410000X0*%
%ADD14RoundRect,0.200000X-0.200000X-0.400000X0.200000X-0.400000X0.200000X0.400000X-0.200000X0.400000X0*%
%ADD15RoundRect,0.175000X-0.175000X-0.425000X0.175000X-0.425000X0.175000X0.425000X-0.175000X0.425000X0*%
%ADD16RoundRect,0.190000X0.190000X0.410000X-0.190000X0.410000X-0.190000X-0.410000X0.190000X-0.410000X0*%
%ADD17RoundRect,0.200000X0.200000X0.400000X-0.200000X0.400000X-0.200000X-0.400000X0.200000X-0.400000X0*%
%ADD18O,1.100000X1.700000*%
%ADD19RoundRect,0.175000X-0.425000X0.175000X-0.425000X-0.175000X0.425000X-0.175000X0.425000X0.175000X0*%
%ADD20RoundRect,0.190000X0.410000X-0.190000X0.410000X0.190000X-0.410000X0.190000X-0.410000X-0.190000X0*%
%ADD21RoundRect,0.200000X0.400000X-0.200000X0.400000X0.200000X-0.400000X0.200000X-0.400000X-0.200000X0*%
%ADD22RoundRect,0.175000X0.425000X-0.175000X0.425000X0.175000X-0.425000X0.175000X-0.425000X-0.175000X0*%
%ADD23RoundRect,0.190000X-0.410000X0.190000X-0.410000X-0.190000X0.410000X-0.190000X0.410000X0.190000X0*%
%ADD24RoundRect,0.200000X-0.400000X0.200000X-0.400000X-0.200000X0.400000X-0.200000X0.400000X0.200000X0*%
%ADD25O,1.700000X1.100000*%
%ADD26RoundRect,0.225000X-1.075000X0.225000X-1.075000X-0.225000X1.075000X-0.225000X1.075000X0.225000X0*%
%ADD27RoundRect,0.225000X-0.850000X0.225000X-0.850000X-0.225000X0.850000X-0.225000X0.850000X0.225000X0*%
G04 APERTURE END LIST*
D10*
%TO.C,DisplayPWR1*%
X186450000Y-44702500D03*
X183950000Y-44702500D03*
X181450000Y-44702500D03*
X178950000Y-44702500D03*
D11*
X177700000Y-44927500D03*
X180200000Y-44927500D03*
X182700000Y-44927500D03*
X185200000Y-44927500D03*
X187700000Y-44927500D03*
%TD*%
D12*
%TO.C,RechargeA1*%
X100960000Y-39580000D03*
D13*
X98940000Y-39580000D03*
D14*
X97710000Y-39580000D03*
D15*
X99960000Y-39580000D03*
D16*
X101980000Y-39580000D03*
D17*
X103210000Y-39580000D03*
D18*
X104780000Y-39500000D03*
X104780000Y-35700000D03*
X96140000Y-39500000D03*
X96140000Y-35700000D03*
%TD*%
D19*
%TO.C,MainPWR1*%
X86180000Y-95660000D03*
D20*
X86180000Y-97680000D03*
D21*
X86180000Y-98910000D03*
D22*
X86180000Y-96660000D03*
D23*
X86180000Y-94640000D03*
D24*
X86180000Y-93410000D03*
D25*
X86100000Y-91840000D03*
X82300000Y-91840000D03*
X86100000Y-100480000D03*
X82300000Y-100480000D03*
%TD*%
D10*
%TO.C,DisplayPWR2*%
X207150000Y-44702500D03*
X204650000Y-44702500D03*
X202150000Y-44702500D03*
X199650000Y-44702500D03*
D11*
X198400000Y-44927500D03*
X200900000Y-44927500D03*
X203400000Y-44927500D03*
X205900000Y-44927500D03*
X208400000Y-44927500D03*
%TD*%
D22*
%TO.C,MainPWR2*%
X152220000Y-149480000D03*
D23*
X152220000Y-147460000D03*
D24*
X152220000Y-146230000D03*
D19*
X152220000Y-148480000D03*
D20*
X152220000Y-150500000D03*
D21*
X152220000Y-151730000D03*
D25*
X152300000Y-153300000D03*
X156100000Y-153300000D03*
X152300000Y-144660000D03*
X156100000Y-144660000D03*
%TD*%
D19*
%TO.C,RechargeB2*%
X86080000Y-109320000D03*
D20*
X86080000Y-111340000D03*
D21*
X86080000Y-112570000D03*
D22*
X86080000Y-110320000D03*
D23*
X86080000Y-108300000D03*
D24*
X86080000Y-107070000D03*
D25*
X86000000Y-105500000D03*
X82200000Y-105500000D03*
X86000000Y-114140000D03*
X82200000Y-114140000D03*
%TD*%
D26*
%TO.C,PeripheralsPWR1*%
X87502500Y-69750000D03*
X87502500Y-72250000D03*
X87502500Y-74750000D03*
X87502500Y-77250000D03*
D27*
X87727500Y-78500000D03*
X87727500Y-76000000D03*
X87727500Y-73500000D03*
X87727500Y-71000000D03*
X87727500Y-68500000D03*
%TD*%
D12*
%TO.C,RechargeB1*%
X116880000Y-39580000D03*
D13*
X114860000Y-39580000D03*
D14*
X113630000Y-39580000D03*
D15*
X115880000Y-39580000D03*
D16*
X117900000Y-39580000D03*
D17*
X119130000Y-39580000D03*
D18*
X120700000Y-39500000D03*
X120700000Y-35700000D03*
X112060000Y-39500000D03*
X112060000Y-35700000D03*
%TD*%
D26*
%TO.C,ModemPWR1*%
X87502500Y-52050000D03*
X87502500Y-54550000D03*
X87502500Y-57050000D03*
X87502500Y-59550000D03*
D27*
X87727500Y-60800000D03*
X87727500Y-58300000D03*
X87727500Y-55800000D03*
X87727500Y-53300000D03*
X87727500Y-50800000D03*
%TD*%
D10*
%TO.C,Modem1*%
X143050000Y-44470000D03*
X140550000Y-44470000D03*
X138050000Y-44470000D03*
X135550000Y-44470000D03*
D11*
X134300000Y-44695000D03*
X136800000Y-44695000D03*
X139300000Y-44695000D03*
X141800000Y-44695000D03*
X144300000Y-44695000D03*
%TD*%
M02*
