%TF.GenerationSoftware,KiCad,Pcbnew,9.0.1*%
%TF.CreationDate,2025-06-13T13:21:01-03:00*%
%TF.ProjectId,DYNAMO-PCB,44594e41-4d4f-42d5-9043-422e6b696361,rev?*%
%TF.SameCoordinates,Original*%
%TF.FileFunction,Legend,Top*%
%TF.FilePolarity,Positive*%
%FSLAX46Y46*%
G04 Gerber Fmt 4.6, Leading zero omitted, Abs format (unit mm)*
G04 Created by KiCad (PCBNEW 9.0.1) date 2025-06-13 13:21:01*
%MOMM*%
%LPD*%
G01*
G04 APERTURE LIST*
%ADD10C,0.150000*%
%ADD11C,0.100000*%
%ADD12C,0.120000*%
%ADD13C,0.127000*%
%ADD14C,0.200000*%
G04 APERTURE END LIST*
D10*
X235054819Y-71879523D02*
X235769104Y-71879523D01*
X235769104Y-71879523D02*
X235911961Y-71927142D01*
X235911961Y-71927142D02*
X236007200Y-72022380D01*
X236007200Y-72022380D02*
X236054819Y-72165237D01*
X236054819Y-72165237D02*
X236054819Y-72260475D01*
X235054819Y-71498570D02*
X235054819Y-70879523D01*
X235054819Y-70879523D02*
X235435771Y-71212856D01*
X235435771Y-71212856D02*
X235435771Y-71069999D01*
X235435771Y-71069999D02*
X235483390Y-70974761D01*
X235483390Y-70974761D02*
X235531009Y-70927142D01*
X235531009Y-70927142D02*
X235626247Y-70879523D01*
X235626247Y-70879523D02*
X235864342Y-70879523D01*
X235864342Y-70879523D02*
X235959580Y-70927142D01*
X235959580Y-70927142D02*
X236007200Y-70974761D01*
X236007200Y-70974761D02*
X236054819Y-71069999D01*
X236054819Y-71069999D02*
X236054819Y-71355713D01*
X236054819Y-71355713D02*
X236007200Y-71450951D01*
X236007200Y-71450951D02*
X235959580Y-71498570D01*
X235054819Y-70546189D02*
X235054819Y-69927142D01*
X235054819Y-69927142D02*
X235435771Y-70260475D01*
X235435771Y-70260475D02*
X235435771Y-70117618D01*
X235435771Y-70117618D02*
X235483390Y-70022380D01*
X235483390Y-70022380D02*
X235531009Y-69974761D01*
X235531009Y-69974761D02*
X235626247Y-69927142D01*
X235626247Y-69927142D02*
X235864342Y-69927142D01*
X235864342Y-69927142D02*
X235959580Y-69974761D01*
X235959580Y-69974761D02*
X236007200Y-70022380D01*
X236007200Y-70022380D02*
X236054819Y-70117618D01*
X236054819Y-70117618D02*
X236054819Y-70403332D01*
X236054819Y-70403332D02*
X236007200Y-70498570D01*
X236007200Y-70498570D02*
X235959580Y-70546189D01*
X244546666Y-106914819D02*
X244546666Y-107629104D01*
X244546666Y-107629104D02*
X244499047Y-107771961D01*
X244499047Y-107771961D02*
X244403809Y-107867200D01*
X244403809Y-107867200D02*
X244260952Y-107914819D01*
X244260952Y-107914819D02*
X244165714Y-107914819D01*
X245451428Y-106914819D02*
X245260952Y-106914819D01*
X245260952Y-106914819D02*
X245165714Y-106962438D01*
X245165714Y-106962438D02*
X245118095Y-107010057D01*
X245118095Y-107010057D02*
X245022857Y-107152914D01*
X245022857Y-107152914D02*
X244975238Y-107343390D01*
X244975238Y-107343390D02*
X244975238Y-107724342D01*
X244975238Y-107724342D02*
X245022857Y-107819580D01*
X245022857Y-107819580D02*
X245070476Y-107867200D01*
X245070476Y-107867200D02*
X245165714Y-107914819D01*
X245165714Y-107914819D02*
X245356190Y-107914819D01*
X245356190Y-107914819D02*
X245451428Y-107867200D01*
X245451428Y-107867200D02*
X245499047Y-107819580D01*
X245499047Y-107819580D02*
X245546666Y-107724342D01*
X245546666Y-107724342D02*
X245546666Y-107486247D01*
X245546666Y-107486247D02*
X245499047Y-107391009D01*
X245499047Y-107391009D02*
X245451428Y-107343390D01*
X245451428Y-107343390D02*
X245356190Y-107295771D01*
X245356190Y-107295771D02*
X245165714Y-107295771D01*
X245165714Y-107295771D02*
X245070476Y-107343390D01*
X245070476Y-107343390D02*
X245022857Y-107391009D01*
X245022857Y-107391009D02*
X244975238Y-107486247D01*
X230300476Y-106914819D02*
X230300476Y-107629104D01*
X230300476Y-107629104D02*
X230252857Y-107771961D01*
X230252857Y-107771961D02*
X230157619Y-107867200D01*
X230157619Y-107867200D02*
X230014762Y-107914819D01*
X230014762Y-107914819D02*
X229919524Y-107914819D01*
X231300476Y-107914819D02*
X230729048Y-107914819D01*
X231014762Y-107914819D02*
X231014762Y-106914819D01*
X231014762Y-106914819D02*
X230919524Y-107057676D01*
X230919524Y-107057676D02*
X230824286Y-107152914D01*
X230824286Y-107152914D02*
X230729048Y-107200533D01*
X231919524Y-106914819D02*
X232014762Y-106914819D01*
X232014762Y-106914819D02*
X232110000Y-106962438D01*
X232110000Y-106962438D02*
X232157619Y-107010057D01*
X232157619Y-107010057D02*
X232205238Y-107105295D01*
X232205238Y-107105295D02*
X232252857Y-107295771D01*
X232252857Y-107295771D02*
X232252857Y-107533866D01*
X232252857Y-107533866D02*
X232205238Y-107724342D01*
X232205238Y-107724342D02*
X232157619Y-107819580D01*
X232157619Y-107819580D02*
X232110000Y-107867200D01*
X232110000Y-107867200D02*
X232014762Y-107914819D01*
X232014762Y-107914819D02*
X231919524Y-107914819D01*
X231919524Y-107914819D02*
X231824286Y-107867200D01*
X231824286Y-107867200D02*
X231776667Y-107819580D01*
X231776667Y-107819580D02*
X231729048Y-107724342D01*
X231729048Y-107724342D02*
X231681429Y-107533866D01*
X231681429Y-107533866D02*
X231681429Y-107295771D01*
X231681429Y-107295771D02*
X231729048Y-107105295D01*
X231729048Y-107105295D02*
X231776667Y-107010057D01*
X231776667Y-107010057D02*
X231824286Y-106962438D01*
X231824286Y-106962438D02*
X231919524Y-106914819D01*
X227733333Y-74954819D02*
X227400000Y-74478628D01*
X227161905Y-74954819D02*
X227161905Y-73954819D01*
X227161905Y-73954819D02*
X227542857Y-73954819D01*
X227542857Y-73954819D02*
X227638095Y-74002438D01*
X227638095Y-74002438D02*
X227685714Y-74050057D01*
X227685714Y-74050057D02*
X227733333Y-74145295D01*
X227733333Y-74145295D02*
X227733333Y-74288152D01*
X227733333Y-74288152D02*
X227685714Y-74383390D01*
X227685714Y-74383390D02*
X227638095Y-74431009D01*
X227638095Y-74431009D02*
X227542857Y-74478628D01*
X227542857Y-74478628D02*
X227161905Y-74478628D01*
X228114286Y-74050057D02*
X228161905Y-74002438D01*
X228161905Y-74002438D02*
X228257143Y-73954819D01*
X228257143Y-73954819D02*
X228495238Y-73954819D01*
X228495238Y-73954819D02*
X228590476Y-74002438D01*
X228590476Y-74002438D02*
X228638095Y-74050057D01*
X228638095Y-74050057D02*
X228685714Y-74145295D01*
X228685714Y-74145295D02*
X228685714Y-74240533D01*
X228685714Y-74240533D02*
X228638095Y-74383390D01*
X228638095Y-74383390D02*
X228066667Y-74954819D01*
X228066667Y-74954819D02*
X228685714Y-74954819D01*
X233053382Y-92919580D02*
X233005763Y-92967200D01*
X233005763Y-92967200D02*
X232862906Y-93014819D01*
X232862906Y-93014819D02*
X232767668Y-93014819D01*
X232767668Y-93014819D02*
X232624811Y-92967200D01*
X232624811Y-92967200D02*
X232529573Y-92871961D01*
X232529573Y-92871961D02*
X232481954Y-92776723D01*
X232481954Y-92776723D02*
X232434335Y-92586247D01*
X232434335Y-92586247D02*
X232434335Y-92443390D01*
X232434335Y-92443390D02*
X232481954Y-92252914D01*
X232481954Y-92252914D02*
X232529573Y-92157676D01*
X232529573Y-92157676D02*
X232624811Y-92062438D01*
X232624811Y-92062438D02*
X232767668Y-92014819D01*
X232767668Y-92014819D02*
X232862906Y-92014819D01*
X232862906Y-92014819D02*
X233005763Y-92062438D01*
X233005763Y-92062438D02*
X233053382Y-92110057D01*
X233910525Y-92348152D02*
X233910525Y-93014819D01*
X233672430Y-91967200D02*
X233434335Y-92681485D01*
X233434335Y-92681485D02*
X234053382Y-92681485D01*
X248366666Y-104374819D02*
X248366666Y-105089104D01*
X248366666Y-105089104D02*
X248319047Y-105231961D01*
X248319047Y-105231961D02*
X248223809Y-105327200D01*
X248223809Y-105327200D02*
X248080952Y-105374819D01*
X248080952Y-105374819D02*
X247985714Y-105374819D01*
X249319047Y-104374819D02*
X248842857Y-104374819D01*
X248842857Y-104374819D02*
X248795238Y-104851009D01*
X248795238Y-104851009D02*
X248842857Y-104803390D01*
X248842857Y-104803390D02*
X248938095Y-104755771D01*
X248938095Y-104755771D02*
X249176190Y-104755771D01*
X249176190Y-104755771D02*
X249271428Y-104803390D01*
X249271428Y-104803390D02*
X249319047Y-104851009D01*
X249319047Y-104851009D02*
X249366666Y-104946247D01*
X249366666Y-104946247D02*
X249366666Y-105184342D01*
X249366666Y-105184342D02*
X249319047Y-105279580D01*
X249319047Y-105279580D02*
X249271428Y-105327200D01*
X249271428Y-105327200D02*
X249176190Y-105374819D01*
X249176190Y-105374819D02*
X248938095Y-105374819D01*
X248938095Y-105374819D02*
X248842857Y-105327200D01*
X248842857Y-105327200D02*
X248795238Y-105279580D01*
D11*
X187499999Y-46942580D02*
X187499999Y-47942580D01*
X187499999Y-47942580D02*
X187261904Y-47942580D01*
X187261904Y-47942580D02*
X187119047Y-47894961D01*
X187119047Y-47894961D02*
X187023809Y-47799723D01*
X187023809Y-47799723D02*
X186976190Y-47704485D01*
X186976190Y-47704485D02*
X186928571Y-47514009D01*
X186928571Y-47514009D02*
X186928571Y-47371152D01*
X186928571Y-47371152D02*
X186976190Y-47180676D01*
X186976190Y-47180676D02*
X187023809Y-47085438D01*
X187023809Y-47085438D02*
X187119047Y-46990200D01*
X187119047Y-46990200D02*
X187261904Y-46942580D01*
X187261904Y-46942580D02*
X187499999Y-46942580D01*
X186499999Y-46942580D02*
X186499999Y-47609247D01*
X186499999Y-47942580D02*
X186547618Y-47894961D01*
X186547618Y-47894961D02*
X186499999Y-47847342D01*
X186499999Y-47847342D02*
X186452380Y-47894961D01*
X186452380Y-47894961D02*
X186499999Y-47942580D01*
X186499999Y-47942580D02*
X186499999Y-47847342D01*
X186071428Y-46990200D02*
X185976190Y-46942580D01*
X185976190Y-46942580D02*
X185785714Y-46942580D01*
X185785714Y-46942580D02*
X185690476Y-46990200D01*
X185690476Y-46990200D02*
X185642857Y-47085438D01*
X185642857Y-47085438D02*
X185642857Y-47133057D01*
X185642857Y-47133057D02*
X185690476Y-47228295D01*
X185690476Y-47228295D02*
X185785714Y-47275914D01*
X185785714Y-47275914D02*
X185928571Y-47275914D01*
X185928571Y-47275914D02*
X186023809Y-47323533D01*
X186023809Y-47323533D02*
X186071428Y-47418771D01*
X186071428Y-47418771D02*
X186071428Y-47466390D01*
X186071428Y-47466390D02*
X186023809Y-47561628D01*
X186023809Y-47561628D02*
X185928571Y-47609247D01*
X185928571Y-47609247D02*
X185785714Y-47609247D01*
X185785714Y-47609247D02*
X185690476Y-47561628D01*
X185214285Y-47609247D02*
X185214285Y-46609247D01*
X185214285Y-47561628D02*
X185119047Y-47609247D01*
X185119047Y-47609247D02*
X184928571Y-47609247D01*
X184928571Y-47609247D02*
X184833333Y-47561628D01*
X184833333Y-47561628D02*
X184785714Y-47514009D01*
X184785714Y-47514009D02*
X184738095Y-47418771D01*
X184738095Y-47418771D02*
X184738095Y-47133057D01*
X184738095Y-47133057D02*
X184785714Y-47037819D01*
X184785714Y-47037819D02*
X184833333Y-46990200D01*
X184833333Y-46990200D02*
X184928571Y-46942580D01*
X184928571Y-46942580D02*
X185119047Y-46942580D01*
X185119047Y-46942580D02*
X185214285Y-46990200D01*
X184166666Y-46942580D02*
X184261904Y-46990200D01*
X184261904Y-46990200D02*
X184309523Y-47085438D01*
X184309523Y-47085438D02*
X184309523Y-47942580D01*
X183357142Y-46942580D02*
X183357142Y-47466390D01*
X183357142Y-47466390D02*
X183404761Y-47561628D01*
X183404761Y-47561628D02*
X183499999Y-47609247D01*
X183499999Y-47609247D02*
X183690475Y-47609247D01*
X183690475Y-47609247D02*
X183785713Y-47561628D01*
X183357142Y-46990200D02*
X183452380Y-46942580D01*
X183452380Y-46942580D02*
X183690475Y-46942580D01*
X183690475Y-46942580D02*
X183785713Y-46990200D01*
X183785713Y-46990200D02*
X183833332Y-47085438D01*
X183833332Y-47085438D02*
X183833332Y-47180676D01*
X183833332Y-47180676D02*
X183785713Y-47275914D01*
X183785713Y-47275914D02*
X183690475Y-47323533D01*
X183690475Y-47323533D02*
X183452380Y-47323533D01*
X183452380Y-47323533D02*
X183357142Y-47371152D01*
X182976189Y-47609247D02*
X182738094Y-46942580D01*
X182499999Y-47609247D02*
X182738094Y-46942580D01*
X182738094Y-46942580D02*
X182833332Y-46704485D01*
X182833332Y-46704485D02*
X182880951Y-46656866D01*
X182880951Y-46656866D02*
X182976189Y-46609247D01*
X182119046Y-46942580D02*
X182119046Y-47942580D01*
X182119046Y-47942580D02*
X181738094Y-47942580D01*
X181738094Y-47942580D02*
X181642856Y-47894961D01*
X181642856Y-47894961D02*
X181595237Y-47847342D01*
X181595237Y-47847342D02*
X181547618Y-47752104D01*
X181547618Y-47752104D02*
X181547618Y-47609247D01*
X181547618Y-47609247D02*
X181595237Y-47514009D01*
X181595237Y-47514009D02*
X181642856Y-47466390D01*
X181642856Y-47466390D02*
X181738094Y-47418771D01*
X181738094Y-47418771D02*
X182119046Y-47418771D01*
X181214284Y-47942580D02*
X180976189Y-46942580D01*
X180976189Y-46942580D02*
X180785713Y-47656866D01*
X180785713Y-47656866D02*
X180595237Y-46942580D01*
X180595237Y-46942580D02*
X180357142Y-47942580D01*
X179404761Y-46942580D02*
X179738094Y-47418771D01*
X179976189Y-46942580D02*
X179976189Y-47942580D01*
X179976189Y-47942580D02*
X179595237Y-47942580D01*
X179595237Y-47942580D02*
X179499999Y-47894961D01*
X179499999Y-47894961D02*
X179452380Y-47847342D01*
X179452380Y-47847342D02*
X179404761Y-47752104D01*
X179404761Y-47752104D02*
X179404761Y-47609247D01*
X179404761Y-47609247D02*
X179452380Y-47514009D01*
X179452380Y-47514009D02*
X179499999Y-47466390D01*
X179499999Y-47466390D02*
X179595237Y-47418771D01*
X179595237Y-47418771D02*
X179976189Y-47418771D01*
X178452380Y-46942580D02*
X179023808Y-46942580D01*
X178738094Y-46942580D02*
X178738094Y-47942580D01*
X178738094Y-47942580D02*
X178833332Y-47799723D01*
X178833332Y-47799723D02*
X178928570Y-47704485D01*
X178928570Y-47704485D02*
X179023808Y-47656866D01*
D10*
X104007619Y-41145180D02*
X104340952Y-41621371D01*
X104579047Y-41145180D02*
X104579047Y-42145180D01*
X104579047Y-42145180D02*
X104198095Y-42145180D01*
X104198095Y-42145180D02*
X104102857Y-42097561D01*
X104102857Y-42097561D02*
X104055238Y-42049942D01*
X104055238Y-42049942D02*
X104007619Y-41954704D01*
X104007619Y-41954704D02*
X104007619Y-41811847D01*
X104007619Y-41811847D02*
X104055238Y-41716609D01*
X104055238Y-41716609D02*
X104102857Y-41668990D01*
X104102857Y-41668990D02*
X104198095Y-41621371D01*
X104198095Y-41621371D02*
X104579047Y-41621371D01*
X103198095Y-41192800D02*
X103293333Y-41145180D01*
X103293333Y-41145180D02*
X103483809Y-41145180D01*
X103483809Y-41145180D02*
X103579047Y-41192800D01*
X103579047Y-41192800D02*
X103626666Y-41288038D01*
X103626666Y-41288038D02*
X103626666Y-41668990D01*
X103626666Y-41668990D02*
X103579047Y-41764228D01*
X103579047Y-41764228D02*
X103483809Y-41811847D01*
X103483809Y-41811847D02*
X103293333Y-41811847D01*
X103293333Y-41811847D02*
X103198095Y-41764228D01*
X103198095Y-41764228D02*
X103150476Y-41668990D01*
X103150476Y-41668990D02*
X103150476Y-41573752D01*
X103150476Y-41573752D02*
X103626666Y-41478514D01*
X102293333Y-41192800D02*
X102388571Y-41145180D01*
X102388571Y-41145180D02*
X102579047Y-41145180D01*
X102579047Y-41145180D02*
X102674285Y-41192800D01*
X102674285Y-41192800D02*
X102721904Y-41240419D01*
X102721904Y-41240419D02*
X102769523Y-41335657D01*
X102769523Y-41335657D02*
X102769523Y-41621371D01*
X102769523Y-41621371D02*
X102721904Y-41716609D01*
X102721904Y-41716609D02*
X102674285Y-41764228D01*
X102674285Y-41764228D02*
X102579047Y-41811847D01*
X102579047Y-41811847D02*
X102388571Y-41811847D01*
X102388571Y-41811847D02*
X102293333Y-41764228D01*
X101864761Y-41145180D02*
X101864761Y-42145180D01*
X101436190Y-41145180D02*
X101436190Y-41668990D01*
X101436190Y-41668990D02*
X101483809Y-41764228D01*
X101483809Y-41764228D02*
X101579047Y-41811847D01*
X101579047Y-41811847D02*
X101721904Y-41811847D01*
X101721904Y-41811847D02*
X101817142Y-41764228D01*
X101817142Y-41764228D02*
X101864761Y-41716609D01*
X100531428Y-41145180D02*
X100531428Y-41668990D01*
X100531428Y-41668990D02*
X100579047Y-41764228D01*
X100579047Y-41764228D02*
X100674285Y-41811847D01*
X100674285Y-41811847D02*
X100864761Y-41811847D01*
X100864761Y-41811847D02*
X100959999Y-41764228D01*
X100531428Y-41192800D02*
X100626666Y-41145180D01*
X100626666Y-41145180D02*
X100864761Y-41145180D01*
X100864761Y-41145180D02*
X100959999Y-41192800D01*
X100959999Y-41192800D02*
X101007618Y-41288038D01*
X101007618Y-41288038D02*
X101007618Y-41383276D01*
X101007618Y-41383276D02*
X100959999Y-41478514D01*
X100959999Y-41478514D02*
X100864761Y-41526133D01*
X100864761Y-41526133D02*
X100626666Y-41526133D01*
X100626666Y-41526133D02*
X100531428Y-41573752D01*
X100055237Y-41145180D02*
X100055237Y-41811847D01*
X100055237Y-41621371D02*
X100007618Y-41716609D01*
X100007618Y-41716609D02*
X99959999Y-41764228D01*
X99959999Y-41764228D02*
X99864761Y-41811847D01*
X99864761Y-41811847D02*
X99769523Y-41811847D01*
X99007618Y-41811847D02*
X99007618Y-41002323D01*
X99007618Y-41002323D02*
X99055237Y-40907085D01*
X99055237Y-40907085D02*
X99102856Y-40859466D01*
X99102856Y-40859466D02*
X99198094Y-40811847D01*
X99198094Y-40811847D02*
X99340951Y-40811847D01*
X99340951Y-40811847D02*
X99436189Y-40859466D01*
X99007618Y-41192800D02*
X99102856Y-41145180D01*
X99102856Y-41145180D02*
X99293332Y-41145180D01*
X99293332Y-41145180D02*
X99388570Y-41192800D01*
X99388570Y-41192800D02*
X99436189Y-41240419D01*
X99436189Y-41240419D02*
X99483808Y-41335657D01*
X99483808Y-41335657D02*
X99483808Y-41621371D01*
X99483808Y-41621371D02*
X99436189Y-41716609D01*
X99436189Y-41716609D02*
X99388570Y-41764228D01*
X99388570Y-41764228D02*
X99293332Y-41811847D01*
X99293332Y-41811847D02*
X99102856Y-41811847D01*
X99102856Y-41811847D02*
X99007618Y-41764228D01*
X98150475Y-41192800D02*
X98245713Y-41145180D01*
X98245713Y-41145180D02*
X98436189Y-41145180D01*
X98436189Y-41145180D02*
X98531427Y-41192800D01*
X98531427Y-41192800D02*
X98579046Y-41288038D01*
X98579046Y-41288038D02*
X98579046Y-41668990D01*
X98579046Y-41668990D02*
X98531427Y-41764228D01*
X98531427Y-41764228D02*
X98436189Y-41811847D01*
X98436189Y-41811847D02*
X98245713Y-41811847D01*
X98245713Y-41811847D02*
X98150475Y-41764228D01*
X98150475Y-41764228D02*
X98102856Y-41668990D01*
X98102856Y-41668990D02*
X98102856Y-41573752D01*
X98102856Y-41573752D02*
X98579046Y-41478514D01*
X97721903Y-41430895D02*
X97245713Y-41430895D01*
X97817141Y-41145180D02*
X97483808Y-42145180D01*
X97483808Y-42145180D02*
X97150475Y-41145180D01*
X96293332Y-41145180D02*
X96864760Y-41145180D01*
X96579046Y-41145180D02*
X96579046Y-42145180D01*
X96579046Y-42145180D02*
X96674284Y-42002323D01*
X96674284Y-42002323D02*
X96769522Y-41907085D01*
X96769522Y-41907085D02*
X96864760Y-41859466D01*
X218309580Y-134866666D02*
X218357200Y-134914285D01*
X218357200Y-134914285D02*
X218404819Y-135057142D01*
X218404819Y-135057142D02*
X218404819Y-135152380D01*
X218404819Y-135152380D02*
X218357200Y-135295237D01*
X218357200Y-135295237D02*
X218261961Y-135390475D01*
X218261961Y-135390475D02*
X218166723Y-135438094D01*
X218166723Y-135438094D02*
X217976247Y-135485713D01*
X217976247Y-135485713D02*
X217833390Y-135485713D01*
X217833390Y-135485713D02*
X217642914Y-135438094D01*
X217642914Y-135438094D02*
X217547676Y-135390475D01*
X217547676Y-135390475D02*
X217452438Y-135295237D01*
X217452438Y-135295237D02*
X217404819Y-135152380D01*
X217404819Y-135152380D02*
X217404819Y-135057142D01*
X217404819Y-135057142D02*
X217452438Y-134914285D01*
X217452438Y-134914285D02*
X217500057Y-134866666D01*
X218404819Y-133914285D02*
X218404819Y-134485713D01*
X218404819Y-134199999D02*
X217404819Y-134199999D01*
X217404819Y-134199999D02*
X217547676Y-134295237D01*
X217547676Y-134295237D02*
X217642914Y-134390475D01*
X217642914Y-134390475D02*
X217690533Y-134485713D01*
X225710476Y-106914819D02*
X225710476Y-107629104D01*
X225710476Y-107629104D02*
X225662857Y-107771961D01*
X225662857Y-107771961D02*
X225567619Y-107867200D01*
X225567619Y-107867200D02*
X225424762Y-107914819D01*
X225424762Y-107914819D02*
X225329524Y-107914819D01*
X226710476Y-107914819D02*
X226139048Y-107914819D01*
X226424762Y-107914819D02*
X226424762Y-106914819D01*
X226424762Y-106914819D02*
X226329524Y-107057676D01*
X226329524Y-107057676D02*
X226234286Y-107152914D01*
X226234286Y-107152914D02*
X226139048Y-107200533D01*
X227662857Y-107914819D02*
X227091429Y-107914819D01*
X227377143Y-107914819D02*
X227377143Y-106914819D01*
X227377143Y-106914819D02*
X227281905Y-107057676D01*
X227281905Y-107057676D02*
X227186667Y-107152914D01*
X227186667Y-107152914D02*
X227091429Y-107200533D01*
X232953382Y-83819580D02*
X232905763Y-83867200D01*
X232905763Y-83867200D02*
X232762906Y-83914819D01*
X232762906Y-83914819D02*
X232667668Y-83914819D01*
X232667668Y-83914819D02*
X232524811Y-83867200D01*
X232524811Y-83867200D02*
X232429573Y-83771961D01*
X232429573Y-83771961D02*
X232381954Y-83676723D01*
X232381954Y-83676723D02*
X232334335Y-83486247D01*
X232334335Y-83486247D02*
X232334335Y-83343390D01*
X232334335Y-83343390D02*
X232381954Y-83152914D01*
X232381954Y-83152914D02*
X232429573Y-83057676D01*
X232429573Y-83057676D02*
X232524811Y-82962438D01*
X232524811Y-82962438D02*
X232667668Y-82914819D01*
X232667668Y-82914819D02*
X232762906Y-82914819D01*
X232762906Y-82914819D02*
X232905763Y-82962438D01*
X232905763Y-82962438D02*
X232953382Y-83010057D01*
X233858144Y-82914819D02*
X233381954Y-82914819D01*
X233381954Y-82914819D02*
X233334335Y-83391009D01*
X233334335Y-83391009D02*
X233381954Y-83343390D01*
X233381954Y-83343390D02*
X233477192Y-83295771D01*
X233477192Y-83295771D02*
X233715287Y-83295771D01*
X233715287Y-83295771D02*
X233810525Y-83343390D01*
X233810525Y-83343390D02*
X233858144Y-83391009D01*
X233858144Y-83391009D02*
X233905763Y-83486247D01*
X233905763Y-83486247D02*
X233905763Y-83724342D01*
X233905763Y-83724342D02*
X233858144Y-83819580D01*
X233858144Y-83819580D02*
X233810525Y-83867200D01*
X233810525Y-83867200D02*
X233715287Y-83914819D01*
X233715287Y-83914819D02*
X233477192Y-83914819D01*
X233477192Y-83914819D02*
X233381954Y-83867200D01*
X233381954Y-83867200D02*
X233334335Y-83819580D01*
X87745180Y-92636191D02*
X88745180Y-92636191D01*
X88745180Y-92636191D02*
X88030895Y-92969524D01*
X88030895Y-92969524D02*
X88745180Y-93302857D01*
X88745180Y-93302857D02*
X87745180Y-93302857D01*
X87745180Y-94207619D02*
X88268990Y-94207619D01*
X88268990Y-94207619D02*
X88364228Y-94160000D01*
X88364228Y-94160000D02*
X88411847Y-94064762D01*
X88411847Y-94064762D02*
X88411847Y-93874286D01*
X88411847Y-93874286D02*
X88364228Y-93779048D01*
X87792800Y-94207619D02*
X87745180Y-94112381D01*
X87745180Y-94112381D02*
X87745180Y-93874286D01*
X87745180Y-93874286D02*
X87792800Y-93779048D01*
X87792800Y-93779048D02*
X87888038Y-93731429D01*
X87888038Y-93731429D02*
X87983276Y-93731429D01*
X87983276Y-93731429D02*
X88078514Y-93779048D01*
X88078514Y-93779048D02*
X88126133Y-93874286D01*
X88126133Y-93874286D02*
X88126133Y-94112381D01*
X88126133Y-94112381D02*
X88173752Y-94207619D01*
X87745180Y-94683810D02*
X88411847Y-94683810D01*
X88745180Y-94683810D02*
X88697561Y-94636191D01*
X88697561Y-94636191D02*
X88649942Y-94683810D01*
X88649942Y-94683810D02*
X88697561Y-94731429D01*
X88697561Y-94731429D02*
X88745180Y-94683810D01*
X88745180Y-94683810D02*
X88649942Y-94683810D01*
X88411847Y-95160000D02*
X87745180Y-95160000D01*
X88316609Y-95160000D02*
X88364228Y-95207619D01*
X88364228Y-95207619D02*
X88411847Y-95302857D01*
X88411847Y-95302857D02*
X88411847Y-95445714D01*
X88411847Y-95445714D02*
X88364228Y-95540952D01*
X88364228Y-95540952D02*
X88268990Y-95588571D01*
X88268990Y-95588571D02*
X87745180Y-95588571D01*
X87745180Y-96064762D02*
X88745180Y-96064762D01*
X88745180Y-96064762D02*
X88745180Y-96445714D01*
X88745180Y-96445714D02*
X88697561Y-96540952D01*
X88697561Y-96540952D02*
X88649942Y-96588571D01*
X88649942Y-96588571D02*
X88554704Y-96636190D01*
X88554704Y-96636190D02*
X88411847Y-96636190D01*
X88411847Y-96636190D02*
X88316609Y-96588571D01*
X88316609Y-96588571D02*
X88268990Y-96540952D01*
X88268990Y-96540952D02*
X88221371Y-96445714D01*
X88221371Y-96445714D02*
X88221371Y-96064762D01*
X88745180Y-96969524D02*
X87745180Y-97207619D01*
X87745180Y-97207619D02*
X88459466Y-97398095D01*
X88459466Y-97398095D02*
X87745180Y-97588571D01*
X87745180Y-97588571D02*
X88745180Y-97826667D01*
X87745180Y-98779047D02*
X88221371Y-98445714D01*
X87745180Y-98207619D02*
X88745180Y-98207619D01*
X88745180Y-98207619D02*
X88745180Y-98588571D01*
X88745180Y-98588571D02*
X88697561Y-98683809D01*
X88697561Y-98683809D02*
X88649942Y-98731428D01*
X88649942Y-98731428D02*
X88554704Y-98779047D01*
X88554704Y-98779047D02*
X88411847Y-98779047D01*
X88411847Y-98779047D02*
X88316609Y-98731428D01*
X88316609Y-98731428D02*
X88268990Y-98683809D01*
X88268990Y-98683809D02*
X88221371Y-98588571D01*
X88221371Y-98588571D02*
X88221371Y-98207619D01*
X87745180Y-99731428D02*
X87745180Y-99160000D01*
X87745180Y-99445714D02*
X88745180Y-99445714D01*
X88745180Y-99445714D02*
X88602323Y-99350476D01*
X88602323Y-99350476D02*
X88507085Y-99255238D01*
X88507085Y-99255238D02*
X88459466Y-99160000D01*
X102058333Y-153189819D02*
X102248809Y-153189819D01*
X102248809Y-153189819D02*
X102344047Y-153237438D01*
X102344047Y-153237438D02*
X102439285Y-153332676D01*
X102439285Y-153332676D02*
X102486904Y-153523152D01*
X102486904Y-153523152D02*
X102486904Y-153856485D01*
X102486904Y-153856485D02*
X102439285Y-154046961D01*
X102439285Y-154046961D02*
X102344047Y-154142200D01*
X102344047Y-154142200D02*
X102248809Y-154189819D01*
X102248809Y-154189819D02*
X102058333Y-154189819D01*
X102058333Y-154189819D02*
X101963095Y-154142200D01*
X101963095Y-154142200D02*
X101867857Y-154046961D01*
X101867857Y-154046961D02*
X101820238Y-153856485D01*
X101820238Y-153856485D02*
X101820238Y-153523152D01*
X101820238Y-153523152D02*
X101867857Y-153332676D01*
X101867857Y-153332676D02*
X101963095Y-153237438D01*
X101963095Y-153237438D02*
X102058333Y-153189819D01*
X102915476Y-154189819D02*
X102915476Y-153189819D01*
X102915476Y-153189819D02*
X103486904Y-154189819D01*
X103486904Y-154189819D02*
X103486904Y-153189819D01*
X104677380Y-153142200D02*
X103820238Y-154427914D01*
X105201190Y-153189819D02*
X105391666Y-153189819D01*
X105391666Y-153189819D02*
X105486904Y-153237438D01*
X105486904Y-153237438D02*
X105582142Y-153332676D01*
X105582142Y-153332676D02*
X105629761Y-153523152D01*
X105629761Y-153523152D02*
X105629761Y-153856485D01*
X105629761Y-153856485D02*
X105582142Y-154046961D01*
X105582142Y-154046961D02*
X105486904Y-154142200D01*
X105486904Y-154142200D02*
X105391666Y-154189819D01*
X105391666Y-154189819D02*
X105201190Y-154189819D01*
X105201190Y-154189819D02*
X105105952Y-154142200D01*
X105105952Y-154142200D02*
X105010714Y-154046961D01*
X105010714Y-154046961D02*
X104963095Y-153856485D01*
X104963095Y-153856485D02*
X104963095Y-153523152D01*
X104963095Y-153523152D02*
X105010714Y-153332676D01*
X105010714Y-153332676D02*
X105105952Y-153237438D01*
X105105952Y-153237438D02*
X105201190Y-153189819D01*
X106391666Y-153666009D02*
X106058333Y-153666009D01*
X106058333Y-154189819D02*
X106058333Y-153189819D01*
X106058333Y-153189819D02*
X106534523Y-153189819D01*
X107248809Y-153666009D02*
X106915476Y-153666009D01*
X106915476Y-154189819D02*
X106915476Y-153189819D01*
X106915476Y-153189819D02*
X107391666Y-153189819D01*
X107772619Y-154189819D02*
X107772619Y-153523152D01*
X107772619Y-153618390D02*
X107820238Y-153570771D01*
X107820238Y-153570771D02*
X107915476Y-153523152D01*
X107915476Y-153523152D02*
X108058333Y-153523152D01*
X108058333Y-153523152D02*
X108153571Y-153570771D01*
X108153571Y-153570771D02*
X108201190Y-153666009D01*
X108201190Y-153666009D02*
X108201190Y-154189819D01*
X108201190Y-153666009D02*
X108248809Y-153570771D01*
X108248809Y-153570771D02*
X108344047Y-153523152D01*
X108344047Y-153523152D02*
X108486904Y-153523152D01*
X108486904Y-153523152D02*
X108582143Y-153570771D01*
X108582143Y-153570771D02*
X108629762Y-153666009D01*
X108629762Y-153666009D02*
X108629762Y-154189819D01*
X109248809Y-154189819D02*
X109153571Y-154142200D01*
X109153571Y-154142200D02*
X109105952Y-154094580D01*
X109105952Y-154094580D02*
X109058333Y-153999342D01*
X109058333Y-153999342D02*
X109058333Y-153713628D01*
X109058333Y-153713628D02*
X109105952Y-153618390D01*
X109105952Y-153618390D02*
X109153571Y-153570771D01*
X109153571Y-153570771D02*
X109248809Y-153523152D01*
X109248809Y-153523152D02*
X109391666Y-153523152D01*
X109391666Y-153523152D02*
X109486904Y-153570771D01*
X109486904Y-153570771D02*
X109534523Y-153618390D01*
X109534523Y-153618390D02*
X109582142Y-153713628D01*
X109582142Y-153713628D02*
X109582142Y-153999342D01*
X109582142Y-153999342D02*
X109534523Y-154094580D01*
X109534523Y-154094580D02*
X109486904Y-154142200D01*
X109486904Y-154142200D02*
X109391666Y-154189819D01*
X109391666Y-154189819D02*
X109248809Y-154189819D01*
X110439285Y-154189819D02*
X110439285Y-153189819D01*
X110439285Y-154142200D02*
X110344047Y-154189819D01*
X110344047Y-154189819D02*
X110153571Y-154189819D01*
X110153571Y-154189819D02*
X110058333Y-154142200D01*
X110058333Y-154142200D02*
X110010714Y-154094580D01*
X110010714Y-154094580D02*
X109963095Y-153999342D01*
X109963095Y-153999342D02*
X109963095Y-153713628D01*
X109963095Y-153713628D02*
X110010714Y-153618390D01*
X110010714Y-153618390D02*
X110058333Y-153570771D01*
X110058333Y-153570771D02*
X110153571Y-153523152D01*
X110153571Y-153523152D02*
X110344047Y-153523152D01*
X110344047Y-153523152D02*
X110439285Y-153570771D01*
X111296428Y-154142200D02*
X111201190Y-154189819D01*
X111201190Y-154189819D02*
X111010714Y-154189819D01*
X111010714Y-154189819D02*
X110915476Y-154142200D01*
X110915476Y-154142200D02*
X110867857Y-154046961D01*
X110867857Y-154046961D02*
X110867857Y-153666009D01*
X110867857Y-153666009D02*
X110915476Y-153570771D01*
X110915476Y-153570771D02*
X111010714Y-153523152D01*
X111010714Y-153523152D02*
X111201190Y-153523152D01*
X111201190Y-153523152D02*
X111296428Y-153570771D01*
X111296428Y-153570771D02*
X111344047Y-153666009D01*
X111344047Y-153666009D02*
X111344047Y-153761247D01*
X111344047Y-153761247D02*
X110867857Y-153856485D01*
X111772619Y-154189819D02*
X111772619Y-153523152D01*
X111772619Y-153618390D02*
X111820238Y-153570771D01*
X111820238Y-153570771D02*
X111915476Y-153523152D01*
X111915476Y-153523152D02*
X112058333Y-153523152D01*
X112058333Y-153523152D02*
X112153571Y-153570771D01*
X112153571Y-153570771D02*
X112201190Y-153666009D01*
X112201190Y-153666009D02*
X112201190Y-154189819D01*
X112201190Y-153666009D02*
X112248809Y-153570771D01*
X112248809Y-153570771D02*
X112344047Y-153523152D01*
X112344047Y-153523152D02*
X112486904Y-153523152D01*
X112486904Y-153523152D02*
X112582143Y-153570771D01*
X112582143Y-153570771D02*
X112629762Y-153666009D01*
X112629762Y-153666009D02*
X112629762Y-154189819D01*
X113629761Y-154189819D02*
X113058333Y-154189819D01*
X113344047Y-154189819D02*
X113344047Y-153189819D01*
X113344047Y-153189819D02*
X113248809Y-153332676D01*
X113248809Y-153332676D02*
X113153571Y-153427914D01*
X113153571Y-153427914D02*
X113058333Y-153475533D01*
D11*
X207999999Y-46875080D02*
X207999999Y-47875080D01*
X207999999Y-47875080D02*
X207761904Y-47875080D01*
X207761904Y-47875080D02*
X207619047Y-47827461D01*
X207619047Y-47827461D02*
X207523809Y-47732223D01*
X207523809Y-47732223D02*
X207476190Y-47636985D01*
X207476190Y-47636985D02*
X207428571Y-47446509D01*
X207428571Y-47446509D02*
X207428571Y-47303652D01*
X207428571Y-47303652D02*
X207476190Y-47113176D01*
X207476190Y-47113176D02*
X207523809Y-47017938D01*
X207523809Y-47017938D02*
X207619047Y-46922700D01*
X207619047Y-46922700D02*
X207761904Y-46875080D01*
X207761904Y-46875080D02*
X207999999Y-46875080D01*
X206999999Y-46875080D02*
X206999999Y-47541747D01*
X206999999Y-47875080D02*
X207047618Y-47827461D01*
X207047618Y-47827461D02*
X206999999Y-47779842D01*
X206999999Y-47779842D02*
X206952380Y-47827461D01*
X206952380Y-47827461D02*
X206999999Y-47875080D01*
X206999999Y-47875080D02*
X206999999Y-47779842D01*
X206571428Y-46922700D02*
X206476190Y-46875080D01*
X206476190Y-46875080D02*
X206285714Y-46875080D01*
X206285714Y-46875080D02*
X206190476Y-46922700D01*
X206190476Y-46922700D02*
X206142857Y-47017938D01*
X206142857Y-47017938D02*
X206142857Y-47065557D01*
X206142857Y-47065557D02*
X206190476Y-47160795D01*
X206190476Y-47160795D02*
X206285714Y-47208414D01*
X206285714Y-47208414D02*
X206428571Y-47208414D01*
X206428571Y-47208414D02*
X206523809Y-47256033D01*
X206523809Y-47256033D02*
X206571428Y-47351271D01*
X206571428Y-47351271D02*
X206571428Y-47398890D01*
X206571428Y-47398890D02*
X206523809Y-47494128D01*
X206523809Y-47494128D02*
X206428571Y-47541747D01*
X206428571Y-47541747D02*
X206285714Y-47541747D01*
X206285714Y-47541747D02*
X206190476Y-47494128D01*
X205714285Y-47541747D02*
X205714285Y-46541747D01*
X205714285Y-47494128D02*
X205619047Y-47541747D01*
X205619047Y-47541747D02*
X205428571Y-47541747D01*
X205428571Y-47541747D02*
X205333333Y-47494128D01*
X205333333Y-47494128D02*
X205285714Y-47446509D01*
X205285714Y-47446509D02*
X205238095Y-47351271D01*
X205238095Y-47351271D02*
X205238095Y-47065557D01*
X205238095Y-47065557D02*
X205285714Y-46970319D01*
X205285714Y-46970319D02*
X205333333Y-46922700D01*
X205333333Y-46922700D02*
X205428571Y-46875080D01*
X205428571Y-46875080D02*
X205619047Y-46875080D01*
X205619047Y-46875080D02*
X205714285Y-46922700D01*
X204666666Y-46875080D02*
X204761904Y-46922700D01*
X204761904Y-46922700D02*
X204809523Y-47017938D01*
X204809523Y-47017938D02*
X204809523Y-47875080D01*
X203857142Y-46875080D02*
X203857142Y-47398890D01*
X203857142Y-47398890D02*
X203904761Y-47494128D01*
X203904761Y-47494128D02*
X203999999Y-47541747D01*
X203999999Y-47541747D02*
X204190475Y-47541747D01*
X204190475Y-47541747D02*
X204285713Y-47494128D01*
X203857142Y-46922700D02*
X203952380Y-46875080D01*
X203952380Y-46875080D02*
X204190475Y-46875080D01*
X204190475Y-46875080D02*
X204285713Y-46922700D01*
X204285713Y-46922700D02*
X204333332Y-47017938D01*
X204333332Y-47017938D02*
X204333332Y-47113176D01*
X204333332Y-47113176D02*
X204285713Y-47208414D01*
X204285713Y-47208414D02*
X204190475Y-47256033D01*
X204190475Y-47256033D02*
X203952380Y-47256033D01*
X203952380Y-47256033D02*
X203857142Y-47303652D01*
X203476189Y-47541747D02*
X203238094Y-46875080D01*
X202999999Y-47541747D02*
X203238094Y-46875080D01*
X203238094Y-46875080D02*
X203333332Y-46636985D01*
X203333332Y-46636985D02*
X203380951Y-46589366D01*
X203380951Y-46589366D02*
X203476189Y-46541747D01*
X202619046Y-46875080D02*
X202619046Y-47875080D01*
X202619046Y-47875080D02*
X202238094Y-47875080D01*
X202238094Y-47875080D02*
X202142856Y-47827461D01*
X202142856Y-47827461D02*
X202095237Y-47779842D01*
X202095237Y-47779842D02*
X202047618Y-47684604D01*
X202047618Y-47684604D02*
X202047618Y-47541747D01*
X202047618Y-47541747D02*
X202095237Y-47446509D01*
X202095237Y-47446509D02*
X202142856Y-47398890D01*
X202142856Y-47398890D02*
X202238094Y-47351271D01*
X202238094Y-47351271D02*
X202619046Y-47351271D01*
X201714284Y-47875080D02*
X201476189Y-46875080D01*
X201476189Y-46875080D02*
X201285713Y-47589366D01*
X201285713Y-47589366D02*
X201095237Y-46875080D01*
X201095237Y-46875080D02*
X200857142Y-47875080D01*
X199904761Y-46875080D02*
X200238094Y-47351271D01*
X200476189Y-46875080D02*
X200476189Y-47875080D01*
X200476189Y-47875080D02*
X200095237Y-47875080D01*
X200095237Y-47875080D02*
X199999999Y-47827461D01*
X199999999Y-47827461D02*
X199952380Y-47779842D01*
X199952380Y-47779842D02*
X199904761Y-47684604D01*
X199904761Y-47684604D02*
X199904761Y-47541747D01*
X199904761Y-47541747D02*
X199952380Y-47446509D01*
X199952380Y-47446509D02*
X199999999Y-47398890D01*
X199999999Y-47398890D02*
X200095237Y-47351271D01*
X200095237Y-47351271D02*
X200476189Y-47351271D01*
X199523808Y-47779842D02*
X199476189Y-47827461D01*
X199476189Y-47827461D02*
X199380951Y-47875080D01*
X199380951Y-47875080D02*
X199142856Y-47875080D01*
X199142856Y-47875080D02*
X199047618Y-47827461D01*
X199047618Y-47827461D02*
X198999999Y-47779842D01*
X198999999Y-47779842D02*
X198952380Y-47684604D01*
X198952380Y-47684604D02*
X198952380Y-47589366D01*
X198952380Y-47589366D02*
X198999999Y-47446509D01*
X198999999Y-47446509D02*
X199571427Y-46875080D01*
X199571427Y-46875080D02*
X198952380Y-46875080D01*
D10*
X185509522Y-129559580D02*
X185461903Y-129607200D01*
X185461903Y-129607200D02*
X185319046Y-129654819D01*
X185319046Y-129654819D02*
X185223808Y-129654819D01*
X185223808Y-129654819D02*
X185080951Y-129607200D01*
X185080951Y-129607200D02*
X184985713Y-129511961D01*
X184985713Y-129511961D02*
X184938094Y-129416723D01*
X184938094Y-129416723D02*
X184890475Y-129226247D01*
X184890475Y-129226247D02*
X184890475Y-129083390D01*
X184890475Y-129083390D02*
X184938094Y-128892914D01*
X184938094Y-128892914D02*
X184985713Y-128797676D01*
X184985713Y-128797676D02*
X185080951Y-128702438D01*
X185080951Y-128702438D02*
X185223808Y-128654819D01*
X185223808Y-128654819D02*
X185319046Y-128654819D01*
X185319046Y-128654819D02*
X185461903Y-128702438D01*
X185461903Y-128702438D02*
X185509522Y-128750057D01*
X186319046Y-129607200D02*
X186223808Y-129654819D01*
X186223808Y-129654819D02*
X186033332Y-129654819D01*
X186033332Y-129654819D02*
X185938094Y-129607200D01*
X185938094Y-129607200D02*
X185890475Y-129511961D01*
X185890475Y-129511961D02*
X185890475Y-129131009D01*
X185890475Y-129131009D02*
X185938094Y-129035771D01*
X185938094Y-129035771D02*
X186033332Y-128988152D01*
X186033332Y-128988152D02*
X186223808Y-128988152D01*
X186223808Y-128988152D02*
X186319046Y-129035771D01*
X186319046Y-129035771D02*
X186366665Y-129131009D01*
X186366665Y-129131009D02*
X186366665Y-129226247D01*
X186366665Y-129226247D02*
X185890475Y-129321485D01*
X186795237Y-128988152D02*
X186795237Y-129654819D01*
X186795237Y-129083390D02*
X186842856Y-129035771D01*
X186842856Y-129035771D02*
X186938094Y-128988152D01*
X186938094Y-128988152D02*
X187080951Y-128988152D01*
X187080951Y-128988152D02*
X187176189Y-129035771D01*
X187176189Y-129035771D02*
X187223808Y-129131009D01*
X187223808Y-129131009D02*
X187223808Y-129654819D01*
X187557142Y-128988152D02*
X187938094Y-128988152D01*
X187699999Y-128654819D02*
X187699999Y-129511961D01*
X187699999Y-129511961D02*
X187747618Y-129607200D01*
X187747618Y-129607200D02*
X187842856Y-129654819D01*
X187842856Y-129654819D02*
X187938094Y-129654819D01*
X188271428Y-129654819D02*
X188271428Y-128988152D01*
X188271428Y-129178628D02*
X188319047Y-129083390D01*
X188319047Y-129083390D02*
X188366666Y-129035771D01*
X188366666Y-129035771D02*
X188461904Y-128988152D01*
X188461904Y-128988152D02*
X188557142Y-128988152D01*
X189319047Y-129654819D02*
X189319047Y-129131009D01*
X189319047Y-129131009D02*
X189271428Y-129035771D01*
X189271428Y-129035771D02*
X189176190Y-128988152D01*
X189176190Y-128988152D02*
X188985714Y-128988152D01*
X188985714Y-128988152D02*
X188890476Y-129035771D01*
X189319047Y-129607200D02*
X189223809Y-129654819D01*
X189223809Y-129654819D02*
X188985714Y-129654819D01*
X188985714Y-129654819D02*
X188890476Y-129607200D01*
X188890476Y-129607200D02*
X188842857Y-129511961D01*
X188842857Y-129511961D02*
X188842857Y-129416723D01*
X188842857Y-129416723D02*
X188890476Y-129321485D01*
X188890476Y-129321485D02*
X188985714Y-129273866D01*
X188985714Y-129273866D02*
X189223809Y-129273866D01*
X189223809Y-129273866D02*
X189319047Y-129226247D01*
X189938095Y-129654819D02*
X189842857Y-129607200D01*
X189842857Y-129607200D02*
X189795238Y-129511961D01*
X189795238Y-129511961D02*
X189795238Y-128654819D01*
X190652381Y-129131009D02*
X190319048Y-129131009D01*
X190319048Y-129654819D02*
X190319048Y-128654819D01*
X190319048Y-128654819D02*
X190795238Y-128654819D01*
X191604762Y-129654819D02*
X191604762Y-129131009D01*
X191604762Y-129131009D02*
X191557143Y-129035771D01*
X191557143Y-129035771D02*
X191461905Y-128988152D01*
X191461905Y-128988152D02*
X191271429Y-128988152D01*
X191271429Y-128988152D02*
X191176191Y-129035771D01*
X191604762Y-129607200D02*
X191509524Y-129654819D01*
X191509524Y-129654819D02*
X191271429Y-129654819D01*
X191271429Y-129654819D02*
X191176191Y-129607200D01*
X191176191Y-129607200D02*
X191128572Y-129511961D01*
X191128572Y-129511961D02*
X191128572Y-129416723D01*
X191128572Y-129416723D02*
X191176191Y-129321485D01*
X191176191Y-129321485D02*
X191271429Y-129273866D01*
X191271429Y-129273866D02*
X191509524Y-129273866D01*
X191509524Y-129273866D02*
X191604762Y-129226247D01*
X192080953Y-128988152D02*
X192080953Y-129654819D01*
X192080953Y-129083390D02*
X192128572Y-129035771D01*
X192128572Y-129035771D02*
X192223810Y-128988152D01*
X192223810Y-128988152D02*
X192366667Y-128988152D01*
X192366667Y-128988152D02*
X192461905Y-129035771D01*
X192461905Y-129035771D02*
X192509524Y-129131009D01*
X192509524Y-129131009D02*
X192509524Y-129654819D01*
X193509524Y-129654819D02*
X192938096Y-129654819D01*
X193223810Y-129654819D02*
X193223810Y-128654819D01*
X193223810Y-128654819D02*
X193128572Y-128797676D01*
X193128572Y-128797676D02*
X193033334Y-128892914D01*
X193033334Y-128892914D02*
X192938096Y-128940533D01*
X128215476Y-153189819D02*
X128405952Y-153189819D01*
X128405952Y-153189819D02*
X128501190Y-153237438D01*
X128501190Y-153237438D02*
X128596428Y-153332676D01*
X128596428Y-153332676D02*
X128644047Y-153523152D01*
X128644047Y-153523152D02*
X128644047Y-153856485D01*
X128644047Y-153856485D02*
X128596428Y-154046961D01*
X128596428Y-154046961D02*
X128501190Y-154142200D01*
X128501190Y-154142200D02*
X128405952Y-154189819D01*
X128405952Y-154189819D02*
X128215476Y-154189819D01*
X128215476Y-154189819D02*
X128120238Y-154142200D01*
X128120238Y-154142200D02*
X128025000Y-154046961D01*
X128025000Y-154046961D02*
X127977381Y-153856485D01*
X127977381Y-153856485D02*
X127977381Y-153523152D01*
X127977381Y-153523152D02*
X128025000Y-153332676D01*
X128025000Y-153332676D02*
X128120238Y-153237438D01*
X128120238Y-153237438D02*
X128215476Y-153189819D01*
X129072619Y-154189819D02*
X129072619Y-153189819D01*
X129072619Y-153189819D02*
X129644047Y-154189819D01*
X129644047Y-154189819D02*
X129644047Y-153189819D01*
X130834523Y-153142200D02*
X129977381Y-154427914D01*
X131358333Y-153189819D02*
X131548809Y-153189819D01*
X131548809Y-153189819D02*
X131644047Y-153237438D01*
X131644047Y-153237438D02*
X131739285Y-153332676D01*
X131739285Y-153332676D02*
X131786904Y-153523152D01*
X131786904Y-153523152D02*
X131786904Y-153856485D01*
X131786904Y-153856485D02*
X131739285Y-154046961D01*
X131739285Y-154046961D02*
X131644047Y-154142200D01*
X131644047Y-154142200D02*
X131548809Y-154189819D01*
X131548809Y-154189819D02*
X131358333Y-154189819D01*
X131358333Y-154189819D02*
X131263095Y-154142200D01*
X131263095Y-154142200D02*
X131167857Y-154046961D01*
X131167857Y-154046961D02*
X131120238Y-153856485D01*
X131120238Y-153856485D02*
X131120238Y-153523152D01*
X131120238Y-153523152D02*
X131167857Y-153332676D01*
X131167857Y-153332676D02*
X131263095Y-153237438D01*
X131263095Y-153237438D02*
X131358333Y-153189819D01*
X132548809Y-153666009D02*
X132215476Y-153666009D01*
X132215476Y-154189819D02*
X132215476Y-153189819D01*
X132215476Y-153189819D02*
X132691666Y-153189819D01*
X133405952Y-153666009D02*
X133072619Y-153666009D01*
X133072619Y-154189819D02*
X133072619Y-153189819D01*
X133072619Y-153189819D02*
X133548809Y-153189819D01*
X133929762Y-154189819D02*
X133929762Y-153523152D01*
X133929762Y-153618390D02*
X133977381Y-153570771D01*
X133977381Y-153570771D02*
X134072619Y-153523152D01*
X134072619Y-153523152D02*
X134215476Y-153523152D01*
X134215476Y-153523152D02*
X134310714Y-153570771D01*
X134310714Y-153570771D02*
X134358333Y-153666009D01*
X134358333Y-153666009D02*
X134358333Y-154189819D01*
X134358333Y-153666009D02*
X134405952Y-153570771D01*
X134405952Y-153570771D02*
X134501190Y-153523152D01*
X134501190Y-153523152D02*
X134644047Y-153523152D01*
X134644047Y-153523152D02*
X134739286Y-153570771D01*
X134739286Y-153570771D02*
X134786905Y-153666009D01*
X134786905Y-153666009D02*
X134786905Y-154189819D01*
X135691666Y-154189819D02*
X135691666Y-153666009D01*
X135691666Y-153666009D02*
X135644047Y-153570771D01*
X135644047Y-153570771D02*
X135548809Y-153523152D01*
X135548809Y-153523152D02*
X135358333Y-153523152D01*
X135358333Y-153523152D02*
X135263095Y-153570771D01*
X135691666Y-154142200D02*
X135596428Y-154189819D01*
X135596428Y-154189819D02*
X135358333Y-154189819D01*
X135358333Y-154189819D02*
X135263095Y-154142200D01*
X135263095Y-154142200D02*
X135215476Y-154046961D01*
X135215476Y-154046961D02*
X135215476Y-153951723D01*
X135215476Y-153951723D02*
X135263095Y-153856485D01*
X135263095Y-153856485D02*
X135358333Y-153808866D01*
X135358333Y-153808866D02*
X135596428Y-153808866D01*
X135596428Y-153808866D02*
X135691666Y-153761247D01*
X136167857Y-154189819D02*
X136167857Y-153523152D01*
X136167857Y-153189819D02*
X136120238Y-153237438D01*
X136120238Y-153237438D02*
X136167857Y-153285057D01*
X136167857Y-153285057D02*
X136215476Y-153237438D01*
X136215476Y-153237438D02*
X136167857Y-153189819D01*
X136167857Y-153189819D02*
X136167857Y-153285057D01*
X136644047Y-153523152D02*
X136644047Y-154189819D01*
X136644047Y-153618390D02*
X136691666Y-153570771D01*
X136691666Y-153570771D02*
X136786904Y-153523152D01*
X136786904Y-153523152D02*
X136929761Y-153523152D01*
X136929761Y-153523152D02*
X137024999Y-153570771D01*
X137024999Y-153570771D02*
X137072618Y-153666009D01*
X137072618Y-153666009D02*
X137072618Y-154189819D01*
X138072618Y-154189819D02*
X137501190Y-154189819D01*
X137786904Y-154189819D02*
X137786904Y-153189819D01*
X137786904Y-153189819D02*
X137691666Y-153332676D01*
X137691666Y-153332676D02*
X137596428Y-153427914D01*
X137596428Y-153427914D02*
X137501190Y-153475533D01*
X150654819Y-152503808D02*
X149654819Y-152503808D01*
X149654819Y-152503808D02*
X150369104Y-152170475D01*
X150369104Y-152170475D02*
X149654819Y-151837142D01*
X149654819Y-151837142D02*
X150654819Y-151837142D01*
X150654819Y-150932380D02*
X150131009Y-150932380D01*
X150131009Y-150932380D02*
X150035771Y-150979999D01*
X150035771Y-150979999D02*
X149988152Y-151075237D01*
X149988152Y-151075237D02*
X149988152Y-151265713D01*
X149988152Y-151265713D02*
X150035771Y-151360951D01*
X150607200Y-150932380D02*
X150654819Y-151027618D01*
X150654819Y-151027618D02*
X150654819Y-151265713D01*
X150654819Y-151265713D02*
X150607200Y-151360951D01*
X150607200Y-151360951D02*
X150511961Y-151408570D01*
X150511961Y-151408570D02*
X150416723Y-151408570D01*
X150416723Y-151408570D02*
X150321485Y-151360951D01*
X150321485Y-151360951D02*
X150273866Y-151265713D01*
X150273866Y-151265713D02*
X150273866Y-151027618D01*
X150273866Y-151027618D02*
X150226247Y-150932380D01*
X150654819Y-150456189D02*
X149988152Y-150456189D01*
X149654819Y-150456189D02*
X149702438Y-150503808D01*
X149702438Y-150503808D02*
X149750057Y-150456189D01*
X149750057Y-150456189D02*
X149702438Y-150408570D01*
X149702438Y-150408570D02*
X149654819Y-150456189D01*
X149654819Y-150456189D02*
X149750057Y-150456189D01*
X149988152Y-149979999D02*
X150654819Y-149979999D01*
X150083390Y-149979999D02*
X150035771Y-149932380D01*
X150035771Y-149932380D02*
X149988152Y-149837142D01*
X149988152Y-149837142D02*
X149988152Y-149694285D01*
X149988152Y-149694285D02*
X150035771Y-149599047D01*
X150035771Y-149599047D02*
X150131009Y-149551428D01*
X150131009Y-149551428D02*
X150654819Y-149551428D01*
X150654819Y-149075237D02*
X149654819Y-149075237D01*
X149654819Y-149075237D02*
X149654819Y-148694285D01*
X149654819Y-148694285D02*
X149702438Y-148599047D01*
X149702438Y-148599047D02*
X149750057Y-148551428D01*
X149750057Y-148551428D02*
X149845295Y-148503809D01*
X149845295Y-148503809D02*
X149988152Y-148503809D01*
X149988152Y-148503809D02*
X150083390Y-148551428D01*
X150083390Y-148551428D02*
X150131009Y-148599047D01*
X150131009Y-148599047D02*
X150178628Y-148694285D01*
X150178628Y-148694285D02*
X150178628Y-149075237D01*
X149654819Y-148170475D02*
X150654819Y-147932380D01*
X150654819Y-147932380D02*
X149940533Y-147741904D01*
X149940533Y-147741904D02*
X150654819Y-147551428D01*
X150654819Y-147551428D02*
X149654819Y-147313333D01*
X150654819Y-146360952D02*
X150178628Y-146694285D01*
X150654819Y-146932380D02*
X149654819Y-146932380D01*
X149654819Y-146932380D02*
X149654819Y-146551428D01*
X149654819Y-146551428D02*
X149702438Y-146456190D01*
X149702438Y-146456190D02*
X149750057Y-146408571D01*
X149750057Y-146408571D02*
X149845295Y-146360952D01*
X149845295Y-146360952D02*
X149988152Y-146360952D01*
X149988152Y-146360952D02*
X150083390Y-146408571D01*
X150083390Y-146408571D02*
X150131009Y-146456190D01*
X150131009Y-146456190D02*
X150178628Y-146551428D01*
X150178628Y-146551428D02*
X150178628Y-146932380D01*
X149750057Y-145979999D02*
X149702438Y-145932380D01*
X149702438Y-145932380D02*
X149654819Y-145837142D01*
X149654819Y-145837142D02*
X149654819Y-145599047D01*
X149654819Y-145599047D02*
X149702438Y-145503809D01*
X149702438Y-145503809D02*
X149750057Y-145456190D01*
X149750057Y-145456190D02*
X149845295Y-145408571D01*
X149845295Y-145408571D02*
X149940533Y-145408571D01*
X149940533Y-145408571D02*
X150083390Y-145456190D01*
X150083390Y-145456190D02*
X150654819Y-146027618D01*
X150654819Y-146027618D02*
X150654819Y-145408571D01*
X87645180Y-106200951D02*
X88121371Y-105867618D01*
X87645180Y-105629523D02*
X88645180Y-105629523D01*
X88645180Y-105629523D02*
X88645180Y-106010475D01*
X88645180Y-106010475D02*
X88597561Y-106105713D01*
X88597561Y-106105713D02*
X88549942Y-106153332D01*
X88549942Y-106153332D02*
X88454704Y-106200951D01*
X88454704Y-106200951D02*
X88311847Y-106200951D01*
X88311847Y-106200951D02*
X88216609Y-106153332D01*
X88216609Y-106153332D02*
X88168990Y-106105713D01*
X88168990Y-106105713D02*
X88121371Y-106010475D01*
X88121371Y-106010475D02*
X88121371Y-105629523D01*
X87692800Y-107010475D02*
X87645180Y-106915237D01*
X87645180Y-106915237D02*
X87645180Y-106724761D01*
X87645180Y-106724761D02*
X87692800Y-106629523D01*
X87692800Y-106629523D02*
X87788038Y-106581904D01*
X87788038Y-106581904D02*
X88168990Y-106581904D01*
X88168990Y-106581904D02*
X88264228Y-106629523D01*
X88264228Y-106629523D02*
X88311847Y-106724761D01*
X88311847Y-106724761D02*
X88311847Y-106915237D01*
X88311847Y-106915237D02*
X88264228Y-107010475D01*
X88264228Y-107010475D02*
X88168990Y-107058094D01*
X88168990Y-107058094D02*
X88073752Y-107058094D01*
X88073752Y-107058094D02*
X87978514Y-106581904D01*
X87692800Y-107915237D02*
X87645180Y-107819999D01*
X87645180Y-107819999D02*
X87645180Y-107629523D01*
X87645180Y-107629523D02*
X87692800Y-107534285D01*
X87692800Y-107534285D02*
X87740419Y-107486666D01*
X87740419Y-107486666D02*
X87835657Y-107439047D01*
X87835657Y-107439047D02*
X88121371Y-107439047D01*
X88121371Y-107439047D02*
X88216609Y-107486666D01*
X88216609Y-107486666D02*
X88264228Y-107534285D01*
X88264228Y-107534285D02*
X88311847Y-107629523D01*
X88311847Y-107629523D02*
X88311847Y-107819999D01*
X88311847Y-107819999D02*
X88264228Y-107915237D01*
X87645180Y-108343809D02*
X88645180Y-108343809D01*
X87645180Y-108772380D02*
X88168990Y-108772380D01*
X88168990Y-108772380D02*
X88264228Y-108724761D01*
X88264228Y-108724761D02*
X88311847Y-108629523D01*
X88311847Y-108629523D02*
X88311847Y-108486666D01*
X88311847Y-108486666D02*
X88264228Y-108391428D01*
X88264228Y-108391428D02*
X88216609Y-108343809D01*
X87645180Y-109677142D02*
X88168990Y-109677142D01*
X88168990Y-109677142D02*
X88264228Y-109629523D01*
X88264228Y-109629523D02*
X88311847Y-109534285D01*
X88311847Y-109534285D02*
X88311847Y-109343809D01*
X88311847Y-109343809D02*
X88264228Y-109248571D01*
X87692800Y-109677142D02*
X87645180Y-109581904D01*
X87645180Y-109581904D02*
X87645180Y-109343809D01*
X87645180Y-109343809D02*
X87692800Y-109248571D01*
X87692800Y-109248571D02*
X87788038Y-109200952D01*
X87788038Y-109200952D02*
X87883276Y-109200952D01*
X87883276Y-109200952D02*
X87978514Y-109248571D01*
X87978514Y-109248571D02*
X88026133Y-109343809D01*
X88026133Y-109343809D02*
X88026133Y-109581904D01*
X88026133Y-109581904D02*
X88073752Y-109677142D01*
X87645180Y-110153333D02*
X88311847Y-110153333D01*
X88121371Y-110153333D02*
X88216609Y-110200952D01*
X88216609Y-110200952D02*
X88264228Y-110248571D01*
X88264228Y-110248571D02*
X88311847Y-110343809D01*
X88311847Y-110343809D02*
X88311847Y-110439047D01*
X88311847Y-111200952D02*
X87502323Y-111200952D01*
X87502323Y-111200952D02*
X87407085Y-111153333D01*
X87407085Y-111153333D02*
X87359466Y-111105714D01*
X87359466Y-111105714D02*
X87311847Y-111010476D01*
X87311847Y-111010476D02*
X87311847Y-110867619D01*
X87311847Y-110867619D02*
X87359466Y-110772381D01*
X87692800Y-111200952D02*
X87645180Y-111105714D01*
X87645180Y-111105714D02*
X87645180Y-110915238D01*
X87645180Y-110915238D02*
X87692800Y-110820000D01*
X87692800Y-110820000D02*
X87740419Y-110772381D01*
X87740419Y-110772381D02*
X87835657Y-110724762D01*
X87835657Y-110724762D02*
X88121371Y-110724762D01*
X88121371Y-110724762D02*
X88216609Y-110772381D01*
X88216609Y-110772381D02*
X88264228Y-110820000D01*
X88264228Y-110820000D02*
X88311847Y-110915238D01*
X88311847Y-110915238D02*
X88311847Y-111105714D01*
X88311847Y-111105714D02*
X88264228Y-111200952D01*
X87692800Y-112058095D02*
X87645180Y-111962857D01*
X87645180Y-111962857D02*
X87645180Y-111772381D01*
X87645180Y-111772381D02*
X87692800Y-111677143D01*
X87692800Y-111677143D02*
X87788038Y-111629524D01*
X87788038Y-111629524D02*
X88168990Y-111629524D01*
X88168990Y-111629524D02*
X88264228Y-111677143D01*
X88264228Y-111677143D02*
X88311847Y-111772381D01*
X88311847Y-111772381D02*
X88311847Y-111962857D01*
X88311847Y-111962857D02*
X88264228Y-112058095D01*
X88264228Y-112058095D02*
X88168990Y-112105714D01*
X88168990Y-112105714D02*
X88073752Y-112105714D01*
X88073752Y-112105714D02*
X87978514Y-111629524D01*
X88168990Y-112867619D02*
X88121371Y-113010476D01*
X88121371Y-113010476D02*
X88073752Y-113058095D01*
X88073752Y-113058095D02*
X87978514Y-113105714D01*
X87978514Y-113105714D02*
X87835657Y-113105714D01*
X87835657Y-113105714D02*
X87740419Y-113058095D01*
X87740419Y-113058095D02*
X87692800Y-113010476D01*
X87692800Y-113010476D02*
X87645180Y-112915238D01*
X87645180Y-112915238D02*
X87645180Y-112534286D01*
X87645180Y-112534286D02*
X88645180Y-112534286D01*
X88645180Y-112534286D02*
X88645180Y-112867619D01*
X88645180Y-112867619D02*
X88597561Y-112962857D01*
X88597561Y-112962857D02*
X88549942Y-113010476D01*
X88549942Y-113010476D02*
X88454704Y-113058095D01*
X88454704Y-113058095D02*
X88359466Y-113058095D01*
X88359466Y-113058095D02*
X88264228Y-113010476D01*
X88264228Y-113010476D02*
X88216609Y-112962857D01*
X88216609Y-112962857D02*
X88168990Y-112867619D01*
X88168990Y-112867619D02*
X88168990Y-112534286D01*
X88549942Y-113486667D02*
X88597561Y-113534286D01*
X88597561Y-113534286D02*
X88645180Y-113629524D01*
X88645180Y-113629524D02*
X88645180Y-113867619D01*
X88645180Y-113867619D02*
X88597561Y-113962857D01*
X88597561Y-113962857D02*
X88549942Y-114010476D01*
X88549942Y-114010476D02*
X88454704Y-114058095D01*
X88454704Y-114058095D02*
X88359466Y-114058095D01*
X88359466Y-114058095D02*
X88216609Y-114010476D01*
X88216609Y-114010476D02*
X87645180Y-113439048D01*
X87645180Y-113439048D02*
X87645180Y-114058095D01*
X235366666Y-106914819D02*
X235366666Y-107629104D01*
X235366666Y-107629104D02*
X235319047Y-107771961D01*
X235319047Y-107771961D02*
X235223809Y-107867200D01*
X235223809Y-107867200D02*
X235080952Y-107914819D01*
X235080952Y-107914819D02*
X234985714Y-107914819D01*
X235890476Y-107914819D02*
X236080952Y-107914819D01*
X236080952Y-107914819D02*
X236176190Y-107867200D01*
X236176190Y-107867200D02*
X236223809Y-107819580D01*
X236223809Y-107819580D02*
X236319047Y-107676723D01*
X236319047Y-107676723D02*
X236366666Y-107486247D01*
X236366666Y-107486247D02*
X236366666Y-107105295D01*
X236366666Y-107105295D02*
X236319047Y-107010057D01*
X236319047Y-107010057D02*
X236271428Y-106962438D01*
X236271428Y-106962438D02*
X236176190Y-106914819D01*
X236176190Y-106914819D02*
X235985714Y-106914819D01*
X235985714Y-106914819D02*
X235890476Y-106962438D01*
X235890476Y-106962438D02*
X235842857Y-107010057D01*
X235842857Y-107010057D02*
X235795238Y-107105295D01*
X235795238Y-107105295D02*
X235795238Y-107343390D01*
X235795238Y-107343390D02*
X235842857Y-107438628D01*
X235842857Y-107438628D02*
X235890476Y-107486247D01*
X235890476Y-107486247D02*
X235985714Y-107533866D01*
X235985714Y-107533866D02*
X236176190Y-107533866D01*
X236176190Y-107533866D02*
X236271428Y-107486247D01*
X236271428Y-107486247D02*
X236319047Y-107438628D01*
X236319047Y-107438628D02*
X236366666Y-107343390D01*
X169694819Y-34393809D02*
X168694819Y-34393809D01*
X169171009Y-34393809D02*
X169171009Y-33822381D01*
X169694819Y-33822381D02*
X168694819Y-33822381D01*
X169647200Y-32965238D02*
X169694819Y-33060476D01*
X169694819Y-33060476D02*
X169694819Y-33250952D01*
X169694819Y-33250952D02*
X169647200Y-33346190D01*
X169647200Y-33346190D02*
X169551961Y-33393809D01*
X169551961Y-33393809D02*
X169171009Y-33393809D01*
X169171009Y-33393809D02*
X169075771Y-33346190D01*
X169075771Y-33346190D02*
X169028152Y-33250952D01*
X169028152Y-33250952D02*
X169028152Y-33060476D01*
X169028152Y-33060476D02*
X169075771Y-32965238D01*
X169075771Y-32965238D02*
X169171009Y-32917619D01*
X169171009Y-32917619D02*
X169266247Y-32917619D01*
X169266247Y-32917619D02*
X169361485Y-33393809D01*
X169694819Y-32060476D02*
X169171009Y-32060476D01*
X169171009Y-32060476D02*
X169075771Y-32108095D01*
X169075771Y-32108095D02*
X169028152Y-32203333D01*
X169028152Y-32203333D02*
X169028152Y-32393809D01*
X169028152Y-32393809D02*
X169075771Y-32489047D01*
X169647200Y-32060476D02*
X169694819Y-32155714D01*
X169694819Y-32155714D02*
X169694819Y-32393809D01*
X169694819Y-32393809D02*
X169647200Y-32489047D01*
X169647200Y-32489047D02*
X169551961Y-32536666D01*
X169551961Y-32536666D02*
X169456723Y-32536666D01*
X169456723Y-32536666D02*
X169361485Y-32489047D01*
X169361485Y-32489047D02*
X169313866Y-32393809D01*
X169313866Y-32393809D02*
X169313866Y-32155714D01*
X169313866Y-32155714D02*
X169266247Y-32060476D01*
X169694819Y-31155714D02*
X168694819Y-31155714D01*
X169647200Y-31155714D02*
X169694819Y-31250952D01*
X169694819Y-31250952D02*
X169694819Y-31441428D01*
X169694819Y-31441428D02*
X169647200Y-31536666D01*
X169647200Y-31536666D02*
X169599580Y-31584285D01*
X169599580Y-31584285D02*
X169504342Y-31631904D01*
X169504342Y-31631904D02*
X169218628Y-31631904D01*
X169218628Y-31631904D02*
X169123390Y-31584285D01*
X169123390Y-31584285D02*
X169075771Y-31536666D01*
X169075771Y-31536666D02*
X169028152Y-31441428D01*
X169028152Y-31441428D02*
X169028152Y-31250952D01*
X169028152Y-31250952D02*
X169075771Y-31155714D01*
X169171009Y-30346190D02*
X169171009Y-30679523D01*
X169694819Y-30679523D02*
X168694819Y-30679523D01*
X168694819Y-30679523D02*
X168694819Y-30203333D01*
X169694819Y-29679523D02*
X169647200Y-29774761D01*
X169647200Y-29774761D02*
X169551961Y-29822380D01*
X169551961Y-29822380D02*
X168694819Y-29822380D01*
X169694819Y-28869999D02*
X169171009Y-28869999D01*
X169171009Y-28869999D02*
X169075771Y-28917618D01*
X169075771Y-28917618D02*
X169028152Y-29012856D01*
X169028152Y-29012856D02*
X169028152Y-29203332D01*
X169028152Y-29203332D02*
X169075771Y-29298570D01*
X169647200Y-28869999D02*
X169694819Y-28965237D01*
X169694819Y-28965237D02*
X169694819Y-29203332D01*
X169694819Y-29203332D02*
X169647200Y-29298570D01*
X169647200Y-29298570D02*
X169551961Y-29346189D01*
X169551961Y-29346189D02*
X169456723Y-29346189D01*
X169456723Y-29346189D02*
X169361485Y-29298570D01*
X169361485Y-29298570D02*
X169313866Y-29203332D01*
X169313866Y-29203332D02*
X169313866Y-28965237D01*
X169313866Y-28965237D02*
X169266247Y-28869999D01*
X169028152Y-28536665D02*
X169028152Y-28155713D01*
X168694819Y-28393808D02*
X169551961Y-28393808D01*
X169551961Y-28393808D02*
X169647200Y-28346189D01*
X169647200Y-28346189D02*
X169694819Y-28250951D01*
X169694819Y-28250951D02*
X169694819Y-28155713D01*
X169694819Y-27298570D02*
X169694819Y-27869998D01*
X169694819Y-27584284D02*
X168694819Y-27584284D01*
X168694819Y-27584284D02*
X168837676Y-27679522D01*
X168837676Y-27679522D02*
X168932914Y-27774760D01*
X168932914Y-27774760D02*
X168980533Y-27869998D01*
X224353382Y-83819580D02*
X224305763Y-83867200D01*
X224305763Y-83867200D02*
X224162906Y-83914819D01*
X224162906Y-83914819D02*
X224067668Y-83914819D01*
X224067668Y-83914819D02*
X223924811Y-83867200D01*
X223924811Y-83867200D02*
X223829573Y-83771961D01*
X223829573Y-83771961D02*
X223781954Y-83676723D01*
X223781954Y-83676723D02*
X223734335Y-83486247D01*
X223734335Y-83486247D02*
X223734335Y-83343390D01*
X223734335Y-83343390D02*
X223781954Y-83152914D01*
X223781954Y-83152914D02*
X223829573Y-83057676D01*
X223829573Y-83057676D02*
X223924811Y-82962438D01*
X223924811Y-82962438D02*
X224067668Y-82914819D01*
X224067668Y-82914819D02*
X224162906Y-82914819D01*
X224162906Y-82914819D02*
X224305763Y-82962438D01*
X224305763Y-82962438D02*
X224353382Y-83010057D01*
X224686716Y-82914819D02*
X225305763Y-82914819D01*
X225305763Y-82914819D02*
X224972430Y-83295771D01*
X224972430Y-83295771D02*
X225115287Y-83295771D01*
X225115287Y-83295771D02*
X225210525Y-83343390D01*
X225210525Y-83343390D02*
X225258144Y-83391009D01*
X225258144Y-83391009D02*
X225305763Y-83486247D01*
X225305763Y-83486247D02*
X225305763Y-83724342D01*
X225305763Y-83724342D02*
X225258144Y-83819580D01*
X225258144Y-83819580D02*
X225210525Y-83867200D01*
X225210525Y-83867200D02*
X225115287Y-83914819D01*
X225115287Y-83914819D02*
X224829573Y-83914819D01*
X224829573Y-83914819D02*
X224734335Y-83867200D01*
X224734335Y-83867200D02*
X224686716Y-83819580D01*
D11*
X91242580Y-67252380D02*
X92242580Y-67252380D01*
X92242580Y-67252380D02*
X92242580Y-67633332D01*
X92242580Y-67633332D02*
X92194961Y-67728570D01*
X92194961Y-67728570D02*
X92147342Y-67776189D01*
X92147342Y-67776189D02*
X92052104Y-67823808D01*
X92052104Y-67823808D02*
X91909247Y-67823808D01*
X91909247Y-67823808D02*
X91814009Y-67776189D01*
X91814009Y-67776189D02*
X91766390Y-67728570D01*
X91766390Y-67728570D02*
X91718771Y-67633332D01*
X91718771Y-67633332D02*
X91718771Y-67252380D01*
X91290200Y-68633332D02*
X91242580Y-68538094D01*
X91242580Y-68538094D02*
X91242580Y-68347618D01*
X91242580Y-68347618D02*
X91290200Y-68252380D01*
X91290200Y-68252380D02*
X91385438Y-68204761D01*
X91385438Y-68204761D02*
X91766390Y-68204761D01*
X91766390Y-68204761D02*
X91861628Y-68252380D01*
X91861628Y-68252380D02*
X91909247Y-68347618D01*
X91909247Y-68347618D02*
X91909247Y-68538094D01*
X91909247Y-68538094D02*
X91861628Y-68633332D01*
X91861628Y-68633332D02*
X91766390Y-68680951D01*
X91766390Y-68680951D02*
X91671152Y-68680951D01*
X91671152Y-68680951D02*
X91575914Y-68204761D01*
X91242580Y-69109523D02*
X91909247Y-69109523D01*
X91718771Y-69109523D02*
X91814009Y-69157142D01*
X91814009Y-69157142D02*
X91861628Y-69204761D01*
X91861628Y-69204761D02*
X91909247Y-69299999D01*
X91909247Y-69299999D02*
X91909247Y-69395237D01*
X91242580Y-69728571D02*
X91909247Y-69728571D01*
X92242580Y-69728571D02*
X92194961Y-69680952D01*
X92194961Y-69680952D02*
X92147342Y-69728571D01*
X92147342Y-69728571D02*
X92194961Y-69776190D01*
X92194961Y-69776190D02*
X92242580Y-69728571D01*
X92242580Y-69728571D02*
X92147342Y-69728571D01*
X91909247Y-70204761D02*
X90909247Y-70204761D01*
X91861628Y-70204761D02*
X91909247Y-70299999D01*
X91909247Y-70299999D02*
X91909247Y-70490475D01*
X91909247Y-70490475D02*
X91861628Y-70585713D01*
X91861628Y-70585713D02*
X91814009Y-70633332D01*
X91814009Y-70633332D02*
X91718771Y-70680951D01*
X91718771Y-70680951D02*
X91433057Y-70680951D01*
X91433057Y-70680951D02*
X91337819Y-70633332D01*
X91337819Y-70633332D02*
X91290200Y-70585713D01*
X91290200Y-70585713D02*
X91242580Y-70490475D01*
X91242580Y-70490475D02*
X91242580Y-70299999D01*
X91242580Y-70299999D02*
X91290200Y-70204761D01*
X91242580Y-71109523D02*
X92242580Y-71109523D01*
X91242580Y-71538094D02*
X91766390Y-71538094D01*
X91766390Y-71538094D02*
X91861628Y-71490475D01*
X91861628Y-71490475D02*
X91909247Y-71395237D01*
X91909247Y-71395237D02*
X91909247Y-71252380D01*
X91909247Y-71252380D02*
X91861628Y-71157142D01*
X91861628Y-71157142D02*
X91814009Y-71109523D01*
X91290200Y-72395237D02*
X91242580Y-72299999D01*
X91242580Y-72299999D02*
X91242580Y-72109523D01*
X91242580Y-72109523D02*
X91290200Y-72014285D01*
X91290200Y-72014285D02*
X91385438Y-71966666D01*
X91385438Y-71966666D02*
X91766390Y-71966666D01*
X91766390Y-71966666D02*
X91861628Y-72014285D01*
X91861628Y-72014285D02*
X91909247Y-72109523D01*
X91909247Y-72109523D02*
X91909247Y-72299999D01*
X91909247Y-72299999D02*
X91861628Y-72395237D01*
X91861628Y-72395237D02*
X91766390Y-72442856D01*
X91766390Y-72442856D02*
X91671152Y-72442856D01*
X91671152Y-72442856D02*
X91575914Y-71966666D01*
X91242580Y-72871428D02*
X91909247Y-72871428D01*
X91718771Y-72871428D02*
X91814009Y-72919047D01*
X91814009Y-72919047D02*
X91861628Y-72966666D01*
X91861628Y-72966666D02*
X91909247Y-73061904D01*
X91909247Y-73061904D02*
X91909247Y-73157142D01*
X91242580Y-73919047D02*
X91766390Y-73919047D01*
X91766390Y-73919047D02*
X91861628Y-73871428D01*
X91861628Y-73871428D02*
X91909247Y-73776190D01*
X91909247Y-73776190D02*
X91909247Y-73585714D01*
X91909247Y-73585714D02*
X91861628Y-73490476D01*
X91290200Y-73919047D02*
X91242580Y-73823809D01*
X91242580Y-73823809D02*
X91242580Y-73585714D01*
X91242580Y-73585714D02*
X91290200Y-73490476D01*
X91290200Y-73490476D02*
X91385438Y-73442857D01*
X91385438Y-73442857D02*
X91480676Y-73442857D01*
X91480676Y-73442857D02*
X91575914Y-73490476D01*
X91575914Y-73490476D02*
X91623533Y-73585714D01*
X91623533Y-73585714D02*
X91623533Y-73823809D01*
X91623533Y-73823809D02*
X91671152Y-73919047D01*
X91242580Y-74538095D02*
X91290200Y-74442857D01*
X91290200Y-74442857D02*
X91385438Y-74395238D01*
X91385438Y-74395238D02*
X92242580Y-74395238D01*
X91290200Y-74871429D02*
X91242580Y-74966667D01*
X91242580Y-74966667D02*
X91242580Y-75157143D01*
X91242580Y-75157143D02*
X91290200Y-75252381D01*
X91290200Y-75252381D02*
X91385438Y-75300000D01*
X91385438Y-75300000D02*
X91433057Y-75300000D01*
X91433057Y-75300000D02*
X91528295Y-75252381D01*
X91528295Y-75252381D02*
X91575914Y-75157143D01*
X91575914Y-75157143D02*
X91575914Y-75014286D01*
X91575914Y-75014286D02*
X91623533Y-74919048D01*
X91623533Y-74919048D02*
X91718771Y-74871429D01*
X91718771Y-74871429D02*
X91766390Y-74871429D01*
X91766390Y-74871429D02*
X91861628Y-74919048D01*
X91861628Y-74919048D02*
X91909247Y-75014286D01*
X91909247Y-75014286D02*
X91909247Y-75157143D01*
X91909247Y-75157143D02*
X91861628Y-75252381D01*
X91242580Y-75728572D02*
X92242580Y-75728572D01*
X92242580Y-75728572D02*
X92242580Y-76109524D01*
X92242580Y-76109524D02*
X92194961Y-76204762D01*
X92194961Y-76204762D02*
X92147342Y-76252381D01*
X92147342Y-76252381D02*
X92052104Y-76300000D01*
X92052104Y-76300000D02*
X91909247Y-76300000D01*
X91909247Y-76300000D02*
X91814009Y-76252381D01*
X91814009Y-76252381D02*
X91766390Y-76204762D01*
X91766390Y-76204762D02*
X91718771Y-76109524D01*
X91718771Y-76109524D02*
X91718771Y-75728572D01*
X92242580Y-76633334D02*
X91242580Y-76871429D01*
X91242580Y-76871429D02*
X91956866Y-77061905D01*
X91956866Y-77061905D02*
X91242580Y-77252381D01*
X91242580Y-77252381D02*
X92242580Y-77490477D01*
X91242580Y-78442857D02*
X91718771Y-78109524D01*
X91242580Y-77871429D02*
X92242580Y-77871429D01*
X92242580Y-77871429D02*
X92242580Y-78252381D01*
X92242580Y-78252381D02*
X92194961Y-78347619D01*
X92194961Y-78347619D02*
X92147342Y-78395238D01*
X92147342Y-78395238D02*
X92052104Y-78442857D01*
X92052104Y-78442857D02*
X91909247Y-78442857D01*
X91909247Y-78442857D02*
X91814009Y-78395238D01*
X91814009Y-78395238D02*
X91766390Y-78347619D01*
X91766390Y-78347619D02*
X91718771Y-78252381D01*
X91718771Y-78252381D02*
X91718771Y-77871429D01*
X91242580Y-79395238D02*
X91242580Y-78823810D01*
X91242580Y-79109524D02*
X92242580Y-79109524D01*
X92242580Y-79109524D02*
X92099723Y-79014286D01*
X92099723Y-79014286D02*
X92004485Y-78919048D01*
X92004485Y-78919048D02*
X91956866Y-78823810D01*
D10*
X227853333Y-70514819D02*
X227520000Y-70038628D01*
X227281905Y-70514819D02*
X227281905Y-69514819D01*
X227281905Y-69514819D02*
X227662857Y-69514819D01*
X227662857Y-69514819D02*
X227758095Y-69562438D01*
X227758095Y-69562438D02*
X227805714Y-69610057D01*
X227805714Y-69610057D02*
X227853333Y-69705295D01*
X227853333Y-69705295D02*
X227853333Y-69848152D01*
X227853333Y-69848152D02*
X227805714Y-69943390D01*
X227805714Y-69943390D02*
X227758095Y-69991009D01*
X227758095Y-69991009D02*
X227662857Y-70038628D01*
X227662857Y-70038628D02*
X227281905Y-70038628D01*
X228186667Y-69514819D02*
X228805714Y-69514819D01*
X228805714Y-69514819D02*
X228472381Y-69895771D01*
X228472381Y-69895771D02*
X228615238Y-69895771D01*
X228615238Y-69895771D02*
X228710476Y-69943390D01*
X228710476Y-69943390D02*
X228758095Y-69991009D01*
X228758095Y-69991009D02*
X228805714Y-70086247D01*
X228805714Y-70086247D02*
X228805714Y-70324342D01*
X228805714Y-70324342D02*
X228758095Y-70419580D01*
X228758095Y-70419580D02*
X228710476Y-70467200D01*
X228710476Y-70467200D02*
X228615238Y-70514819D01*
X228615238Y-70514819D02*
X228329524Y-70514819D01*
X228329524Y-70514819D02*
X228234286Y-70467200D01*
X228234286Y-70467200D02*
X228186667Y-70419580D01*
X74709523Y-153054819D02*
X74899999Y-153054819D01*
X74899999Y-153054819D02*
X74995237Y-153102438D01*
X74995237Y-153102438D02*
X75090475Y-153197676D01*
X75090475Y-153197676D02*
X75138094Y-153388152D01*
X75138094Y-153388152D02*
X75138094Y-153721485D01*
X75138094Y-153721485D02*
X75090475Y-153911961D01*
X75090475Y-153911961D02*
X74995237Y-154007200D01*
X74995237Y-154007200D02*
X74899999Y-154054819D01*
X74899999Y-154054819D02*
X74709523Y-154054819D01*
X74709523Y-154054819D02*
X74614285Y-154007200D01*
X74614285Y-154007200D02*
X74519047Y-153911961D01*
X74519047Y-153911961D02*
X74471428Y-153721485D01*
X74471428Y-153721485D02*
X74471428Y-153388152D01*
X74471428Y-153388152D02*
X74519047Y-153197676D01*
X74519047Y-153197676D02*
X74614285Y-153102438D01*
X74614285Y-153102438D02*
X74709523Y-153054819D01*
X75566666Y-154054819D02*
X75566666Y-153054819D01*
X75566666Y-153054819D02*
X76138094Y-154054819D01*
X76138094Y-154054819D02*
X76138094Y-153054819D01*
X77328570Y-153007200D02*
X76471428Y-154292914D01*
X77852380Y-153054819D02*
X78042856Y-153054819D01*
X78042856Y-153054819D02*
X78138094Y-153102438D01*
X78138094Y-153102438D02*
X78233332Y-153197676D01*
X78233332Y-153197676D02*
X78280951Y-153388152D01*
X78280951Y-153388152D02*
X78280951Y-153721485D01*
X78280951Y-153721485D02*
X78233332Y-153911961D01*
X78233332Y-153911961D02*
X78138094Y-154007200D01*
X78138094Y-154007200D02*
X78042856Y-154054819D01*
X78042856Y-154054819D02*
X77852380Y-154054819D01*
X77852380Y-154054819D02*
X77757142Y-154007200D01*
X77757142Y-154007200D02*
X77661904Y-153911961D01*
X77661904Y-153911961D02*
X77614285Y-153721485D01*
X77614285Y-153721485D02*
X77614285Y-153388152D01*
X77614285Y-153388152D02*
X77661904Y-153197676D01*
X77661904Y-153197676D02*
X77757142Y-153102438D01*
X77757142Y-153102438D02*
X77852380Y-153054819D01*
X79042856Y-153531009D02*
X78709523Y-153531009D01*
X78709523Y-154054819D02*
X78709523Y-153054819D01*
X78709523Y-153054819D02*
X79185713Y-153054819D01*
X79899999Y-153531009D02*
X79566666Y-153531009D01*
X79566666Y-154054819D02*
X79566666Y-153054819D01*
X79566666Y-153054819D02*
X80042856Y-153054819D01*
X80423809Y-153388152D02*
X80423809Y-154388152D01*
X80423809Y-153435771D02*
X80519047Y-153388152D01*
X80519047Y-153388152D02*
X80709523Y-153388152D01*
X80709523Y-153388152D02*
X80804761Y-153435771D01*
X80804761Y-153435771D02*
X80852380Y-153483390D01*
X80852380Y-153483390D02*
X80899999Y-153578628D01*
X80899999Y-153578628D02*
X80899999Y-153864342D01*
X80899999Y-153864342D02*
X80852380Y-153959580D01*
X80852380Y-153959580D02*
X80804761Y-154007200D01*
X80804761Y-154007200D02*
X80709523Y-154054819D01*
X80709523Y-154054819D02*
X80519047Y-154054819D01*
X80519047Y-154054819D02*
X80423809Y-154007200D01*
X81709523Y-154007200D02*
X81614285Y-154054819D01*
X81614285Y-154054819D02*
X81423809Y-154054819D01*
X81423809Y-154054819D02*
X81328571Y-154007200D01*
X81328571Y-154007200D02*
X81280952Y-153911961D01*
X81280952Y-153911961D02*
X81280952Y-153531009D01*
X81280952Y-153531009D02*
X81328571Y-153435771D01*
X81328571Y-153435771D02*
X81423809Y-153388152D01*
X81423809Y-153388152D02*
X81614285Y-153388152D01*
X81614285Y-153388152D02*
X81709523Y-153435771D01*
X81709523Y-153435771D02*
X81757142Y-153531009D01*
X81757142Y-153531009D02*
X81757142Y-153626247D01*
X81757142Y-153626247D02*
X81280952Y-153721485D01*
X82185714Y-154054819D02*
X82185714Y-153388152D01*
X82185714Y-153578628D02*
X82233333Y-153483390D01*
X82233333Y-153483390D02*
X82280952Y-153435771D01*
X82280952Y-153435771D02*
X82376190Y-153388152D01*
X82376190Y-153388152D02*
X82471428Y-153388152D01*
X82804762Y-154054819D02*
X82804762Y-153388152D01*
X82804762Y-153054819D02*
X82757143Y-153102438D01*
X82757143Y-153102438D02*
X82804762Y-153150057D01*
X82804762Y-153150057D02*
X82852381Y-153102438D01*
X82852381Y-153102438D02*
X82804762Y-153054819D01*
X82804762Y-153054819D02*
X82804762Y-153150057D01*
X83280952Y-153388152D02*
X83280952Y-154388152D01*
X83280952Y-153435771D02*
X83376190Y-153388152D01*
X83376190Y-153388152D02*
X83566666Y-153388152D01*
X83566666Y-153388152D02*
X83661904Y-153435771D01*
X83661904Y-153435771D02*
X83709523Y-153483390D01*
X83709523Y-153483390D02*
X83757142Y-153578628D01*
X83757142Y-153578628D02*
X83757142Y-153864342D01*
X83757142Y-153864342D02*
X83709523Y-153959580D01*
X83709523Y-153959580D02*
X83661904Y-154007200D01*
X83661904Y-154007200D02*
X83566666Y-154054819D01*
X83566666Y-154054819D02*
X83376190Y-154054819D01*
X83376190Y-154054819D02*
X83280952Y-154007200D01*
X84185714Y-154054819D02*
X84185714Y-153054819D01*
X84614285Y-154054819D02*
X84614285Y-153531009D01*
X84614285Y-153531009D02*
X84566666Y-153435771D01*
X84566666Y-153435771D02*
X84471428Y-153388152D01*
X84471428Y-153388152D02*
X84328571Y-153388152D01*
X84328571Y-153388152D02*
X84233333Y-153435771D01*
X84233333Y-153435771D02*
X84185714Y-153483390D01*
X85471428Y-154007200D02*
X85376190Y-154054819D01*
X85376190Y-154054819D02*
X85185714Y-154054819D01*
X85185714Y-154054819D02*
X85090476Y-154007200D01*
X85090476Y-154007200D02*
X85042857Y-153911961D01*
X85042857Y-153911961D02*
X85042857Y-153531009D01*
X85042857Y-153531009D02*
X85090476Y-153435771D01*
X85090476Y-153435771D02*
X85185714Y-153388152D01*
X85185714Y-153388152D02*
X85376190Y-153388152D01*
X85376190Y-153388152D02*
X85471428Y-153435771D01*
X85471428Y-153435771D02*
X85519047Y-153531009D01*
X85519047Y-153531009D02*
X85519047Y-153626247D01*
X85519047Y-153626247D02*
X85042857Y-153721485D01*
X85947619Y-154054819D02*
X85947619Y-153388152D01*
X85947619Y-153578628D02*
X85995238Y-153483390D01*
X85995238Y-153483390D02*
X86042857Y-153435771D01*
X86042857Y-153435771D02*
X86138095Y-153388152D01*
X86138095Y-153388152D02*
X86233333Y-153388152D01*
X86995238Y-154054819D02*
X86995238Y-153531009D01*
X86995238Y-153531009D02*
X86947619Y-153435771D01*
X86947619Y-153435771D02*
X86852381Y-153388152D01*
X86852381Y-153388152D02*
X86661905Y-153388152D01*
X86661905Y-153388152D02*
X86566667Y-153435771D01*
X86995238Y-154007200D02*
X86900000Y-154054819D01*
X86900000Y-154054819D02*
X86661905Y-154054819D01*
X86661905Y-154054819D02*
X86566667Y-154007200D01*
X86566667Y-154007200D02*
X86519048Y-153911961D01*
X86519048Y-153911961D02*
X86519048Y-153816723D01*
X86519048Y-153816723D02*
X86566667Y-153721485D01*
X86566667Y-153721485D02*
X86661905Y-153673866D01*
X86661905Y-153673866D02*
X86900000Y-153673866D01*
X86900000Y-153673866D02*
X86995238Y-153626247D01*
X87614286Y-154054819D02*
X87519048Y-154007200D01*
X87519048Y-154007200D02*
X87471429Y-153911961D01*
X87471429Y-153911961D02*
X87471429Y-153054819D01*
X87947620Y-154007200D02*
X88042858Y-154054819D01*
X88042858Y-154054819D02*
X88233334Y-154054819D01*
X88233334Y-154054819D02*
X88328572Y-154007200D01*
X88328572Y-154007200D02*
X88376191Y-153911961D01*
X88376191Y-153911961D02*
X88376191Y-153864342D01*
X88376191Y-153864342D02*
X88328572Y-153769104D01*
X88328572Y-153769104D02*
X88233334Y-153721485D01*
X88233334Y-153721485D02*
X88090477Y-153721485D01*
X88090477Y-153721485D02*
X87995239Y-153673866D01*
X87995239Y-153673866D02*
X87947620Y-153578628D01*
X87947620Y-153578628D02*
X87947620Y-153531009D01*
X87947620Y-153531009D02*
X87995239Y-153435771D01*
X87995239Y-153435771D02*
X88090477Y-153388152D01*
X88090477Y-153388152D02*
X88233334Y-153388152D01*
X88233334Y-153388152D02*
X88328572Y-153435771D01*
X89328572Y-154054819D02*
X88757144Y-154054819D01*
X89042858Y-154054819D02*
X89042858Y-153054819D01*
X89042858Y-153054819D02*
X88947620Y-153197676D01*
X88947620Y-153197676D02*
X88852382Y-153292914D01*
X88852382Y-153292914D02*
X88757144Y-153340533D01*
X224153382Y-93219580D02*
X224105763Y-93267200D01*
X224105763Y-93267200D02*
X223962906Y-93314819D01*
X223962906Y-93314819D02*
X223867668Y-93314819D01*
X223867668Y-93314819D02*
X223724811Y-93267200D01*
X223724811Y-93267200D02*
X223629573Y-93171961D01*
X223629573Y-93171961D02*
X223581954Y-93076723D01*
X223581954Y-93076723D02*
X223534335Y-92886247D01*
X223534335Y-92886247D02*
X223534335Y-92743390D01*
X223534335Y-92743390D02*
X223581954Y-92552914D01*
X223581954Y-92552914D02*
X223629573Y-92457676D01*
X223629573Y-92457676D02*
X223724811Y-92362438D01*
X223724811Y-92362438D02*
X223867668Y-92314819D01*
X223867668Y-92314819D02*
X223962906Y-92314819D01*
X223962906Y-92314819D02*
X224105763Y-92362438D01*
X224105763Y-92362438D02*
X224153382Y-92410057D01*
X224534335Y-92410057D02*
X224581954Y-92362438D01*
X224581954Y-92362438D02*
X224677192Y-92314819D01*
X224677192Y-92314819D02*
X224915287Y-92314819D01*
X224915287Y-92314819D02*
X225010525Y-92362438D01*
X225010525Y-92362438D02*
X225058144Y-92410057D01*
X225058144Y-92410057D02*
X225105763Y-92505295D01*
X225105763Y-92505295D02*
X225105763Y-92600533D01*
X225105763Y-92600533D02*
X225058144Y-92743390D01*
X225058144Y-92743390D02*
X224486716Y-93314819D01*
X224486716Y-93314819D02*
X225105763Y-93314819D01*
X119999048Y-41145180D02*
X120332381Y-41621371D01*
X120570476Y-41145180D02*
X120570476Y-42145180D01*
X120570476Y-42145180D02*
X120189524Y-42145180D01*
X120189524Y-42145180D02*
X120094286Y-42097561D01*
X120094286Y-42097561D02*
X120046667Y-42049942D01*
X120046667Y-42049942D02*
X119999048Y-41954704D01*
X119999048Y-41954704D02*
X119999048Y-41811847D01*
X119999048Y-41811847D02*
X120046667Y-41716609D01*
X120046667Y-41716609D02*
X120094286Y-41668990D01*
X120094286Y-41668990D02*
X120189524Y-41621371D01*
X120189524Y-41621371D02*
X120570476Y-41621371D01*
X119189524Y-41192800D02*
X119284762Y-41145180D01*
X119284762Y-41145180D02*
X119475238Y-41145180D01*
X119475238Y-41145180D02*
X119570476Y-41192800D01*
X119570476Y-41192800D02*
X119618095Y-41288038D01*
X119618095Y-41288038D02*
X119618095Y-41668990D01*
X119618095Y-41668990D02*
X119570476Y-41764228D01*
X119570476Y-41764228D02*
X119475238Y-41811847D01*
X119475238Y-41811847D02*
X119284762Y-41811847D01*
X119284762Y-41811847D02*
X119189524Y-41764228D01*
X119189524Y-41764228D02*
X119141905Y-41668990D01*
X119141905Y-41668990D02*
X119141905Y-41573752D01*
X119141905Y-41573752D02*
X119618095Y-41478514D01*
X118284762Y-41192800D02*
X118380000Y-41145180D01*
X118380000Y-41145180D02*
X118570476Y-41145180D01*
X118570476Y-41145180D02*
X118665714Y-41192800D01*
X118665714Y-41192800D02*
X118713333Y-41240419D01*
X118713333Y-41240419D02*
X118760952Y-41335657D01*
X118760952Y-41335657D02*
X118760952Y-41621371D01*
X118760952Y-41621371D02*
X118713333Y-41716609D01*
X118713333Y-41716609D02*
X118665714Y-41764228D01*
X118665714Y-41764228D02*
X118570476Y-41811847D01*
X118570476Y-41811847D02*
X118380000Y-41811847D01*
X118380000Y-41811847D02*
X118284762Y-41764228D01*
X117856190Y-41145180D02*
X117856190Y-42145180D01*
X117427619Y-41145180D02*
X117427619Y-41668990D01*
X117427619Y-41668990D02*
X117475238Y-41764228D01*
X117475238Y-41764228D02*
X117570476Y-41811847D01*
X117570476Y-41811847D02*
X117713333Y-41811847D01*
X117713333Y-41811847D02*
X117808571Y-41764228D01*
X117808571Y-41764228D02*
X117856190Y-41716609D01*
X116522857Y-41145180D02*
X116522857Y-41668990D01*
X116522857Y-41668990D02*
X116570476Y-41764228D01*
X116570476Y-41764228D02*
X116665714Y-41811847D01*
X116665714Y-41811847D02*
X116856190Y-41811847D01*
X116856190Y-41811847D02*
X116951428Y-41764228D01*
X116522857Y-41192800D02*
X116618095Y-41145180D01*
X116618095Y-41145180D02*
X116856190Y-41145180D01*
X116856190Y-41145180D02*
X116951428Y-41192800D01*
X116951428Y-41192800D02*
X116999047Y-41288038D01*
X116999047Y-41288038D02*
X116999047Y-41383276D01*
X116999047Y-41383276D02*
X116951428Y-41478514D01*
X116951428Y-41478514D02*
X116856190Y-41526133D01*
X116856190Y-41526133D02*
X116618095Y-41526133D01*
X116618095Y-41526133D02*
X116522857Y-41573752D01*
X116046666Y-41145180D02*
X116046666Y-41811847D01*
X116046666Y-41621371D02*
X115999047Y-41716609D01*
X115999047Y-41716609D02*
X115951428Y-41764228D01*
X115951428Y-41764228D02*
X115856190Y-41811847D01*
X115856190Y-41811847D02*
X115760952Y-41811847D01*
X114999047Y-41811847D02*
X114999047Y-41002323D01*
X114999047Y-41002323D02*
X115046666Y-40907085D01*
X115046666Y-40907085D02*
X115094285Y-40859466D01*
X115094285Y-40859466D02*
X115189523Y-40811847D01*
X115189523Y-40811847D02*
X115332380Y-40811847D01*
X115332380Y-40811847D02*
X115427618Y-40859466D01*
X114999047Y-41192800D02*
X115094285Y-41145180D01*
X115094285Y-41145180D02*
X115284761Y-41145180D01*
X115284761Y-41145180D02*
X115379999Y-41192800D01*
X115379999Y-41192800D02*
X115427618Y-41240419D01*
X115427618Y-41240419D02*
X115475237Y-41335657D01*
X115475237Y-41335657D02*
X115475237Y-41621371D01*
X115475237Y-41621371D02*
X115427618Y-41716609D01*
X115427618Y-41716609D02*
X115379999Y-41764228D01*
X115379999Y-41764228D02*
X115284761Y-41811847D01*
X115284761Y-41811847D02*
X115094285Y-41811847D01*
X115094285Y-41811847D02*
X114999047Y-41764228D01*
X114141904Y-41192800D02*
X114237142Y-41145180D01*
X114237142Y-41145180D02*
X114427618Y-41145180D01*
X114427618Y-41145180D02*
X114522856Y-41192800D01*
X114522856Y-41192800D02*
X114570475Y-41288038D01*
X114570475Y-41288038D02*
X114570475Y-41668990D01*
X114570475Y-41668990D02*
X114522856Y-41764228D01*
X114522856Y-41764228D02*
X114427618Y-41811847D01*
X114427618Y-41811847D02*
X114237142Y-41811847D01*
X114237142Y-41811847D02*
X114141904Y-41764228D01*
X114141904Y-41764228D02*
X114094285Y-41668990D01*
X114094285Y-41668990D02*
X114094285Y-41573752D01*
X114094285Y-41573752D02*
X114570475Y-41478514D01*
X113332380Y-41668990D02*
X113189523Y-41621371D01*
X113189523Y-41621371D02*
X113141904Y-41573752D01*
X113141904Y-41573752D02*
X113094285Y-41478514D01*
X113094285Y-41478514D02*
X113094285Y-41335657D01*
X113094285Y-41335657D02*
X113141904Y-41240419D01*
X113141904Y-41240419D02*
X113189523Y-41192800D01*
X113189523Y-41192800D02*
X113284761Y-41145180D01*
X113284761Y-41145180D02*
X113665713Y-41145180D01*
X113665713Y-41145180D02*
X113665713Y-42145180D01*
X113665713Y-42145180D02*
X113332380Y-42145180D01*
X113332380Y-42145180D02*
X113237142Y-42097561D01*
X113237142Y-42097561D02*
X113189523Y-42049942D01*
X113189523Y-42049942D02*
X113141904Y-41954704D01*
X113141904Y-41954704D02*
X113141904Y-41859466D01*
X113141904Y-41859466D02*
X113189523Y-41764228D01*
X113189523Y-41764228D02*
X113237142Y-41716609D01*
X113237142Y-41716609D02*
X113332380Y-41668990D01*
X113332380Y-41668990D02*
X113665713Y-41668990D01*
X112141904Y-41145180D02*
X112713332Y-41145180D01*
X112427618Y-41145180D02*
X112427618Y-42145180D01*
X112427618Y-42145180D02*
X112522856Y-42002323D01*
X112522856Y-42002323D02*
X112618094Y-41907085D01*
X112618094Y-41907085D02*
X112713332Y-41859466D01*
D11*
X91242580Y-51219048D02*
X92242580Y-51219048D01*
X92242580Y-51219048D02*
X91528295Y-51552381D01*
X91528295Y-51552381D02*
X92242580Y-51885714D01*
X92242580Y-51885714D02*
X91242580Y-51885714D01*
X91242580Y-52504762D02*
X91290200Y-52409524D01*
X91290200Y-52409524D02*
X91337819Y-52361905D01*
X91337819Y-52361905D02*
X91433057Y-52314286D01*
X91433057Y-52314286D02*
X91718771Y-52314286D01*
X91718771Y-52314286D02*
X91814009Y-52361905D01*
X91814009Y-52361905D02*
X91861628Y-52409524D01*
X91861628Y-52409524D02*
X91909247Y-52504762D01*
X91909247Y-52504762D02*
X91909247Y-52647619D01*
X91909247Y-52647619D02*
X91861628Y-52742857D01*
X91861628Y-52742857D02*
X91814009Y-52790476D01*
X91814009Y-52790476D02*
X91718771Y-52838095D01*
X91718771Y-52838095D02*
X91433057Y-52838095D01*
X91433057Y-52838095D02*
X91337819Y-52790476D01*
X91337819Y-52790476D02*
X91290200Y-52742857D01*
X91290200Y-52742857D02*
X91242580Y-52647619D01*
X91242580Y-52647619D02*
X91242580Y-52504762D01*
X91242580Y-53695238D02*
X92242580Y-53695238D01*
X91290200Y-53695238D02*
X91242580Y-53600000D01*
X91242580Y-53600000D02*
X91242580Y-53409524D01*
X91242580Y-53409524D02*
X91290200Y-53314286D01*
X91290200Y-53314286D02*
X91337819Y-53266667D01*
X91337819Y-53266667D02*
X91433057Y-53219048D01*
X91433057Y-53219048D02*
X91718771Y-53219048D01*
X91718771Y-53219048D02*
X91814009Y-53266667D01*
X91814009Y-53266667D02*
X91861628Y-53314286D01*
X91861628Y-53314286D02*
X91909247Y-53409524D01*
X91909247Y-53409524D02*
X91909247Y-53600000D01*
X91909247Y-53600000D02*
X91861628Y-53695238D01*
X91290200Y-54552381D02*
X91242580Y-54457143D01*
X91242580Y-54457143D02*
X91242580Y-54266667D01*
X91242580Y-54266667D02*
X91290200Y-54171429D01*
X91290200Y-54171429D02*
X91385438Y-54123810D01*
X91385438Y-54123810D02*
X91766390Y-54123810D01*
X91766390Y-54123810D02*
X91861628Y-54171429D01*
X91861628Y-54171429D02*
X91909247Y-54266667D01*
X91909247Y-54266667D02*
X91909247Y-54457143D01*
X91909247Y-54457143D02*
X91861628Y-54552381D01*
X91861628Y-54552381D02*
X91766390Y-54600000D01*
X91766390Y-54600000D02*
X91671152Y-54600000D01*
X91671152Y-54600000D02*
X91575914Y-54123810D01*
X91242580Y-55028572D02*
X91909247Y-55028572D01*
X91814009Y-55028572D02*
X91861628Y-55076191D01*
X91861628Y-55076191D02*
X91909247Y-55171429D01*
X91909247Y-55171429D02*
X91909247Y-55314286D01*
X91909247Y-55314286D02*
X91861628Y-55409524D01*
X91861628Y-55409524D02*
X91766390Y-55457143D01*
X91766390Y-55457143D02*
X91242580Y-55457143D01*
X91766390Y-55457143D02*
X91861628Y-55504762D01*
X91861628Y-55504762D02*
X91909247Y-55600000D01*
X91909247Y-55600000D02*
X91909247Y-55742857D01*
X91909247Y-55742857D02*
X91861628Y-55838096D01*
X91861628Y-55838096D02*
X91766390Y-55885715D01*
X91766390Y-55885715D02*
X91242580Y-55885715D01*
X91242580Y-56361905D02*
X92242580Y-56361905D01*
X92242580Y-56361905D02*
X92242580Y-56742857D01*
X92242580Y-56742857D02*
X92194961Y-56838095D01*
X92194961Y-56838095D02*
X92147342Y-56885714D01*
X92147342Y-56885714D02*
X92052104Y-56933333D01*
X92052104Y-56933333D02*
X91909247Y-56933333D01*
X91909247Y-56933333D02*
X91814009Y-56885714D01*
X91814009Y-56885714D02*
X91766390Y-56838095D01*
X91766390Y-56838095D02*
X91718771Y-56742857D01*
X91718771Y-56742857D02*
X91718771Y-56361905D01*
X92242580Y-57266667D02*
X91242580Y-57504762D01*
X91242580Y-57504762D02*
X91956866Y-57695238D01*
X91956866Y-57695238D02*
X91242580Y-57885714D01*
X91242580Y-57885714D02*
X92242580Y-58123810D01*
X91242580Y-59076190D02*
X91718771Y-58742857D01*
X91242580Y-58504762D02*
X92242580Y-58504762D01*
X92242580Y-58504762D02*
X92242580Y-58885714D01*
X92242580Y-58885714D02*
X92194961Y-58980952D01*
X92194961Y-58980952D02*
X92147342Y-59028571D01*
X92147342Y-59028571D02*
X92052104Y-59076190D01*
X92052104Y-59076190D02*
X91909247Y-59076190D01*
X91909247Y-59076190D02*
X91814009Y-59028571D01*
X91814009Y-59028571D02*
X91766390Y-58980952D01*
X91766390Y-58980952D02*
X91718771Y-58885714D01*
X91718771Y-58885714D02*
X91718771Y-58504762D01*
X91242580Y-60028571D02*
X91242580Y-59457143D01*
X91242580Y-59742857D02*
X92242580Y-59742857D01*
X92242580Y-59742857D02*
X92099723Y-59647619D01*
X92099723Y-59647619D02*
X92004485Y-59552381D01*
X92004485Y-59552381D02*
X91956866Y-59457143D01*
D10*
X196083333Y-140874819D02*
X195750000Y-140398628D01*
X195511905Y-140874819D02*
X195511905Y-139874819D01*
X195511905Y-139874819D02*
X195892857Y-139874819D01*
X195892857Y-139874819D02*
X195988095Y-139922438D01*
X195988095Y-139922438D02*
X196035714Y-139970057D01*
X196035714Y-139970057D02*
X196083333Y-140065295D01*
X196083333Y-140065295D02*
X196083333Y-140208152D01*
X196083333Y-140208152D02*
X196035714Y-140303390D01*
X196035714Y-140303390D02*
X195988095Y-140351009D01*
X195988095Y-140351009D02*
X195892857Y-140398628D01*
X195892857Y-140398628D02*
X195511905Y-140398628D01*
X197035714Y-140874819D02*
X196464286Y-140874819D01*
X196750000Y-140874819D02*
X196750000Y-139874819D01*
X196750000Y-139874819D02*
X196654762Y-140017676D01*
X196654762Y-140017676D02*
X196559524Y-140112914D01*
X196559524Y-140112914D02*
X196464286Y-140160533D01*
X221120476Y-106914819D02*
X221120476Y-107629104D01*
X221120476Y-107629104D02*
X221072857Y-107771961D01*
X221072857Y-107771961D02*
X220977619Y-107867200D01*
X220977619Y-107867200D02*
X220834762Y-107914819D01*
X220834762Y-107914819D02*
X220739524Y-107914819D01*
X222120476Y-107914819D02*
X221549048Y-107914819D01*
X221834762Y-107914819D02*
X221834762Y-106914819D01*
X221834762Y-106914819D02*
X221739524Y-107057676D01*
X221739524Y-107057676D02*
X221644286Y-107152914D01*
X221644286Y-107152914D02*
X221549048Y-107200533D01*
X222501429Y-107010057D02*
X222549048Y-106962438D01*
X222549048Y-106962438D02*
X222644286Y-106914819D01*
X222644286Y-106914819D02*
X222882381Y-106914819D01*
X222882381Y-106914819D02*
X222977619Y-106962438D01*
X222977619Y-106962438D02*
X223025238Y-107010057D01*
X223025238Y-107010057D02*
X223072857Y-107105295D01*
X223072857Y-107105295D02*
X223072857Y-107200533D01*
X223072857Y-107200533D02*
X223025238Y-107343390D01*
X223025238Y-107343390D02*
X222453810Y-107914819D01*
X222453810Y-107914819D02*
X223072857Y-107914819D01*
X243346666Y-96924819D02*
X243346666Y-97639104D01*
X243346666Y-97639104D02*
X243299047Y-97781961D01*
X243299047Y-97781961D02*
X243203809Y-97877200D01*
X243203809Y-97877200D02*
X243060952Y-97924819D01*
X243060952Y-97924819D02*
X242965714Y-97924819D01*
X243727619Y-96924819D02*
X244394285Y-96924819D01*
X244394285Y-96924819D02*
X243965714Y-97924819D01*
D11*
X142209523Y-47010080D02*
X142209523Y-48010080D01*
X142209523Y-48010080D02*
X141876190Y-47295795D01*
X141876190Y-47295795D02*
X141542857Y-48010080D01*
X141542857Y-48010080D02*
X141542857Y-47010080D01*
X140923809Y-47010080D02*
X141019047Y-47057700D01*
X141019047Y-47057700D02*
X141066666Y-47105319D01*
X141066666Y-47105319D02*
X141114285Y-47200557D01*
X141114285Y-47200557D02*
X141114285Y-47486271D01*
X141114285Y-47486271D02*
X141066666Y-47581509D01*
X141066666Y-47581509D02*
X141019047Y-47629128D01*
X141019047Y-47629128D02*
X140923809Y-47676747D01*
X140923809Y-47676747D02*
X140780952Y-47676747D01*
X140780952Y-47676747D02*
X140685714Y-47629128D01*
X140685714Y-47629128D02*
X140638095Y-47581509D01*
X140638095Y-47581509D02*
X140590476Y-47486271D01*
X140590476Y-47486271D02*
X140590476Y-47200557D01*
X140590476Y-47200557D02*
X140638095Y-47105319D01*
X140638095Y-47105319D02*
X140685714Y-47057700D01*
X140685714Y-47057700D02*
X140780952Y-47010080D01*
X140780952Y-47010080D02*
X140923809Y-47010080D01*
X139733333Y-47010080D02*
X139733333Y-48010080D01*
X139733333Y-47057700D02*
X139828571Y-47010080D01*
X139828571Y-47010080D02*
X140019047Y-47010080D01*
X140019047Y-47010080D02*
X140114285Y-47057700D01*
X140114285Y-47057700D02*
X140161904Y-47105319D01*
X140161904Y-47105319D02*
X140209523Y-47200557D01*
X140209523Y-47200557D02*
X140209523Y-47486271D01*
X140209523Y-47486271D02*
X140161904Y-47581509D01*
X140161904Y-47581509D02*
X140114285Y-47629128D01*
X140114285Y-47629128D02*
X140019047Y-47676747D01*
X140019047Y-47676747D02*
X139828571Y-47676747D01*
X139828571Y-47676747D02*
X139733333Y-47629128D01*
X138876190Y-47057700D02*
X138971428Y-47010080D01*
X138971428Y-47010080D02*
X139161904Y-47010080D01*
X139161904Y-47010080D02*
X139257142Y-47057700D01*
X139257142Y-47057700D02*
X139304761Y-47152938D01*
X139304761Y-47152938D02*
X139304761Y-47533890D01*
X139304761Y-47533890D02*
X139257142Y-47629128D01*
X139257142Y-47629128D02*
X139161904Y-47676747D01*
X139161904Y-47676747D02*
X138971428Y-47676747D01*
X138971428Y-47676747D02*
X138876190Y-47629128D01*
X138876190Y-47629128D02*
X138828571Y-47533890D01*
X138828571Y-47533890D02*
X138828571Y-47438652D01*
X138828571Y-47438652D02*
X139304761Y-47343414D01*
X138399999Y-47010080D02*
X138399999Y-47676747D01*
X138399999Y-47581509D02*
X138352380Y-47629128D01*
X138352380Y-47629128D02*
X138257142Y-47676747D01*
X138257142Y-47676747D02*
X138114285Y-47676747D01*
X138114285Y-47676747D02*
X138019047Y-47629128D01*
X138019047Y-47629128D02*
X137971428Y-47533890D01*
X137971428Y-47533890D02*
X137971428Y-47010080D01*
X137971428Y-47533890D02*
X137923809Y-47629128D01*
X137923809Y-47629128D02*
X137828571Y-47676747D01*
X137828571Y-47676747D02*
X137685714Y-47676747D01*
X137685714Y-47676747D02*
X137590475Y-47629128D01*
X137590475Y-47629128D02*
X137542856Y-47533890D01*
X137542856Y-47533890D02*
X137542856Y-47010080D01*
X136542857Y-47010080D02*
X137114285Y-47010080D01*
X136828571Y-47010080D02*
X136828571Y-48010080D01*
X136828571Y-48010080D02*
X136923809Y-47867223D01*
X136923809Y-47867223D02*
X137019047Y-47771985D01*
X137019047Y-47771985D02*
X137114285Y-47724366D01*
D10*
X195280951Y-129559580D02*
X195233332Y-129607200D01*
X195233332Y-129607200D02*
X195090475Y-129654819D01*
X195090475Y-129654819D02*
X194995237Y-129654819D01*
X194995237Y-129654819D02*
X194852380Y-129607200D01*
X194852380Y-129607200D02*
X194757142Y-129511961D01*
X194757142Y-129511961D02*
X194709523Y-129416723D01*
X194709523Y-129416723D02*
X194661904Y-129226247D01*
X194661904Y-129226247D02*
X194661904Y-129083390D01*
X194661904Y-129083390D02*
X194709523Y-128892914D01*
X194709523Y-128892914D02*
X194757142Y-128797676D01*
X194757142Y-128797676D02*
X194852380Y-128702438D01*
X194852380Y-128702438D02*
X194995237Y-128654819D01*
X194995237Y-128654819D02*
X195090475Y-128654819D01*
X195090475Y-128654819D02*
X195233332Y-128702438D01*
X195233332Y-128702438D02*
X195280951Y-128750057D01*
X196090475Y-129607200D02*
X195995237Y-129654819D01*
X195995237Y-129654819D02*
X195804761Y-129654819D01*
X195804761Y-129654819D02*
X195709523Y-129607200D01*
X195709523Y-129607200D02*
X195661904Y-129511961D01*
X195661904Y-129511961D02*
X195661904Y-129131009D01*
X195661904Y-129131009D02*
X195709523Y-129035771D01*
X195709523Y-129035771D02*
X195804761Y-128988152D01*
X195804761Y-128988152D02*
X195995237Y-128988152D01*
X195995237Y-128988152D02*
X196090475Y-129035771D01*
X196090475Y-129035771D02*
X196138094Y-129131009D01*
X196138094Y-129131009D02*
X196138094Y-129226247D01*
X196138094Y-129226247D02*
X195661904Y-129321485D01*
X196566666Y-128988152D02*
X196566666Y-129654819D01*
X196566666Y-129083390D02*
X196614285Y-129035771D01*
X196614285Y-129035771D02*
X196709523Y-128988152D01*
X196709523Y-128988152D02*
X196852380Y-128988152D01*
X196852380Y-128988152D02*
X196947618Y-129035771D01*
X196947618Y-129035771D02*
X196995237Y-129131009D01*
X196995237Y-129131009D02*
X196995237Y-129654819D01*
X197328571Y-128988152D02*
X197709523Y-128988152D01*
X197471428Y-128654819D02*
X197471428Y-129511961D01*
X197471428Y-129511961D02*
X197519047Y-129607200D01*
X197519047Y-129607200D02*
X197614285Y-129654819D01*
X197614285Y-129654819D02*
X197709523Y-129654819D01*
X198042857Y-129654819D02*
X198042857Y-128988152D01*
X198042857Y-129178628D02*
X198090476Y-129083390D01*
X198090476Y-129083390D02*
X198138095Y-129035771D01*
X198138095Y-129035771D02*
X198233333Y-128988152D01*
X198233333Y-128988152D02*
X198328571Y-128988152D01*
X199090476Y-129654819D02*
X199090476Y-129131009D01*
X199090476Y-129131009D02*
X199042857Y-129035771D01*
X199042857Y-129035771D02*
X198947619Y-128988152D01*
X198947619Y-128988152D02*
X198757143Y-128988152D01*
X198757143Y-128988152D02*
X198661905Y-129035771D01*
X199090476Y-129607200D02*
X198995238Y-129654819D01*
X198995238Y-129654819D02*
X198757143Y-129654819D01*
X198757143Y-129654819D02*
X198661905Y-129607200D01*
X198661905Y-129607200D02*
X198614286Y-129511961D01*
X198614286Y-129511961D02*
X198614286Y-129416723D01*
X198614286Y-129416723D02*
X198661905Y-129321485D01*
X198661905Y-129321485D02*
X198757143Y-129273866D01*
X198757143Y-129273866D02*
X198995238Y-129273866D01*
X198995238Y-129273866D02*
X199090476Y-129226247D01*
X199709524Y-129654819D02*
X199614286Y-129607200D01*
X199614286Y-129607200D02*
X199566667Y-129511961D01*
X199566667Y-129511961D02*
X199566667Y-128654819D01*
X200566667Y-129654819D02*
X200090477Y-129654819D01*
X200090477Y-129654819D02*
X200090477Y-128654819D01*
X200900001Y-129131009D02*
X201233334Y-129131009D01*
X201376191Y-129654819D02*
X200900001Y-129654819D01*
X200900001Y-129654819D02*
X200900001Y-128654819D01*
X200900001Y-128654819D02*
X201376191Y-128654819D01*
X201804763Y-129654819D02*
X201804763Y-128654819D01*
X201804763Y-128654819D02*
X202042858Y-128654819D01*
X202042858Y-128654819D02*
X202185715Y-128702438D01*
X202185715Y-128702438D02*
X202280953Y-128797676D01*
X202280953Y-128797676D02*
X202328572Y-128892914D01*
X202328572Y-128892914D02*
X202376191Y-129083390D01*
X202376191Y-129083390D02*
X202376191Y-129226247D01*
X202376191Y-129226247D02*
X202328572Y-129416723D01*
X202328572Y-129416723D02*
X202280953Y-129511961D01*
X202280953Y-129511961D02*
X202185715Y-129607200D01*
X202185715Y-129607200D02*
X202042858Y-129654819D01*
X202042858Y-129654819D02*
X201804763Y-129654819D01*
X202757144Y-129607200D02*
X202852382Y-129654819D01*
X202852382Y-129654819D02*
X203042858Y-129654819D01*
X203042858Y-129654819D02*
X203138096Y-129607200D01*
X203138096Y-129607200D02*
X203185715Y-129511961D01*
X203185715Y-129511961D02*
X203185715Y-129464342D01*
X203185715Y-129464342D02*
X203138096Y-129369104D01*
X203138096Y-129369104D02*
X203042858Y-129321485D01*
X203042858Y-129321485D02*
X202900001Y-129321485D01*
X202900001Y-129321485D02*
X202804763Y-129273866D01*
X202804763Y-129273866D02*
X202757144Y-129178628D01*
X202757144Y-129178628D02*
X202757144Y-129131009D01*
X202757144Y-129131009D02*
X202804763Y-129035771D01*
X202804763Y-129035771D02*
X202900001Y-128988152D01*
X202900001Y-128988152D02*
X203042858Y-128988152D01*
X203042858Y-128988152D02*
X203138096Y-129035771D01*
X204138096Y-129654819D02*
X203566668Y-129654819D01*
X203852382Y-129654819D02*
X203852382Y-128654819D01*
X203852382Y-128654819D02*
X203757144Y-128797676D01*
X203757144Y-128797676D02*
X203661906Y-128892914D01*
X203661906Y-128892914D02*
X203566668Y-128940533D01*
X239956666Y-106914819D02*
X239956666Y-107629104D01*
X239956666Y-107629104D02*
X239909047Y-107771961D01*
X239909047Y-107771961D02*
X239813809Y-107867200D01*
X239813809Y-107867200D02*
X239670952Y-107914819D01*
X239670952Y-107914819D02*
X239575714Y-107914819D01*
X240575714Y-107343390D02*
X240480476Y-107295771D01*
X240480476Y-107295771D02*
X240432857Y-107248152D01*
X240432857Y-107248152D02*
X240385238Y-107152914D01*
X240385238Y-107152914D02*
X240385238Y-107105295D01*
X240385238Y-107105295D02*
X240432857Y-107010057D01*
X240432857Y-107010057D02*
X240480476Y-106962438D01*
X240480476Y-106962438D02*
X240575714Y-106914819D01*
X240575714Y-106914819D02*
X240766190Y-106914819D01*
X240766190Y-106914819D02*
X240861428Y-106962438D01*
X240861428Y-106962438D02*
X240909047Y-107010057D01*
X240909047Y-107010057D02*
X240956666Y-107105295D01*
X240956666Y-107105295D02*
X240956666Y-107152914D01*
X240956666Y-107152914D02*
X240909047Y-107248152D01*
X240909047Y-107248152D02*
X240861428Y-107295771D01*
X240861428Y-107295771D02*
X240766190Y-107343390D01*
X240766190Y-107343390D02*
X240575714Y-107343390D01*
X240575714Y-107343390D02*
X240480476Y-107391009D01*
X240480476Y-107391009D02*
X240432857Y-107438628D01*
X240432857Y-107438628D02*
X240385238Y-107533866D01*
X240385238Y-107533866D02*
X240385238Y-107724342D01*
X240385238Y-107724342D02*
X240432857Y-107819580D01*
X240432857Y-107819580D02*
X240480476Y-107867200D01*
X240480476Y-107867200D02*
X240575714Y-107914819D01*
X240575714Y-107914819D02*
X240766190Y-107914819D01*
X240766190Y-107914819D02*
X240861428Y-107867200D01*
X240861428Y-107867200D02*
X240909047Y-107819580D01*
X240909047Y-107819580D02*
X240956666Y-107724342D01*
X240956666Y-107724342D02*
X240956666Y-107533866D01*
X240956666Y-107533866D02*
X240909047Y-107438628D01*
X240909047Y-107438628D02*
X240861428Y-107391009D01*
X240861428Y-107391009D02*
X240766190Y-107343390D01*
D12*
%TO.C,J33*%
X236600000Y-68420000D02*
X249520000Y-68420000D01*
X236600000Y-71070000D02*
X236600000Y-68420000D01*
X236600000Y-73720000D02*
X236600000Y-72340000D01*
X237980000Y-73720000D02*
X236600000Y-73720000D01*
X239250000Y-71070000D02*
X236600000Y-71070000D01*
X239250000Y-73720000D02*
X239250000Y-71070000D01*
X239250000Y-73720000D02*
X249520000Y-73720000D01*
X249520000Y-73720000D02*
X249520000Y-68420000D01*
%TO.C,J6*%
X243500000Y-103810000D02*
X243500000Y-98620000D01*
X246260000Y-98620000D02*
X243500000Y-98620000D01*
X246260000Y-103810000D02*
X243500000Y-103810000D01*
X246260000Y-103810000D02*
X246260000Y-98620000D01*
X246260000Y-105080000D02*
X246260000Y-106460000D01*
X246260000Y-106460000D02*
X244880000Y-106460000D01*
%TO.C,J10*%
X229730000Y-103810000D02*
X229730000Y-98620000D01*
X232490000Y-98620000D02*
X229730000Y-98620000D01*
X232490000Y-103810000D02*
X229730000Y-103810000D01*
X232490000Y-103810000D02*
X232490000Y-98620000D01*
X232490000Y-105080000D02*
X232490000Y-106460000D01*
X232490000Y-106460000D02*
X231110000Y-106460000D01*
%TO.C,R2*%
X222690000Y-74400000D02*
X223380000Y-74400000D01*
X223380000Y-72680000D02*
X223380000Y-76120000D01*
X223380000Y-76120000D02*
X232620000Y-76120000D01*
X232620000Y-72680000D02*
X223380000Y-72680000D01*
X232620000Y-76120000D02*
X232620000Y-72680000D01*
X233310000Y-74400000D02*
X232620000Y-74400000D01*
%TO.C,C4*%
X229042700Y-93233000D02*
X229042700Y-92167000D01*
X229082700Y-93468000D02*
X229082700Y-91932000D01*
X229122700Y-93647000D02*
X229122700Y-91753000D01*
X229162700Y-93797000D02*
X229162700Y-91603000D01*
X229202700Y-93928000D02*
X229202700Y-91472000D01*
X229242700Y-94046000D02*
X229242700Y-91354000D01*
X229282700Y-94153000D02*
X229282700Y-91247000D01*
X229322700Y-94252000D02*
X229322700Y-91148000D01*
X229362700Y-94344000D02*
X229362700Y-91056000D01*
X229402700Y-94431000D02*
X229402700Y-90969000D01*
X229442700Y-94513000D02*
X229442700Y-90887000D01*
X229482700Y-94590000D02*
X229482700Y-90810000D01*
X229522700Y-94664000D02*
X229522700Y-90736000D01*
X229562700Y-94734000D02*
X229562700Y-90666000D01*
X229602700Y-94801000D02*
X229602700Y-90599000D01*
X229642700Y-94865000D02*
X229642700Y-90535000D01*
X229682700Y-94927000D02*
X229682700Y-90473000D01*
X229722700Y-94987000D02*
X229722700Y-90413000D01*
X229762700Y-95044000D02*
X229762700Y-90356000D01*
X229802700Y-95100000D02*
X229802700Y-90300000D01*
X229842700Y-95153000D02*
X229842700Y-90247000D01*
X229882700Y-95205000D02*
X229882700Y-90195000D01*
X229922700Y-95255000D02*
X229922700Y-90145000D01*
X229962700Y-95304000D02*
X229962700Y-90096000D01*
X230002700Y-95351000D02*
X230002700Y-90049000D01*
X230042700Y-95396000D02*
X230042700Y-90004000D01*
X230082700Y-95441000D02*
X230082700Y-89959000D01*
X230122700Y-95484000D02*
X230122700Y-89916000D01*
X230162700Y-95526000D02*
X230162700Y-89874000D01*
X230202700Y-95567000D02*
X230202700Y-89833000D01*
X230242700Y-95606000D02*
X230242700Y-89794000D01*
X230282700Y-95645000D02*
X230282700Y-89755000D01*
X230322700Y-95682000D02*
X230322700Y-89718000D01*
X230362700Y-91660000D02*
X230362700Y-89681000D01*
X230362700Y-95719000D02*
X230362700Y-93740000D01*
X230402700Y-91660000D02*
X230402700Y-89645000D01*
X230402700Y-95755000D02*
X230402700Y-93740000D01*
X230442700Y-91660000D02*
X230442700Y-89611000D01*
X230442700Y-95789000D02*
X230442700Y-93740000D01*
X230482700Y-91660000D02*
X230482700Y-89577000D01*
X230482700Y-95823000D02*
X230482700Y-93740000D01*
X230522700Y-91660000D02*
X230522700Y-89544000D01*
X230522700Y-95856000D02*
X230522700Y-93740000D01*
X230562700Y-91660000D02*
X230562700Y-89512000D01*
X230562700Y-95888000D02*
X230562700Y-93740000D01*
X230602700Y-91660000D02*
X230602700Y-89481000D01*
X230602700Y-95919000D02*
X230602700Y-93740000D01*
X230642700Y-91660000D02*
X230642700Y-89450000D01*
X230642700Y-95950000D02*
X230642700Y-93740000D01*
X230682700Y-91660000D02*
X230682700Y-89420000D01*
X230682700Y-95980000D02*
X230682700Y-93740000D01*
X230722700Y-91660000D02*
X230722700Y-89391000D01*
X230722700Y-96009000D02*
X230722700Y-93740000D01*
X230762700Y-91660000D02*
X230762700Y-89363000D01*
X230762700Y-96037000D02*
X230762700Y-93740000D01*
X230802700Y-91660000D02*
X230802700Y-89335000D01*
X230802700Y-96065000D02*
X230802700Y-93740000D01*
X230842700Y-91660000D02*
X230842700Y-89308000D01*
X230842700Y-96092000D02*
X230842700Y-93740000D01*
X230882700Y-91660000D02*
X230882700Y-89282000D01*
X230882700Y-96118000D02*
X230882700Y-93740000D01*
X230922700Y-91660000D02*
X230922700Y-89257000D01*
X230922700Y-96143000D02*
X230922700Y-93740000D01*
X230962700Y-91660000D02*
X230962700Y-89232000D01*
X230962700Y-96168000D02*
X230962700Y-93740000D01*
X231002700Y-91660000D02*
X231002700Y-89207000D01*
X231002700Y-96193000D02*
X231002700Y-93740000D01*
X231042700Y-91660000D02*
X231042700Y-89184000D01*
X231042700Y-96216000D02*
X231042700Y-93740000D01*
X231082700Y-91660000D02*
X231082700Y-89161000D01*
X231082700Y-96239000D02*
X231082700Y-93740000D01*
X231122700Y-91660000D02*
X231122700Y-89138000D01*
X231122700Y-96262000D02*
X231122700Y-93740000D01*
X231162700Y-91660000D02*
X231162700Y-89116000D01*
X231162700Y-96284000D02*
X231162700Y-93740000D01*
X231202700Y-91660000D02*
X231202700Y-89095000D01*
X231202700Y-96305000D02*
X231202700Y-93740000D01*
X231242700Y-91660000D02*
X231242700Y-89074000D01*
X231242700Y-96326000D02*
X231242700Y-93740000D01*
X231282700Y-91660000D02*
X231282700Y-89054000D01*
X231282700Y-96346000D02*
X231282700Y-93740000D01*
X231322700Y-91660000D02*
X231322700Y-89034000D01*
X231322700Y-96366000D02*
X231322700Y-93740000D01*
X231362700Y-91660000D02*
X231362700Y-89015000D01*
X231362700Y-96385000D02*
X231362700Y-93740000D01*
X231402700Y-91660000D02*
X231402700Y-88996000D01*
X231402700Y-96404000D02*
X231402700Y-93740000D01*
X231442700Y-91660000D02*
X231442700Y-88978000D01*
X231442700Y-96422000D02*
X231442700Y-93740000D01*
X231482700Y-91660000D02*
X231482700Y-88960000D01*
X231482700Y-96440000D02*
X231482700Y-93740000D01*
X231522700Y-91660000D02*
X231522700Y-88943000D01*
X231522700Y-96457000D02*
X231522700Y-93740000D01*
X231562700Y-91660000D02*
X231562700Y-88927000D01*
X231562700Y-96473000D02*
X231562700Y-93740000D01*
X231602700Y-91660000D02*
X231602700Y-88911000D01*
X231602700Y-96489000D02*
X231602700Y-93740000D01*
X231642700Y-91660000D02*
X231642700Y-88895000D01*
X231642700Y-96505000D02*
X231642700Y-93740000D01*
X231682700Y-91660000D02*
X231682700Y-88880000D01*
X231682700Y-96520000D02*
X231682700Y-93740000D01*
X231722700Y-91660000D02*
X231722700Y-88865000D01*
X231722700Y-96535000D02*
X231722700Y-93740000D01*
X231762700Y-91660000D02*
X231762700Y-88851000D01*
X231762700Y-96549000D02*
X231762700Y-93740000D01*
X231802700Y-91660000D02*
X231802700Y-88837000D01*
X231802700Y-96563000D02*
X231802700Y-93740000D01*
X231842700Y-91660000D02*
X231842700Y-88824000D01*
X231842700Y-96576000D02*
X231842700Y-93740000D01*
X231882700Y-91660000D02*
X231882700Y-88811000D01*
X231882700Y-96589000D02*
X231882700Y-93740000D01*
X231922700Y-91660000D02*
X231922700Y-88799000D01*
X231922700Y-96601000D02*
X231922700Y-93740000D01*
X231962700Y-91660000D02*
X231962700Y-88787000D01*
X231962700Y-96613000D02*
X231962700Y-93740000D01*
X232002700Y-91660000D02*
X232002700Y-88775000D01*
X232002700Y-96625000D02*
X232002700Y-93740000D01*
X232042700Y-91660000D02*
X232042700Y-88764000D01*
X232042700Y-96636000D02*
X232042700Y-93740000D01*
X232082700Y-91660000D02*
X232082700Y-88753000D01*
X232082700Y-96647000D02*
X232082700Y-93740000D01*
X232122700Y-91660000D02*
X232122700Y-88743000D01*
X232122700Y-96657000D02*
X232122700Y-93740000D01*
X232162700Y-91660000D02*
X232162700Y-88733000D01*
X232162700Y-96667000D02*
X232162700Y-93740000D01*
X232202700Y-91660000D02*
X232202700Y-88724000D01*
X232202700Y-96676000D02*
X232202700Y-93740000D01*
X232242700Y-91660000D02*
X232242700Y-88715000D01*
X232242700Y-96685000D02*
X232242700Y-93740000D01*
X232282700Y-91660000D02*
X232282700Y-88707000D01*
X232282700Y-96693000D02*
X232282700Y-93740000D01*
X232322700Y-91660000D02*
X232322700Y-88698000D01*
X232322700Y-96702000D02*
X232322700Y-93740000D01*
X232362700Y-91660000D02*
X232362700Y-88691000D01*
X232362700Y-96709000D02*
X232362700Y-93740000D01*
X232402700Y-91660000D02*
X232402700Y-88683000D01*
X232402700Y-96717000D02*
X232402700Y-93740000D01*
X232442700Y-96723000D02*
X232442700Y-88677000D01*
X232482700Y-96730000D02*
X232482700Y-88670000D01*
X232522700Y-96736000D02*
X232522700Y-88664000D01*
X232562700Y-96742000D02*
X232562700Y-88658000D01*
X232602700Y-96747000D02*
X232602700Y-88653000D01*
X232642700Y-96752000D02*
X232642700Y-88648000D01*
X232682700Y-96756000D02*
X232682700Y-88644000D01*
X232722700Y-96761000D02*
X232722700Y-88639000D01*
X232762700Y-96764000D02*
X232762700Y-88636000D01*
X232802700Y-96768000D02*
X232802700Y-88632000D01*
X232842700Y-96770000D02*
X232842700Y-88630000D01*
X232882700Y-96773000D02*
X232882700Y-88627000D01*
X232922700Y-96775000D02*
X232922700Y-88625000D01*
X232962700Y-96777000D02*
X232962700Y-88623000D01*
X233002700Y-96778000D02*
X233002700Y-88622000D01*
X233042700Y-96779000D02*
X233042700Y-88621000D01*
X233082700Y-96780000D02*
X233082700Y-88620000D01*
X233122700Y-96780000D02*
X233122700Y-88620000D01*
X237132398Y-95415000D02*
X237132398Y-94615000D01*
X237532398Y-95015000D02*
X236732398Y-95015000D01*
X237242700Y-92700000D02*
G75*
G02*
X229002700Y-92700000I-4120000J0D01*
G01*
X229002700Y-92700000D02*
G75*
G02*
X237242700Y-92700000I4120000J0D01*
G01*
%TO.C,J5*%
X247320000Y-101270000D02*
X247320000Y-98620000D01*
X250080000Y-98620000D02*
X247320000Y-98620000D01*
X250080000Y-101270000D02*
X247320000Y-101270000D01*
X250080000Y-101270000D02*
X250080000Y-98620000D01*
X250080000Y-102540000D02*
X250080000Y-103920000D01*
X250080000Y-103920000D02*
X248700000Y-103920000D01*
%TO.C,DisplayPWR1*%
X175050000Y-27607500D02*
X175050000Y-27982500D01*
X175050000Y-27982500D02*
X176050000Y-27982500D01*
X176050000Y-27982500D02*
X176050000Y-37507500D01*
X176050000Y-44457500D02*
X176050000Y-41457500D01*
X176975000Y-44457500D02*
X176050000Y-44457500D01*
X186100000Y-46332500D02*
X186800000Y-46332500D01*
X188425000Y-44457500D02*
X189350000Y-44457500D01*
X189350000Y-27982500D02*
X189350000Y-37507500D01*
X189350000Y-44457500D02*
X189350000Y-41457500D01*
X190350000Y-27607500D02*
X175050000Y-27607500D01*
X190350000Y-27607500D02*
X190350000Y-27982500D01*
X190350000Y-27982500D02*
X189350000Y-27982500D01*
%TO.C,RechargeA1*%
X95790000Y-36750000D02*
X95790000Y-38450000D01*
X105130000Y-36750000D02*
X105130000Y-38450000D01*
%TO.C,C1*%
X210460000Y-135980000D02*
X206783000Y-135980000D01*
X210460000Y-136020000D02*
X206793000Y-136020000D01*
X210460000Y-136060000D02*
X206804000Y-136060000D01*
X210460000Y-136100000D02*
X206815000Y-136100000D01*
X210460000Y-136140000D02*
X206827000Y-136140000D01*
X210460000Y-136180000D02*
X206839000Y-136180000D01*
X210460000Y-136220000D02*
X206851000Y-136220000D01*
X210460000Y-136260000D02*
X206863000Y-136260000D01*
X210460000Y-136300000D02*
X206876000Y-136300000D01*
X210460000Y-136340000D02*
X206890000Y-136340000D01*
X210460000Y-136380000D02*
X206903000Y-136380000D01*
X210460000Y-136420000D02*
X206918000Y-136420000D01*
X210460000Y-136460000D02*
X206932000Y-136460000D01*
X210460000Y-136500000D02*
X206947000Y-136500000D01*
X210460000Y-136540000D02*
X206962000Y-136540000D01*
X210460000Y-136580000D02*
X206978000Y-136580000D01*
X210460000Y-136620000D02*
X206994000Y-136620000D01*
X210460000Y-136660000D02*
X207010000Y-136660000D01*
X210460000Y-136700000D02*
X207027000Y-136700000D01*
X210460000Y-136740000D02*
X207044000Y-136740000D01*
X210460000Y-136780000D02*
X207062000Y-136780000D01*
X210460000Y-136820000D02*
X207080000Y-136820000D01*
X210460000Y-136860000D02*
X207098000Y-136860000D01*
X210460000Y-136900000D02*
X207117000Y-136900000D01*
X210460000Y-136940000D02*
X207136000Y-136940000D01*
X210460000Y-136980000D02*
X207156000Y-136980000D01*
X210460000Y-137020000D02*
X207176000Y-137020000D01*
X210460000Y-137060000D02*
X207196000Y-137060000D01*
X210460000Y-137100000D02*
X207217000Y-137100000D01*
X210460000Y-137140000D02*
X207239000Y-137140000D01*
X210460000Y-137180000D02*
X207261000Y-137180000D01*
X210460000Y-137220000D02*
X207283000Y-137220000D01*
X210460000Y-137260000D02*
X207306000Y-137260000D01*
X210460000Y-137300000D02*
X207329000Y-137300000D01*
X210460000Y-137340000D02*
X207353000Y-137340000D01*
X210460000Y-137380000D02*
X207377000Y-137380000D01*
X210460000Y-137420000D02*
X207402000Y-137420000D01*
X210460000Y-137460000D02*
X207428000Y-137460000D01*
X210460000Y-137500000D02*
X207453000Y-137500000D01*
X210460000Y-137540000D02*
X207480000Y-137540000D01*
X210460000Y-137580000D02*
X207507000Y-137580000D01*
X210460000Y-137620000D02*
X207534000Y-137620000D01*
X210460000Y-137660000D02*
X207562000Y-137660000D01*
X210460000Y-137700000D02*
X207591000Y-137700000D01*
X210460000Y-137740000D02*
X207620000Y-137740000D01*
X210460000Y-137780000D02*
X207650000Y-137780000D01*
X210460000Y-137820000D02*
X207680000Y-137820000D01*
X210460000Y-137860000D02*
X207712000Y-137860000D01*
X210460000Y-137900000D02*
X207743000Y-137900000D01*
X210460000Y-137940000D02*
X207776000Y-137940000D01*
X210460000Y-137980000D02*
X207809000Y-137980000D01*
X210460000Y-138020000D02*
X207842000Y-138020000D01*
X210460000Y-138060000D02*
X207877000Y-138060000D01*
X210460000Y-138100000D02*
X207912000Y-138100000D01*
X210460000Y-138140000D02*
X207948000Y-138140000D01*
X210460000Y-138180000D02*
X207984000Y-138180000D01*
X210460000Y-138220000D02*
X208022000Y-138220000D01*
X210460000Y-138260000D02*
X208060000Y-138260000D01*
X210460000Y-138300000D02*
X208099000Y-138300000D01*
X210460000Y-138340000D02*
X208139000Y-138340000D01*
X210460000Y-138380000D02*
X208180000Y-138380000D01*
X210460000Y-138420000D02*
X208222000Y-138420000D01*
X212299000Y-139780000D02*
X211101000Y-139780000D01*
X212562000Y-139740000D02*
X210838000Y-139740000D01*
X212762000Y-139700000D02*
X210638000Y-139700000D01*
X212930000Y-139660000D02*
X210470000Y-139660000D01*
X213077000Y-139620000D02*
X210323000Y-139620000D01*
X213209000Y-139580000D02*
X210191000Y-139580000D01*
X213330000Y-139540000D02*
X210070000Y-139540000D01*
X213442000Y-139500000D02*
X209958000Y-139500000D01*
X213546000Y-139460000D02*
X209854000Y-139460000D01*
X213644000Y-139420000D02*
X209756000Y-139420000D01*
X213737000Y-139380000D02*
X209663000Y-139380000D01*
X213824000Y-139340000D02*
X209576000Y-139340000D01*
X213908000Y-139300000D02*
X209492000Y-139300000D01*
X213988000Y-139260000D02*
X209412000Y-139260000D01*
X214065000Y-139220000D02*
X209335000Y-139220000D01*
X214139000Y-139180000D02*
X209261000Y-139180000D01*
X214210000Y-139140000D02*
X209190000Y-139140000D01*
X214278000Y-139100000D02*
X209122000Y-139100000D01*
X214344000Y-139060000D02*
X209056000Y-139060000D01*
X214408000Y-139020000D02*
X208992000Y-139020000D01*
X214470000Y-138980000D02*
X208930000Y-138980000D01*
X214530000Y-138940000D02*
X208870000Y-138940000D01*
X214575000Y-129220354D02*
X214575000Y-130220354D01*
X214588000Y-138900000D02*
X208812000Y-138900000D01*
X214645000Y-138860000D02*
X208755000Y-138860000D01*
X214700000Y-138820000D02*
X208700000Y-138820000D01*
X214753000Y-138780000D02*
X208647000Y-138780000D01*
X214805000Y-138740000D02*
X208595000Y-138740000D01*
X214856000Y-138700000D02*
X208544000Y-138700000D01*
X214905000Y-138660000D02*
X208495000Y-138660000D01*
X214954000Y-138620000D02*
X208446000Y-138620000D01*
X215001000Y-138580000D02*
X208399000Y-138580000D01*
X215047000Y-138540000D02*
X208353000Y-138540000D01*
X215075000Y-129720354D02*
X214075000Y-129720354D01*
X215091000Y-138500000D02*
X208309000Y-138500000D01*
X215135000Y-138460000D02*
X208265000Y-138460000D01*
X215178000Y-138420000D02*
X212940000Y-138420000D01*
X215220000Y-138380000D02*
X212940000Y-138380000D01*
X215261000Y-138340000D02*
X212940000Y-138340000D01*
X215301000Y-138300000D02*
X212940000Y-138300000D01*
X215340000Y-138260000D02*
X212940000Y-138260000D01*
X215378000Y-138220000D02*
X212940000Y-138220000D01*
X215416000Y-138180000D02*
X212940000Y-138180000D01*
X215452000Y-138140000D02*
X212940000Y-138140000D01*
X215488000Y-138100000D02*
X212940000Y-138100000D01*
X215523000Y-138060000D02*
X212940000Y-138060000D01*
X215558000Y-138020000D02*
X212940000Y-138020000D01*
X215591000Y-137980000D02*
X212940000Y-137980000D01*
X215624000Y-137940000D02*
X212940000Y-137940000D01*
X215657000Y-137900000D02*
X212940000Y-137900000D01*
X215688000Y-137860000D02*
X212940000Y-137860000D01*
X215720000Y-137820000D02*
X212940000Y-137820000D01*
X215750000Y-137780000D02*
X212940000Y-137780000D01*
X215780000Y-137740000D02*
X212940000Y-137740000D01*
X215809000Y-137700000D02*
X212940000Y-137700000D01*
X215838000Y-137660000D02*
X212940000Y-137660000D01*
X215866000Y-137620000D02*
X212940000Y-137620000D01*
X215893000Y-137580000D02*
X212940000Y-137580000D01*
X215920000Y-137540000D02*
X212940000Y-137540000D01*
X215947000Y-137500000D02*
X212940000Y-137500000D01*
X215972000Y-137460000D02*
X212940000Y-137460000D01*
X215998000Y-137420000D02*
X212940000Y-137420000D01*
X216023000Y-137380000D02*
X212940000Y-137380000D01*
X216047000Y-137340000D02*
X212940000Y-137340000D01*
X216071000Y-137300000D02*
X212940000Y-137300000D01*
X216094000Y-137260000D02*
X212940000Y-137260000D01*
X216117000Y-137220000D02*
X212940000Y-137220000D01*
X216139000Y-137180000D02*
X212940000Y-137180000D01*
X216161000Y-137140000D02*
X212940000Y-137140000D01*
X216183000Y-137100000D02*
X212940000Y-137100000D01*
X216204000Y-137060000D02*
X212940000Y-137060000D01*
X216224000Y-137020000D02*
X212940000Y-137020000D01*
X216244000Y-136980000D02*
X212940000Y-136980000D01*
X216264000Y-136940000D02*
X212940000Y-136940000D01*
X216283000Y-136900000D02*
X212940000Y-136900000D01*
X216302000Y-136860000D02*
X212940000Y-136860000D01*
X216320000Y-136820000D02*
X212940000Y-136820000D01*
X216338000Y-136780000D02*
X212940000Y-136780000D01*
X216356000Y-136740000D02*
X212940000Y-136740000D01*
X216373000Y-136700000D02*
X212940000Y-136700000D01*
X216390000Y-136660000D02*
X212940000Y-136660000D01*
X216406000Y-136620000D02*
X212940000Y-136620000D01*
X216422000Y-136580000D02*
X212940000Y-136580000D01*
X216438000Y-136540000D02*
X212940000Y-136540000D01*
X216453000Y-136500000D02*
X212940000Y-136500000D01*
X216468000Y-136460000D02*
X212940000Y-136460000D01*
X216482000Y-136420000D02*
X212940000Y-136420000D01*
X216497000Y-136380000D02*
X212940000Y-136380000D01*
X216510000Y-136340000D02*
X212940000Y-136340000D01*
X216524000Y-136300000D02*
X212940000Y-136300000D01*
X216537000Y-136260000D02*
X212940000Y-136260000D01*
X216549000Y-136220000D02*
X212940000Y-136220000D01*
X216561000Y-136180000D02*
X212940000Y-136180000D01*
X216573000Y-136140000D02*
X212940000Y-136140000D01*
X216585000Y-136100000D02*
X212940000Y-136100000D01*
X216596000Y-136060000D02*
X212940000Y-136060000D01*
X216607000Y-136020000D02*
X212940000Y-136020000D01*
X216617000Y-135980000D02*
X212940000Y-135980000D01*
X216628000Y-135940000D02*
X206772000Y-135940000D01*
X216637000Y-135900000D02*
X206763000Y-135900000D01*
X216647000Y-135860000D02*
X206753000Y-135860000D01*
X216656000Y-135820000D02*
X206744000Y-135820000D01*
X216665000Y-135780000D02*
X206735000Y-135780000D01*
X216673000Y-135740000D02*
X206727000Y-135740000D01*
X216681000Y-135700000D02*
X206719000Y-135700000D01*
X216689000Y-135660000D02*
X206711000Y-135660000D01*
X216697000Y-135620000D02*
X206703000Y-135620000D01*
X216704000Y-135580000D02*
X206696000Y-135580000D01*
X216711000Y-135540000D02*
X206689000Y-135540000D01*
X216717000Y-135500000D02*
X206683000Y-135500000D01*
X216723000Y-135460000D02*
X206677000Y-135460000D01*
X216729000Y-135420000D02*
X206671000Y-135420000D01*
X216735000Y-135380000D02*
X206665000Y-135380000D01*
X216740000Y-135340000D02*
X206660000Y-135340000D01*
X216745000Y-135300000D02*
X206655000Y-135300000D01*
X216749000Y-135260000D02*
X206651000Y-135260000D01*
X216754000Y-135220000D02*
X206646000Y-135220000D01*
X216757000Y-135180000D02*
X206643000Y-135180000D01*
X216761000Y-135140000D02*
X206639000Y-135140000D01*
X216764000Y-135100000D02*
X206636000Y-135100000D01*
X216767000Y-135060000D02*
X206633000Y-135060000D01*
X216770000Y-135020000D02*
X206630000Y-135020000D01*
X216772000Y-134980000D02*
X206628000Y-134980000D01*
X216774000Y-134940000D02*
X206626000Y-134940000D01*
X216776000Y-134900000D02*
X206624000Y-134900000D01*
X216777000Y-134860000D02*
X206623000Y-134860000D01*
X216779000Y-134780000D02*
X206621000Y-134780000D01*
X216779000Y-134820000D02*
X206621000Y-134820000D01*
X216780000Y-134700000D02*
X206620000Y-134700000D01*
X216780000Y-134740000D02*
X206620000Y-134740000D01*
X216820000Y-134700000D02*
G75*
G02*
X206580000Y-134700000I-5120000J0D01*
G01*
X206580000Y-134700000D02*
G75*
G02*
X216820000Y-134700000I5120000J0D01*
G01*
%TO.C,J11*%
X225140000Y-103810000D02*
X225140000Y-98620000D01*
X227900000Y-98620000D02*
X225140000Y-98620000D01*
X227900000Y-103810000D02*
X225140000Y-103810000D01*
X227900000Y-103810000D02*
X227900000Y-98620000D01*
X227900000Y-105080000D02*
X227900000Y-106460000D01*
X227900000Y-106460000D02*
X226520000Y-106460000D01*
%TO.C,C5*%
X229042700Y-83933000D02*
X229042700Y-82867000D01*
X229082700Y-84168000D02*
X229082700Y-82632000D01*
X229122700Y-84347000D02*
X229122700Y-82453000D01*
X229162700Y-84497000D02*
X229162700Y-82303000D01*
X229202700Y-84628000D02*
X229202700Y-82172000D01*
X229242700Y-84746000D02*
X229242700Y-82054000D01*
X229282700Y-84853000D02*
X229282700Y-81947000D01*
X229322700Y-84952000D02*
X229322700Y-81848000D01*
X229362700Y-85044000D02*
X229362700Y-81756000D01*
X229402700Y-85131000D02*
X229402700Y-81669000D01*
X229442700Y-85213000D02*
X229442700Y-81587000D01*
X229482700Y-85290000D02*
X229482700Y-81510000D01*
X229522700Y-85364000D02*
X229522700Y-81436000D01*
X229562700Y-85434000D02*
X229562700Y-81366000D01*
X229602700Y-85501000D02*
X229602700Y-81299000D01*
X229642700Y-85565000D02*
X229642700Y-81235000D01*
X229682700Y-85627000D02*
X229682700Y-81173000D01*
X229722700Y-85687000D02*
X229722700Y-81113000D01*
X229762700Y-85744000D02*
X229762700Y-81056000D01*
X229802700Y-85800000D02*
X229802700Y-81000000D01*
X229842700Y-85853000D02*
X229842700Y-80947000D01*
X229882700Y-85905000D02*
X229882700Y-80895000D01*
X229922700Y-85955000D02*
X229922700Y-80845000D01*
X229962700Y-86004000D02*
X229962700Y-80796000D01*
X230002700Y-86051000D02*
X230002700Y-80749000D01*
X230042700Y-86096000D02*
X230042700Y-80704000D01*
X230082700Y-86141000D02*
X230082700Y-80659000D01*
X230122700Y-86184000D02*
X230122700Y-80616000D01*
X230162700Y-86226000D02*
X230162700Y-80574000D01*
X230202700Y-86267000D02*
X230202700Y-80533000D01*
X230242700Y-86306000D02*
X230242700Y-80494000D01*
X230282700Y-86345000D02*
X230282700Y-80455000D01*
X230322700Y-86382000D02*
X230322700Y-80418000D01*
X230362700Y-82360000D02*
X230362700Y-80381000D01*
X230362700Y-86419000D02*
X230362700Y-84440000D01*
X230402700Y-82360000D02*
X230402700Y-80345000D01*
X230402700Y-86455000D02*
X230402700Y-84440000D01*
X230442700Y-82360000D02*
X230442700Y-80311000D01*
X230442700Y-86489000D02*
X230442700Y-84440000D01*
X230482700Y-82360000D02*
X230482700Y-80277000D01*
X230482700Y-86523000D02*
X230482700Y-84440000D01*
X230522700Y-82360000D02*
X230522700Y-80244000D01*
X230522700Y-86556000D02*
X230522700Y-84440000D01*
X230562700Y-82360000D02*
X230562700Y-80212000D01*
X230562700Y-86588000D02*
X230562700Y-84440000D01*
X230602700Y-82360000D02*
X230602700Y-80181000D01*
X230602700Y-86619000D02*
X230602700Y-84440000D01*
X230642700Y-82360000D02*
X230642700Y-80150000D01*
X230642700Y-86650000D02*
X230642700Y-84440000D01*
X230682700Y-82360000D02*
X230682700Y-80120000D01*
X230682700Y-86680000D02*
X230682700Y-84440000D01*
X230722700Y-82360000D02*
X230722700Y-80091000D01*
X230722700Y-86709000D02*
X230722700Y-84440000D01*
X230762700Y-82360000D02*
X230762700Y-80063000D01*
X230762700Y-86737000D02*
X230762700Y-84440000D01*
X230802700Y-82360000D02*
X230802700Y-80035000D01*
X230802700Y-86765000D02*
X230802700Y-84440000D01*
X230842700Y-82360000D02*
X230842700Y-80008000D01*
X230842700Y-86792000D02*
X230842700Y-84440000D01*
X230882700Y-82360000D02*
X230882700Y-79982000D01*
X230882700Y-86818000D02*
X230882700Y-84440000D01*
X230922700Y-82360000D02*
X230922700Y-79957000D01*
X230922700Y-86843000D02*
X230922700Y-84440000D01*
X230962700Y-82360000D02*
X230962700Y-79932000D01*
X230962700Y-86868000D02*
X230962700Y-84440000D01*
X231002700Y-82360000D02*
X231002700Y-79907000D01*
X231002700Y-86893000D02*
X231002700Y-84440000D01*
X231042700Y-82360000D02*
X231042700Y-79884000D01*
X231042700Y-86916000D02*
X231042700Y-84440000D01*
X231082700Y-82360000D02*
X231082700Y-79861000D01*
X231082700Y-86939000D02*
X231082700Y-84440000D01*
X231122700Y-82360000D02*
X231122700Y-79838000D01*
X231122700Y-86962000D02*
X231122700Y-84440000D01*
X231162700Y-82360000D02*
X231162700Y-79816000D01*
X231162700Y-86984000D02*
X231162700Y-84440000D01*
X231202700Y-82360000D02*
X231202700Y-79795000D01*
X231202700Y-87005000D02*
X231202700Y-84440000D01*
X231242700Y-82360000D02*
X231242700Y-79774000D01*
X231242700Y-87026000D02*
X231242700Y-84440000D01*
X231282700Y-82360000D02*
X231282700Y-79754000D01*
X231282700Y-87046000D02*
X231282700Y-84440000D01*
X231322700Y-82360000D02*
X231322700Y-79734000D01*
X231322700Y-87066000D02*
X231322700Y-84440000D01*
X231362700Y-82360000D02*
X231362700Y-79715000D01*
X231362700Y-87085000D02*
X231362700Y-84440000D01*
X231402700Y-82360000D02*
X231402700Y-79696000D01*
X231402700Y-87104000D02*
X231402700Y-84440000D01*
X231442700Y-82360000D02*
X231442700Y-79678000D01*
X231442700Y-87122000D02*
X231442700Y-84440000D01*
X231482700Y-82360000D02*
X231482700Y-79660000D01*
X231482700Y-87140000D02*
X231482700Y-84440000D01*
X231522700Y-82360000D02*
X231522700Y-79643000D01*
X231522700Y-87157000D02*
X231522700Y-84440000D01*
X231562700Y-82360000D02*
X231562700Y-79627000D01*
X231562700Y-87173000D02*
X231562700Y-84440000D01*
X231602700Y-82360000D02*
X231602700Y-79611000D01*
X231602700Y-87189000D02*
X231602700Y-84440000D01*
X231642700Y-82360000D02*
X231642700Y-79595000D01*
X231642700Y-87205000D02*
X231642700Y-84440000D01*
X231682700Y-82360000D02*
X231682700Y-79580000D01*
X231682700Y-87220000D02*
X231682700Y-84440000D01*
X231722700Y-82360000D02*
X231722700Y-79565000D01*
X231722700Y-87235000D02*
X231722700Y-84440000D01*
X231762700Y-82360000D02*
X231762700Y-79551000D01*
X231762700Y-87249000D02*
X231762700Y-84440000D01*
X231802700Y-82360000D02*
X231802700Y-79537000D01*
X231802700Y-87263000D02*
X231802700Y-84440000D01*
X231842700Y-82360000D02*
X231842700Y-79524000D01*
X231842700Y-87276000D02*
X231842700Y-84440000D01*
X231882700Y-82360000D02*
X231882700Y-79511000D01*
X231882700Y-87289000D02*
X231882700Y-84440000D01*
X231922700Y-82360000D02*
X231922700Y-79499000D01*
X231922700Y-87301000D02*
X231922700Y-84440000D01*
X231962700Y-82360000D02*
X231962700Y-79487000D01*
X231962700Y-87313000D02*
X231962700Y-84440000D01*
X232002700Y-82360000D02*
X232002700Y-79475000D01*
X232002700Y-87325000D02*
X232002700Y-84440000D01*
X232042700Y-82360000D02*
X232042700Y-79464000D01*
X232042700Y-87336000D02*
X232042700Y-84440000D01*
X232082700Y-82360000D02*
X232082700Y-79453000D01*
X232082700Y-87347000D02*
X232082700Y-84440000D01*
X232122700Y-82360000D02*
X232122700Y-79443000D01*
X232122700Y-87357000D02*
X232122700Y-84440000D01*
X232162700Y-82360000D02*
X232162700Y-79433000D01*
X232162700Y-87367000D02*
X232162700Y-84440000D01*
X232202700Y-82360000D02*
X232202700Y-79424000D01*
X232202700Y-87376000D02*
X232202700Y-84440000D01*
X232242700Y-82360000D02*
X232242700Y-79415000D01*
X232242700Y-87385000D02*
X232242700Y-84440000D01*
X232282700Y-82360000D02*
X232282700Y-79407000D01*
X232282700Y-87393000D02*
X232282700Y-84440000D01*
X232322700Y-82360000D02*
X232322700Y-79398000D01*
X232322700Y-87402000D02*
X232322700Y-84440000D01*
X232362700Y-82360000D02*
X232362700Y-79391000D01*
X232362700Y-87409000D02*
X232362700Y-84440000D01*
X232402700Y-82360000D02*
X232402700Y-79383000D01*
X232402700Y-87417000D02*
X232402700Y-84440000D01*
X232442700Y-87423000D02*
X232442700Y-79377000D01*
X232482700Y-87430000D02*
X232482700Y-79370000D01*
X232522700Y-87436000D02*
X232522700Y-79364000D01*
X232562700Y-87442000D02*
X232562700Y-79358000D01*
X232602700Y-87447000D02*
X232602700Y-79353000D01*
X232642700Y-87452000D02*
X232642700Y-79348000D01*
X232682700Y-87456000D02*
X232682700Y-79344000D01*
X232722700Y-87461000D02*
X232722700Y-79339000D01*
X232762700Y-87464000D02*
X232762700Y-79336000D01*
X232802700Y-87468000D02*
X232802700Y-79332000D01*
X232842700Y-87470000D02*
X232842700Y-79330000D01*
X232882700Y-87473000D02*
X232882700Y-79327000D01*
X232922700Y-87475000D02*
X232922700Y-79325000D01*
X232962700Y-87477000D02*
X232962700Y-79323000D01*
X233002700Y-87478000D02*
X233002700Y-79322000D01*
X233042700Y-87479000D02*
X233042700Y-79321000D01*
X233082700Y-87480000D02*
X233082700Y-79320000D01*
X233122700Y-87480000D02*
X233122700Y-79320000D01*
X237132398Y-86115000D02*
X237132398Y-85315000D01*
X237532398Y-85715000D02*
X236732398Y-85715000D01*
X237242700Y-83400000D02*
G75*
G02*
X229002700Y-83400000I-4120000J0D01*
G01*
X229002700Y-83400000D02*
G75*
G02*
X237242700Y-83400000I4120000J0D01*
G01*
%TO.C,MainPWR1*%
X83350000Y-91490000D02*
X85050000Y-91490000D01*
X83350000Y-100830000D02*
X85050000Y-100830000D01*
D13*
%TO.C,ON/OFFmodem1*%
X118900000Y-140600000D02*
G75*
G02*
X95900000Y-140600000I-11500000J0D01*
G01*
X95900000Y-140600000D02*
G75*
G02*
X118900000Y-140600000I11500000J0D01*
G01*
D14*
X119800000Y-140600000D02*
G75*
G02*
X119600000Y-140600000I-100000J0D01*
G01*
X119600000Y-140600000D02*
G75*
G02*
X119800000Y-140600000I100000J0D01*
G01*
D12*
%TO.C,DisplayPWR2*%
X195750000Y-27607500D02*
X195750000Y-27982500D01*
X195750000Y-27982500D02*
X196750000Y-27982500D01*
X196750000Y-27982500D02*
X196750000Y-37507500D01*
X196750000Y-44457500D02*
X196750000Y-41457500D01*
X197675000Y-44457500D02*
X196750000Y-44457500D01*
X206800000Y-46332500D02*
X207500000Y-46332500D01*
X209125000Y-44457500D02*
X210050000Y-44457500D01*
X210050000Y-27982500D02*
X210050000Y-37507500D01*
X210050000Y-44457500D02*
X210050000Y-41457500D01*
X211050000Y-27607500D02*
X195750000Y-27607500D01*
X211050000Y-27607500D02*
X211050000Y-27982500D01*
X211050000Y-27982500D02*
X210050000Y-27982500D01*
%TO.C,CentralFan1*%
X187020000Y-130820000D02*
X187020000Y-133580000D01*
X189670000Y-130820000D02*
X187020000Y-130820000D01*
X189670000Y-130820000D02*
X189670000Y-133580000D01*
X189670000Y-133580000D02*
X187020000Y-133580000D01*
X190940000Y-130820000D02*
X192320000Y-130820000D01*
X192320000Y-130820000D02*
X192320000Y-132200000D01*
D13*
%TO.C,ON/OFFmain1*%
X144200000Y-140600000D02*
G75*
G02*
X121200000Y-140600000I-11500000J0D01*
G01*
X121200000Y-140600000D02*
G75*
G02*
X144200000Y-140600000I11500000J0D01*
G01*
D14*
X145100000Y-140600000D02*
G75*
G02*
X144900000Y-140600000I-100000J0D01*
G01*
X144900000Y-140600000D02*
G75*
G02*
X145100000Y-140600000I100000J0D01*
G01*
D12*
%TO.C,MainPWR2*%
X155050000Y-144310000D02*
X153350000Y-144310000D01*
X155050000Y-153650000D02*
X153350000Y-153650000D01*
%TO.C,RechargeB2*%
X83250000Y-105150000D02*
X84950000Y-105150000D01*
X83250000Y-114490000D02*
X84950000Y-114490000D01*
%TO.C,J9*%
X234320000Y-103810000D02*
X234320000Y-98620000D01*
X237080000Y-98620000D02*
X234320000Y-98620000D01*
X237080000Y-103810000D02*
X234320000Y-103810000D01*
X237080000Y-103810000D02*
X237080000Y-98620000D01*
X237080000Y-105080000D02*
X237080000Y-106460000D01*
X237080000Y-106460000D02*
X235700000Y-106460000D01*
%TO.C,HeadFlat1*%
X155320000Y-28220000D02*
X155320000Y-33520000D01*
X165590000Y-28220000D02*
X155320000Y-28220000D01*
X165590000Y-28220000D02*
X165590000Y-30870000D01*
X165590000Y-30870000D02*
X168240000Y-30870000D01*
X166860000Y-28220000D02*
X168240000Y-28220000D01*
X168240000Y-28220000D02*
X168240000Y-29600000D01*
X168240000Y-30870000D02*
X168240000Y-33520000D01*
X168240000Y-33520000D02*
X155320000Y-33520000D01*
%TO.C,C3*%
X220242700Y-83933000D02*
X220242700Y-82867000D01*
X220282700Y-84168000D02*
X220282700Y-82632000D01*
X220322700Y-84347000D02*
X220322700Y-82453000D01*
X220362700Y-84497000D02*
X220362700Y-82303000D01*
X220402700Y-84628000D02*
X220402700Y-82172000D01*
X220442700Y-84746000D02*
X220442700Y-82054000D01*
X220482700Y-84853000D02*
X220482700Y-81947000D01*
X220522700Y-84952000D02*
X220522700Y-81848000D01*
X220562700Y-85044000D02*
X220562700Y-81756000D01*
X220602700Y-85131000D02*
X220602700Y-81669000D01*
X220642700Y-85213000D02*
X220642700Y-81587000D01*
X220682700Y-85290000D02*
X220682700Y-81510000D01*
X220722700Y-85364000D02*
X220722700Y-81436000D01*
X220762700Y-85434000D02*
X220762700Y-81366000D01*
X220802700Y-85501000D02*
X220802700Y-81299000D01*
X220842700Y-85565000D02*
X220842700Y-81235000D01*
X220882700Y-85627000D02*
X220882700Y-81173000D01*
X220922700Y-85687000D02*
X220922700Y-81113000D01*
X220962700Y-85744000D02*
X220962700Y-81056000D01*
X221002700Y-85800000D02*
X221002700Y-81000000D01*
X221042700Y-85853000D02*
X221042700Y-80947000D01*
X221082700Y-85905000D02*
X221082700Y-80895000D01*
X221122700Y-85955000D02*
X221122700Y-80845000D01*
X221162700Y-86004000D02*
X221162700Y-80796000D01*
X221202700Y-86051000D02*
X221202700Y-80749000D01*
X221242700Y-86096000D02*
X221242700Y-80704000D01*
X221282700Y-86141000D02*
X221282700Y-80659000D01*
X221322700Y-86184000D02*
X221322700Y-80616000D01*
X221362700Y-86226000D02*
X221362700Y-80574000D01*
X221402700Y-86267000D02*
X221402700Y-80533000D01*
X221442700Y-86306000D02*
X221442700Y-80494000D01*
X221482700Y-86345000D02*
X221482700Y-80455000D01*
X221522700Y-86382000D02*
X221522700Y-80418000D01*
X221562700Y-82360000D02*
X221562700Y-80381000D01*
X221562700Y-86419000D02*
X221562700Y-84440000D01*
X221602700Y-82360000D02*
X221602700Y-80345000D01*
X221602700Y-86455000D02*
X221602700Y-84440000D01*
X221642700Y-82360000D02*
X221642700Y-80311000D01*
X221642700Y-86489000D02*
X221642700Y-84440000D01*
X221682700Y-82360000D02*
X221682700Y-80277000D01*
X221682700Y-86523000D02*
X221682700Y-84440000D01*
X221722700Y-82360000D02*
X221722700Y-80244000D01*
X221722700Y-86556000D02*
X221722700Y-84440000D01*
X221762700Y-82360000D02*
X221762700Y-80212000D01*
X221762700Y-86588000D02*
X221762700Y-84440000D01*
X221802700Y-82360000D02*
X221802700Y-80181000D01*
X221802700Y-86619000D02*
X221802700Y-84440000D01*
X221842700Y-82360000D02*
X221842700Y-80150000D01*
X221842700Y-86650000D02*
X221842700Y-84440000D01*
X221882700Y-82360000D02*
X221882700Y-80120000D01*
X221882700Y-86680000D02*
X221882700Y-84440000D01*
X221922700Y-82360000D02*
X221922700Y-80091000D01*
X221922700Y-86709000D02*
X221922700Y-84440000D01*
X221962700Y-82360000D02*
X221962700Y-80063000D01*
X221962700Y-86737000D02*
X221962700Y-84440000D01*
X222002700Y-82360000D02*
X222002700Y-80035000D01*
X222002700Y-86765000D02*
X222002700Y-84440000D01*
X222042700Y-82360000D02*
X222042700Y-80008000D01*
X222042700Y-86792000D02*
X222042700Y-84440000D01*
X222082700Y-82360000D02*
X222082700Y-79982000D01*
X222082700Y-86818000D02*
X222082700Y-84440000D01*
X222122700Y-82360000D02*
X222122700Y-79957000D01*
X222122700Y-86843000D02*
X222122700Y-84440000D01*
X222162700Y-82360000D02*
X222162700Y-79932000D01*
X222162700Y-86868000D02*
X222162700Y-84440000D01*
X222202700Y-82360000D02*
X222202700Y-79907000D01*
X222202700Y-86893000D02*
X222202700Y-84440000D01*
X222242700Y-82360000D02*
X222242700Y-79884000D01*
X222242700Y-86916000D02*
X222242700Y-84440000D01*
X222282700Y-82360000D02*
X222282700Y-79861000D01*
X222282700Y-86939000D02*
X222282700Y-84440000D01*
X222322700Y-82360000D02*
X222322700Y-79838000D01*
X222322700Y-86962000D02*
X222322700Y-84440000D01*
X222362700Y-82360000D02*
X222362700Y-79816000D01*
X222362700Y-86984000D02*
X222362700Y-84440000D01*
X222402700Y-82360000D02*
X222402700Y-79795000D01*
X222402700Y-87005000D02*
X222402700Y-84440000D01*
X222442700Y-82360000D02*
X222442700Y-79774000D01*
X222442700Y-87026000D02*
X222442700Y-84440000D01*
X222482700Y-82360000D02*
X222482700Y-79754000D01*
X222482700Y-87046000D02*
X222482700Y-84440000D01*
X222522700Y-82360000D02*
X222522700Y-79734000D01*
X222522700Y-87066000D02*
X222522700Y-84440000D01*
X222562700Y-82360000D02*
X222562700Y-79715000D01*
X222562700Y-87085000D02*
X222562700Y-84440000D01*
X222602700Y-82360000D02*
X222602700Y-79696000D01*
X222602700Y-87104000D02*
X222602700Y-84440000D01*
X222642700Y-82360000D02*
X222642700Y-79678000D01*
X222642700Y-87122000D02*
X222642700Y-84440000D01*
X222682700Y-82360000D02*
X222682700Y-79660000D01*
X222682700Y-87140000D02*
X222682700Y-84440000D01*
X222722700Y-82360000D02*
X222722700Y-79643000D01*
X222722700Y-87157000D02*
X222722700Y-84440000D01*
X222762700Y-82360000D02*
X222762700Y-79627000D01*
X222762700Y-87173000D02*
X222762700Y-84440000D01*
X222802700Y-82360000D02*
X222802700Y-79611000D01*
X222802700Y-87189000D02*
X222802700Y-84440000D01*
X222842700Y-82360000D02*
X222842700Y-79595000D01*
X222842700Y-87205000D02*
X222842700Y-84440000D01*
X222882700Y-82360000D02*
X222882700Y-79580000D01*
X222882700Y-87220000D02*
X222882700Y-84440000D01*
X222922700Y-82360000D02*
X222922700Y-79565000D01*
X222922700Y-87235000D02*
X222922700Y-84440000D01*
X222962700Y-82360000D02*
X222962700Y-79551000D01*
X222962700Y-87249000D02*
X222962700Y-84440000D01*
X223002700Y-82360000D02*
X223002700Y-79537000D01*
X223002700Y-87263000D02*
X223002700Y-84440000D01*
X223042700Y-82360000D02*
X223042700Y-79524000D01*
X223042700Y-87276000D02*
X223042700Y-84440000D01*
X223082700Y-82360000D02*
X223082700Y-79511000D01*
X223082700Y-87289000D02*
X223082700Y-84440000D01*
X223122700Y-82360000D02*
X223122700Y-79499000D01*
X223122700Y-87301000D02*
X223122700Y-84440000D01*
X223162700Y-82360000D02*
X223162700Y-79487000D01*
X223162700Y-87313000D02*
X223162700Y-84440000D01*
X223202700Y-82360000D02*
X223202700Y-79475000D01*
X223202700Y-87325000D02*
X223202700Y-84440000D01*
X223242700Y-82360000D02*
X223242700Y-79464000D01*
X223242700Y-87336000D02*
X223242700Y-84440000D01*
X223282700Y-82360000D02*
X223282700Y-79453000D01*
X223282700Y-87347000D02*
X223282700Y-84440000D01*
X223322700Y-82360000D02*
X223322700Y-79443000D01*
X223322700Y-87357000D02*
X223322700Y-84440000D01*
X223362700Y-82360000D02*
X223362700Y-79433000D01*
X223362700Y-87367000D02*
X223362700Y-84440000D01*
X223402700Y-82360000D02*
X223402700Y-79424000D01*
X223402700Y-87376000D02*
X223402700Y-84440000D01*
X223442700Y-82360000D02*
X223442700Y-79415000D01*
X223442700Y-87385000D02*
X223442700Y-84440000D01*
X223482700Y-82360000D02*
X223482700Y-79407000D01*
X223482700Y-87393000D02*
X223482700Y-84440000D01*
X223522700Y-82360000D02*
X223522700Y-79398000D01*
X223522700Y-87402000D02*
X223522700Y-84440000D01*
X223562700Y-82360000D02*
X223562700Y-79391000D01*
X223562700Y-87409000D02*
X223562700Y-84440000D01*
X223602700Y-82360000D02*
X223602700Y-79383000D01*
X223602700Y-87417000D02*
X223602700Y-84440000D01*
X223642700Y-87423000D02*
X223642700Y-79377000D01*
X223682700Y-87430000D02*
X223682700Y-79370000D01*
X223722700Y-87436000D02*
X223722700Y-79364000D01*
X223762700Y-87442000D02*
X223762700Y-79358000D01*
X223802700Y-87447000D02*
X223802700Y-79353000D01*
X223842700Y-87452000D02*
X223842700Y-79348000D01*
X223882700Y-87456000D02*
X223882700Y-79344000D01*
X223922700Y-87461000D02*
X223922700Y-79339000D01*
X223962700Y-87464000D02*
X223962700Y-79336000D01*
X224002700Y-87468000D02*
X224002700Y-79332000D01*
X224042700Y-87470000D02*
X224042700Y-79330000D01*
X224082700Y-87473000D02*
X224082700Y-79327000D01*
X224122700Y-87475000D02*
X224122700Y-79325000D01*
X224162700Y-87477000D02*
X224162700Y-79323000D01*
X224202700Y-87478000D02*
X224202700Y-79322000D01*
X224242700Y-87479000D02*
X224242700Y-79321000D01*
X224282700Y-87480000D02*
X224282700Y-79320000D01*
X224322700Y-87480000D02*
X224322700Y-79320000D01*
X228332398Y-86115000D02*
X228332398Y-85315000D01*
X228732398Y-85715000D02*
X227932398Y-85715000D01*
X228442700Y-83400000D02*
G75*
G02*
X220202700Y-83400000I-4120000J0D01*
G01*
X220202700Y-83400000D02*
G75*
G02*
X228442700Y-83400000I4120000J0D01*
G01*
%TO.C,PeripheralsPWR1*%
X70407500Y-65850000D02*
X70407500Y-81150000D01*
X70407500Y-65850000D02*
X70782500Y-65850000D01*
X70407500Y-81150000D02*
X70782500Y-81150000D01*
X70782500Y-65850000D02*
X70782500Y-66850000D01*
X70782500Y-66850000D02*
X80307500Y-66850000D01*
X70782500Y-80150000D02*
X80307500Y-80150000D01*
X70782500Y-81150000D02*
X70782500Y-80150000D01*
X87257500Y-66850000D02*
X84257500Y-66850000D01*
X87257500Y-67775000D02*
X87257500Y-66850000D01*
X87257500Y-79225000D02*
X87257500Y-80150000D01*
X87257500Y-80150000D02*
X84257500Y-80150000D01*
X89132500Y-70100000D02*
X89132500Y-69400000D01*
%TO.C,R3*%
X222710000Y-70050000D02*
X223400000Y-70050000D01*
X223400000Y-68330000D02*
X223400000Y-71770000D01*
X223400000Y-71770000D02*
X232640000Y-71770000D01*
X232640000Y-68330000D02*
X223400000Y-68330000D01*
X232640000Y-71770000D02*
X232640000Y-68330000D01*
X233330000Y-70050000D02*
X232640000Y-70050000D01*
D13*
%TO.C,ON/OFFperipherals1*%
X93000000Y-140900000D02*
G75*
G02*
X70000000Y-140900000I-11500000J0D01*
G01*
X70000000Y-140900000D02*
G75*
G02*
X93000000Y-140900000I11500000J0D01*
G01*
D14*
X93900000Y-140900000D02*
G75*
G02*
X93700000Y-140900000I-100000J0D01*
G01*
X93700000Y-140900000D02*
G75*
G02*
X93900000Y-140900000I100000J0D01*
G01*
D12*
%TO.C,C2*%
X220242700Y-93333000D02*
X220242700Y-92267000D01*
X220282700Y-93568000D02*
X220282700Y-92032000D01*
X220322700Y-93747000D02*
X220322700Y-91853000D01*
X220362700Y-93897000D02*
X220362700Y-91703000D01*
X220402700Y-94028000D02*
X220402700Y-91572000D01*
X220442700Y-94146000D02*
X220442700Y-91454000D01*
X220482700Y-94253000D02*
X220482700Y-91347000D01*
X220522700Y-94352000D02*
X220522700Y-91248000D01*
X220562700Y-94444000D02*
X220562700Y-91156000D01*
X220602700Y-94531000D02*
X220602700Y-91069000D01*
X220642700Y-94613000D02*
X220642700Y-90987000D01*
X220682700Y-94690000D02*
X220682700Y-90910000D01*
X220722700Y-94764000D02*
X220722700Y-90836000D01*
X220762700Y-94834000D02*
X220762700Y-90766000D01*
X220802700Y-94901000D02*
X220802700Y-90699000D01*
X220842700Y-94965000D02*
X220842700Y-90635000D01*
X220882700Y-95027000D02*
X220882700Y-90573000D01*
X220922700Y-95087000D02*
X220922700Y-90513000D01*
X220962700Y-95144000D02*
X220962700Y-90456000D01*
X221002700Y-95200000D02*
X221002700Y-90400000D01*
X221042700Y-95253000D02*
X221042700Y-90347000D01*
X221082700Y-95305000D02*
X221082700Y-90295000D01*
X221122700Y-95355000D02*
X221122700Y-90245000D01*
X221162700Y-95404000D02*
X221162700Y-90196000D01*
X221202700Y-95451000D02*
X221202700Y-90149000D01*
X221242700Y-95496000D02*
X221242700Y-90104000D01*
X221282700Y-95541000D02*
X221282700Y-90059000D01*
X221322700Y-95584000D02*
X221322700Y-90016000D01*
X221362700Y-95626000D02*
X221362700Y-89974000D01*
X221402700Y-95667000D02*
X221402700Y-89933000D01*
X221442700Y-95706000D02*
X221442700Y-89894000D01*
X221482700Y-95745000D02*
X221482700Y-89855000D01*
X221522700Y-95782000D02*
X221522700Y-89818000D01*
X221562700Y-91760000D02*
X221562700Y-89781000D01*
X221562700Y-95819000D02*
X221562700Y-93840000D01*
X221602700Y-91760000D02*
X221602700Y-89745000D01*
X221602700Y-95855000D02*
X221602700Y-93840000D01*
X221642700Y-91760000D02*
X221642700Y-89711000D01*
X221642700Y-95889000D02*
X221642700Y-93840000D01*
X221682700Y-91760000D02*
X221682700Y-89677000D01*
X221682700Y-95923000D02*
X221682700Y-93840000D01*
X221722700Y-91760000D02*
X221722700Y-89644000D01*
X221722700Y-95956000D02*
X221722700Y-93840000D01*
X221762700Y-91760000D02*
X221762700Y-89612000D01*
X221762700Y-95988000D02*
X221762700Y-93840000D01*
X221802700Y-91760000D02*
X221802700Y-89581000D01*
X221802700Y-96019000D02*
X221802700Y-93840000D01*
X221842700Y-91760000D02*
X221842700Y-89550000D01*
X221842700Y-96050000D02*
X221842700Y-93840000D01*
X221882700Y-91760000D02*
X221882700Y-89520000D01*
X221882700Y-96080000D02*
X221882700Y-93840000D01*
X221922700Y-91760000D02*
X221922700Y-89491000D01*
X221922700Y-96109000D02*
X221922700Y-93840000D01*
X221962700Y-91760000D02*
X221962700Y-89463000D01*
X221962700Y-96137000D02*
X221962700Y-93840000D01*
X222002700Y-91760000D02*
X222002700Y-89435000D01*
X222002700Y-96165000D02*
X222002700Y-93840000D01*
X222042700Y-91760000D02*
X222042700Y-89408000D01*
X222042700Y-96192000D02*
X222042700Y-93840000D01*
X222082700Y-91760000D02*
X222082700Y-89382000D01*
X222082700Y-96218000D02*
X222082700Y-93840000D01*
X222122700Y-91760000D02*
X222122700Y-89357000D01*
X222122700Y-96243000D02*
X222122700Y-93840000D01*
X222162700Y-91760000D02*
X222162700Y-89332000D01*
X222162700Y-96268000D02*
X222162700Y-93840000D01*
X222202700Y-91760000D02*
X222202700Y-89307000D01*
X222202700Y-96293000D02*
X222202700Y-93840000D01*
X222242700Y-91760000D02*
X222242700Y-89284000D01*
X222242700Y-96316000D02*
X222242700Y-93840000D01*
X222282700Y-91760000D02*
X222282700Y-89261000D01*
X222282700Y-96339000D02*
X222282700Y-93840000D01*
X222322700Y-91760000D02*
X222322700Y-89238000D01*
X222322700Y-96362000D02*
X222322700Y-93840000D01*
X222362700Y-91760000D02*
X222362700Y-89216000D01*
X222362700Y-96384000D02*
X222362700Y-93840000D01*
X222402700Y-91760000D02*
X222402700Y-89195000D01*
X222402700Y-96405000D02*
X222402700Y-93840000D01*
X222442700Y-91760000D02*
X222442700Y-89174000D01*
X222442700Y-96426000D02*
X222442700Y-93840000D01*
X222482700Y-91760000D02*
X222482700Y-89154000D01*
X222482700Y-96446000D02*
X222482700Y-93840000D01*
X222522700Y-91760000D02*
X222522700Y-89134000D01*
X222522700Y-96466000D02*
X222522700Y-93840000D01*
X222562700Y-91760000D02*
X222562700Y-89115000D01*
X222562700Y-96485000D02*
X222562700Y-93840000D01*
X222602700Y-91760000D02*
X222602700Y-89096000D01*
X222602700Y-96504000D02*
X222602700Y-93840000D01*
X222642700Y-91760000D02*
X222642700Y-89078000D01*
X222642700Y-96522000D02*
X222642700Y-93840000D01*
X222682700Y-91760000D02*
X222682700Y-89060000D01*
X222682700Y-96540000D02*
X222682700Y-93840000D01*
X222722700Y-91760000D02*
X222722700Y-89043000D01*
X222722700Y-96557000D02*
X222722700Y-93840000D01*
X222762700Y-91760000D02*
X222762700Y-89027000D01*
X222762700Y-96573000D02*
X222762700Y-93840000D01*
X222802700Y-91760000D02*
X222802700Y-89011000D01*
X222802700Y-96589000D02*
X222802700Y-93840000D01*
X222842700Y-91760000D02*
X222842700Y-88995000D01*
X222842700Y-96605000D02*
X222842700Y-93840000D01*
X222882700Y-91760000D02*
X222882700Y-88980000D01*
X222882700Y-96620000D02*
X222882700Y-93840000D01*
X222922700Y-91760000D02*
X222922700Y-88965000D01*
X222922700Y-96635000D02*
X222922700Y-93840000D01*
X222962700Y-91760000D02*
X222962700Y-88951000D01*
X222962700Y-96649000D02*
X222962700Y-93840000D01*
X223002700Y-91760000D02*
X223002700Y-88937000D01*
X223002700Y-96663000D02*
X223002700Y-93840000D01*
X223042700Y-91760000D02*
X223042700Y-88924000D01*
X223042700Y-96676000D02*
X223042700Y-93840000D01*
X223082700Y-91760000D02*
X223082700Y-88911000D01*
X223082700Y-96689000D02*
X223082700Y-93840000D01*
X223122700Y-91760000D02*
X223122700Y-88899000D01*
X223122700Y-96701000D02*
X223122700Y-93840000D01*
X223162700Y-91760000D02*
X223162700Y-88887000D01*
X223162700Y-96713000D02*
X223162700Y-93840000D01*
X223202700Y-91760000D02*
X223202700Y-88875000D01*
X223202700Y-96725000D02*
X223202700Y-93840000D01*
X223242700Y-91760000D02*
X223242700Y-88864000D01*
X223242700Y-96736000D02*
X223242700Y-93840000D01*
X223282700Y-91760000D02*
X223282700Y-88853000D01*
X223282700Y-96747000D02*
X223282700Y-93840000D01*
X223322700Y-91760000D02*
X223322700Y-88843000D01*
X223322700Y-96757000D02*
X223322700Y-93840000D01*
X223362700Y-91760000D02*
X223362700Y-88833000D01*
X223362700Y-96767000D02*
X223362700Y-93840000D01*
X223402700Y-91760000D02*
X223402700Y-88824000D01*
X223402700Y-96776000D02*
X223402700Y-93840000D01*
X223442700Y-91760000D02*
X223442700Y-88815000D01*
X223442700Y-96785000D02*
X223442700Y-93840000D01*
X223482700Y-91760000D02*
X223482700Y-88807000D01*
X223482700Y-96793000D02*
X223482700Y-93840000D01*
X223522700Y-91760000D02*
X223522700Y-88798000D01*
X223522700Y-96802000D02*
X223522700Y-93840000D01*
X223562700Y-91760000D02*
X223562700Y-88791000D01*
X223562700Y-96809000D02*
X223562700Y-93840000D01*
X223602700Y-91760000D02*
X223602700Y-88783000D01*
X223602700Y-96817000D02*
X223602700Y-93840000D01*
X223642700Y-96823000D02*
X223642700Y-88777000D01*
X223682700Y-96830000D02*
X223682700Y-88770000D01*
X223722700Y-96836000D02*
X223722700Y-88764000D01*
X223762700Y-96842000D02*
X223762700Y-88758000D01*
X223802700Y-96847000D02*
X223802700Y-88753000D01*
X223842700Y-96852000D02*
X223842700Y-88748000D01*
X223882700Y-96856000D02*
X223882700Y-88744000D01*
X223922700Y-96861000D02*
X223922700Y-88739000D01*
X223962700Y-96864000D02*
X223962700Y-88736000D01*
X224002700Y-96868000D02*
X224002700Y-88732000D01*
X224042700Y-96870000D02*
X224042700Y-88730000D01*
X224082700Y-96873000D02*
X224082700Y-88727000D01*
X224122700Y-96875000D02*
X224122700Y-88725000D01*
X224162700Y-96877000D02*
X224162700Y-88723000D01*
X224202700Y-96878000D02*
X224202700Y-88722000D01*
X224242700Y-96879000D02*
X224242700Y-88721000D01*
X224282700Y-96880000D02*
X224282700Y-88720000D01*
X224322700Y-96880000D02*
X224322700Y-88720000D01*
X228332398Y-95515000D02*
X228332398Y-94715000D01*
X228732398Y-95115000D02*
X227932398Y-95115000D01*
X228442700Y-92800000D02*
G75*
G02*
X220202700Y-92800000I-4120000J0D01*
G01*
X220202700Y-92800000D02*
G75*
G02*
X228442700Y-92800000I4120000J0D01*
G01*
%TO.C,RechargeB1*%
X111710000Y-36750000D02*
X111710000Y-38450000D01*
X121050000Y-36750000D02*
X121050000Y-38450000D01*
%TO.C,ModemPWR1*%
X70407500Y-48150000D02*
X70407500Y-63450000D01*
X70407500Y-48150000D02*
X70782500Y-48150000D01*
X70407500Y-63450000D02*
X70782500Y-63450000D01*
X70782500Y-48150000D02*
X70782500Y-49150000D01*
X70782500Y-49150000D02*
X80307500Y-49150000D01*
X70782500Y-62450000D02*
X80307500Y-62450000D01*
X70782500Y-63450000D02*
X70782500Y-62450000D01*
X87257500Y-49150000D02*
X84257500Y-49150000D01*
X87257500Y-50075000D02*
X87257500Y-49150000D01*
X87257500Y-61525000D02*
X87257500Y-62450000D01*
X87257500Y-62450000D02*
X84257500Y-62450000D01*
X89132500Y-52400000D02*
X89132500Y-51700000D01*
%TO.C,R1*%
X190940000Y-137700000D02*
X191630000Y-137700000D01*
X191630000Y-135980000D02*
X191630000Y-139420000D01*
X191630000Y-139420000D02*
X200870000Y-139420000D01*
X200870000Y-135980000D02*
X191630000Y-135980000D01*
X200870000Y-139420000D02*
X200870000Y-135980000D01*
X201560000Y-137700000D02*
X200870000Y-137700000D01*
%TO.C,J12*%
X220550000Y-103810000D02*
X220550000Y-98620000D01*
X223310000Y-98620000D02*
X220550000Y-98620000D01*
X223310000Y-103810000D02*
X220550000Y-103810000D01*
X223310000Y-103810000D02*
X223310000Y-98620000D01*
X223310000Y-105080000D02*
X223310000Y-106460000D01*
X223310000Y-106460000D02*
X221930000Y-106460000D01*
%TO.C,J7*%
X238190000Y-96030000D02*
X238190000Y-94700000D01*
X239300000Y-96030000D02*
X238190000Y-96030000D01*
X240760000Y-76560000D02*
X240350000Y-76560000D01*
X240760000Y-77280000D02*
X240350000Y-77280000D01*
X240760000Y-79100000D02*
X240350000Y-79100000D01*
X240760000Y-79820000D02*
X240350000Y-79820000D01*
X240760000Y-81640000D02*
X240350000Y-81640000D01*
X240760000Y-82360000D02*
X240350000Y-82360000D01*
X240760000Y-84180000D02*
X240350000Y-84180000D01*
X240760000Y-84900000D02*
X240350000Y-84900000D01*
X240760000Y-86720000D02*
X240350000Y-86720000D01*
X240760000Y-87440000D02*
X240350000Y-87440000D01*
X240760000Y-89260000D02*
X240350000Y-89260000D01*
X240760000Y-89980000D02*
X240350000Y-89980000D01*
X240760000Y-91800000D02*
X240350000Y-91800000D01*
X240760000Y-92520000D02*
X240350000Y-92520000D01*
X240760000Y-94340000D02*
X240410000Y-94340000D01*
X240760000Y-95060000D02*
X240410000Y-95060000D01*
X240760000Y-96030000D02*
X240760000Y-75590000D01*
X249390000Y-75590000D02*
X240760000Y-75590000D01*
X249390000Y-78190000D02*
X240760000Y-78190000D01*
X249390000Y-80730000D02*
X240760000Y-80730000D01*
X249390000Y-83270000D02*
X240760000Y-83270000D01*
X249390000Y-85810000D02*
X240760000Y-85810000D01*
X249390000Y-88350000D02*
X240760000Y-88350000D01*
X249390000Y-90890000D02*
X240760000Y-90890000D01*
X249390000Y-93430000D02*
X240760000Y-93430000D01*
X249390000Y-93548100D02*
X240760000Y-93548100D01*
X249390000Y-93666195D02*
X240760000Y-93666195D01*
X249390000Y-93784290D02*
X240760000Y-93784290D01*
X249390000Y-93902385D02*
X240760000Y-93902385D01*
X249390000Y-94020480D02*
X240760000Y-94020480D01*
X249390000Y-94138575D02*
X240760000Y-94138575D01*
X249390000Y-94256670D02*
X240760000Y-94256670D01*
X249390000Y-94374765D02*
X240760000Y-94374765D01*
X249390000Y-94492860D02*
X240760000Y-94492860D01*
X249390000Y-94610955D02*
X240760000Y-94610955D01*
X249390000Y-94729050D02*
X240760000Y-94729050D01*
X249390000Y-94847145D02*
X240760000Y-94847145D01*
X249390000Y-94965240D02*
X240760000Y-94965240D01*
X249390000Y-95083335D02*
X240760000Y-95083335D01*
X249390000Y-95201430D02*
X240760000Y-95201430D01*
X249390000Y-95319525D02*
X240760000Y-95319525D01*
X249390000Y-95437620D02*
X240760000Y-95437620D01*
X249390000Y-95555715D02*
X240760000Y-95555715D01*
X249390000Y-95673810D02*
X240760000Y-95673810D01*
X249390000Y-95791905D02*
X240760000Y-95791905D01*
X249390000Y-95910000D02*
X240760000Y-95910000D01*
X249390000Y-96030000D02*
X240760000Y-96030000D01*
X249390000Y-96030000D02*
X249390000Y-75590000D01*
%TO.C,Modem1*%
X131650000Y-27375000D02*
X131650000Y-27750000D01*
X131650000Y-27750000D02*
X132650000Y-27750000D01*
X132650000Y-27750000D02*
X132650000Y-37275000D01*
X132650000Y-44225000D02*
X132650000Y-41225000D01*
X133575000Y-44225000D02*
X132650000Y-44225000D01*
X142700000Y-46100000D02*
X143400000Y-46100000D01*
X145025000Y-44225000D02*
X145950000Y-44225000D01*
X145950000Y-27750000D02*
X145950000Y-37275000D01*
X145950000Y-44225000D02*
X145950000Y-41225000D01*
X146950000Y-27375000D02*
X131650000Y-27375000D01*
X146950000Y-27375000D02*
X146950000Y-27750000D01*
X146950000Y-27750000D02*
X145950000Y-27750000D01*
%TO.C,CentralLEDs1*%
X195380000Y-130820000D02*
X195380000Y-133580000D01*
X200570000Y-130820000D02*
X195380000Y-130820000D01*
X200570000Y-130820000D02*
X200570000Y-133580000D01*
X200570000Y-133580000D02*
X195380000Y-133580000D01*
X201840000Y-130820000D02*
X203220000Y-130820000D01*
X203220000Y-130820000D02*
X203220000Y-132200000D01*
%TO.C,J8*%
X238910000Y-103810000D02*
X238910000Y-98620000D01*
X241670000Y-98620000D02*
X238910000Y-98620000D01*
X241670000Y-103810000D02*
X238910000Y-103810000D01*
X241670000Y-103810000D02*
X241670000Y-98620000D01*
X241670000Y-105080000D02*
X241670000Y-106460000D01*
X241670000Y-106460000D02*
X240290000Y-106460000D01*
%TD*%
M02*
