%TF.GenerationSoftware,KiCad,Pcbnew,9.0.1*%
%TF.CreationDate,2025-06-13T13:21:01-03:00*%
%TF.ProjectId,DYNAMO-PCB,44594e41-4d4f-42d5-9043-422e6b696361,rev?*%
%TF.SameCoordinates,Original*%
%TF.FileFunction,Copper,L2,Bot*%
%TF.FilePolarity,Positive*%
%FSLAX46Y46*%
G04 Gerber Fmt 4.6, Leading zero omitted, Abs format (unit mm)*
G04 Created by KiCad (PCBNEW 9.0.1) date 2025-06-13 13:21:01*
%MOMM*%
%LPD*%
G01*
G04 APERTURE LIST*
%TA.AperFunction,ComponentPad*%
%ADD10R,1.700000X1.700000*%
%TD*%
%TA.AperFunction,ComponentPad*%
%ADD11C,1.700000*%
%TD*%
%TA.AperFunction,ComponentPad*%
%ADD12C,1.600000*%
%TD*%
%TA.AperFunction,ComponentPad*%
%ADD13O,1.600000X1.600000*%
%TD*%
%TA.AperFunction,ComponentPad*%
%ADD14R,1.600000X1.600000*%
%TD*%
%TA.AperFunction,HeatsinkPad*%
%ADD15O,2.520000X3.400000*%
%TD*%
%TA.AperFunction,HeatsinkPad*%
%ADD16O,1.100000X1.700000*%
%TD*%
%TA.AperFunction,ComponentPad*%
%ADD17R,2.000000X2.000000*%
%TD*%
%TA.AperFunction,ComponentPad*%
%ADD18C,2.000000*%
%TD*%
%TA.AperFunction,HeatsinkPad*%
%ADD19O,1.700000X1.100000*%
%TD*%
%TA.AperFunction,ComponentPad*%
%ADD20O,3.260000X6.520000*%
%TD*%
%TA.AperFunction,HeatsinkPad*%
%ADD21O,3.400000X2.520000*%
%TD*%
%TA.AperFunction,WasherPad*%
%ADD22C,5.600000*%
%TD*%
%TA.AperFunction,WasherPad*%
%ADD23C,6.000000*%
%TD*%
%TA.AperFunction,ViaPad*%
%ADD24C,0.600000*%
%TD*%
%TA.AperFunction,Conductor*%
%ADD25C,0.500000*%
%TD*%
G04 APERTURE END LIST*
D10*
%TO.P,J33,1,Pin_1*%
%TO.N,Net-(J33-Pin_1)*%
X237980000Y-72340000D03*
D11*
%TO.P,J33,2,Pin_2*%
%TO.N,Net-(J33-Pin_2)*%
X237980000Y-69800000D03*
%TO.P,J33,3,Pin_3*%
%TO.N,Net-(J10-Pin_3)*%
X240520000Y-72340000D03*
%TO.P,J33,4,Pin_4*%
%TO.N,Net-(J33-Pin_4)*%
X240520000Y-69800000D03*
%TO.P,J33,5,Pin_5*%
%TO.N,Net-(J33-Pin_5)*%
X243060000Y-72340000D03*
%TO.P,J33,6,Pin_6*%
%TO.N,Net-(J33-Pin_6)*%
X243060000Y-69800000D03*
%TO.P,J33,7,Pin_7*%
%TO.N,Net-(J33-Pin_7)*%
X245600000Y-72340000D03*
%TO.P,J33,8,Pin_8*%
%TO.N,Net-(J33-Pin_8)*%
X245600000Y-69800000D03*
%TO.P,J33,9,Pin_9*%
%TO.N,Net-(J10-Pin_1)*%
X248140000Y-72340000D03*
%TO.P,J33,10,Pin_10*%
%TO.N,Net-(J10-Pin_2)*%
X248140000Y-69800000D03*
%TD*%
D10*
%TO.P,J6,1,Pin_1*%
%TO.N,Net-(J10-Pin_1)*%
X244880000Y-105080000D03*
D11*
%TO.P,J6,2,Pin_2*%
%TO.N,Net-(J10-Pin_2)*%
X244880000Y-102540000D03*
%TO.P,J6,3,Pin_3*%
%TO.N,Net-(J33-Pin_8)*%
X244880000Y-100000000D03*
%TD*%
D10*
%TO.P,J10,1,Pin_1*%
%TO.N,Net-(J10-Pin_1)*%
X231110000Y-105080000D03*
D11*
%TO.P,J10,2,Pin_2*%
%TO.N,Net-(J10-Pin_2)*%
X231110000Y-102540000D03*
%TO.P,J10,3,Pin_3*%
%TO.N,Net-(J10-Pin_3)*%
X231110000Y-100000000D03*
%TD*%
D12*
%TO.P,R2,1*%
%TO.N,Net-(J33-Pin_2)*%
X234350000Y-74400000D03*
D13*
%TO.P,R2,2*%
%TO.N,Net-(J11-Pin_2)*%
X221650000Y-74400000D03*
%TD*%
D14*
%TO.P,C4,1*%
%TO.N,Net-(J10-Pin_2)*%
X234872700Y-92700000D03*
D12*
%TO.P,C4,2*%
%TO.N,Net-(J10-Pin_1)*%
X231372700Y-92700000D03*
%TD*%
D10*
%TO.P,J5,1,Pin_1*%
%TO.N,Net-(J10-Pin_1)*%
X248700000Y-102540000D03*
D11*
%TO.P,J5,2,Pin_2*%
%TO.N,Net-(J10-Pin_2)*%
X248700000Y-100000000D03*
%TD*%
D15*
%TO.P,DisplayPWR1,10,SHIELD*%
%TO.N,Net-(DisplayPWR1-SHIELD)*%
X189500000Y-39482500D03*
X175900000Y-39482500D03*
%TD*%
D16*
%TO.P,RechargeA1,S1,SHIELD*%
%TO.N,Net-(MainPWR1-SHIELD)*%
X104780000Y-39500000D03*
X104780000Y-35700000D03*
X96140000Y-39500000D03*
X96140000Y-35700000D03*
%TD*%
D17*
%TO.P,C1,1*%
%TO.N,/Power Distribution/+5V peripherals*%
X211700000Y-132200000D03*
D18*
%TO.P,C1,2*%
%TO.N,GND*%
X211700000Y-137200000D03*
%TD*%
D10*
%TO.P,J11,1,Pin_1*%
%TO.N,Net-(J10-Pin_1)*%
X226520000Y-105080000D03*
D11*
%TO.P,J11,2,Pin_2*%
%TO.N,Net-(J11-Pin_2)*%
X226520000Y-102540000D03*
%TO.P,J11,3,Pin_3*%
%TO.N,Net-(J10-Pin_2)*%
X226520000Y-100000000D03*
%TD*%
D14*
%TO.P,C5,1*%
%TO.N,Net-(J10-Pin_2)*%
X234872700Y-83400000D03*
D12*
%TO.P,C5,2*%
%TO.N,Net-(J10-Pin_1)*%
X231372700Y-83400000D03*
%TD*%
D19*
%TO.P,MainPWR1,S1,SHIELD*%
%TO.N,Net-(MainPWR1-SHIELD)*%
X86100000Y-91840000D03*
X82300000Y-91840000D03*
X86100000Y-100480000D03*
X82300000Y-100480000D03*
%TD*%
D20*
%TO.P,ON/OFFmodem1,1*%
%TO.N,Net-(Modem1-VBUS)*%
X114400000Y-140600000D03*
%TO.P,ON/OFFmodem1,2*%
%TO.N,Net-(ModemPWR1-VBUS)*%
X107400000Y-140600000D03*
%TD*%
D15*
%TO.P,DisplayPWR2,10,SHIELD*%
%TO.N,Net-(DisplayPWR1-SHIELD)*%
X210200000Y-39482500D03*
X196600000Y-39482500D03*
%TD*%
D10*
%TO.P,CentralFan1,1,Pin_1*%
%TO.N,/Power Distribution/+5V peripherals*%
X190940000Y-132200000D03*
D11*
%TO.P,CentralFan1,2,Pin_2*%
%TO.N,GND*%
X188400000Y-132200000D03*
%TD*%
D20*
%TO.P,ON/OFFmain1,1*%
%TO.N,Net-(MainPWR2-VBUS-PadA9)*%
X139700000Y-140600000D03*
%TO.P,ON/OFFmain1,2*%
%TO.N,Net-(MainPWR1-VBUS-PadA9)*%
X132700000Y-140600000D03*
%TD*%
D19*
%TO.P,MainPWR2,S1,SHIELD*%
%TO.N,Net-(MainPWR1-SHIELD)*%
X152300000Y-153300000D03*
X156100000Y-153300000D03*
X152300000Y-144660000D03*
X156100000Y-144660000D03*
%TD*%
%TO.P,RechargeB2,S1,SHIELD*%
%TO.N,Net-(RechargeB1-SHIELD)*%
X86000000Y-105500000D03*
X82200000Y-105500000D03*
X86000000Y-114140000D03*
X82200000Y-114140000D03*
%TD*%
D10*
%TO.P,J9,1,Pin_1*%
%TO.N,Net-(J10-Pin_1)*%
X235700000Y-105080000D03*
D11*
%TO.P,J9,2,Pin_2*%
%TO.N,Net-(J10-Pin_2)*%
X235700000Y-102540000D03*
%TO.P,J9,3,Pin_3*%
%TO.N,Net-(J33-Pin_6)*%
X235700000Y-100000000D03*
%TD*%
D10*
%TO.P,HeadFlat1,1,Pin_1*%
%TO.N,Net-(A1A-D8)*%
X166860000Y-29600000D03*
D11*
%TO.P,HeadFlat1,2,Pin_2*%
%TO.N,Net-(A1A-D7)*%
X166860000Y-32140000D03*
%TO.P,HeadFlat1,3,Pin_3*%
%TO.N,Net-(A1A-D9)*%
X164320000Y-29600000D03*
%TO.P,HeadFlat1,4,Pin_4*%
%TO.N,Net-(A1A-D3{slash}SCL)*%
X164320000Y-32140000D03*
%TO.P,HeadFlat1,5,Pin_5*%
%TO.N,Net-(A1A-D2{slash}SDA)*%
X161780000Y-29600000D03*
%TO.P,HeadFlat1,6,Pin_6*%
%TO.N,Net-(A1A-D10)*%
X161780000Y-32140000D03*
%TO.P,HeadFlat1,7,Pin_7*%
%TO.N,Net-(A1A-D11)*%
X159240000Y-29600000D03*
%TO.P,HeadFlat1,8,Pin_8*%
%TO.N,Net-(A1A-D13)*%
X159240000Y-32140000D03*
%TO.P,HeadFlat1,9,Pin_9*%
%TO.N,GND*%
X156700000Y-29600000D03*
%TO.P,HeadFlat1,10,Pin_10*%
%TO.N,/Power Distribution/+5V peripherals*%
X156700000Y-32140000D03*
%TD*%
D14*
%TO.P,C3,1*%
%TO.N,Net-(J10-Pin_2)*%
X226072700Y-83400000D03*
D12*
%TO.P,C3,2*%
%TO.N,Net-(J10-Pin_1)*%
X222572700Y-83400000D03*
%TD*%
D21*
%TO.P,PeripheralsPWR1,10,SHIELD*%
%TO.N,Net-(DisplayPWR1-SHIELD)*%
X82282500Y-66700000D03*
X82282500Y-80300000D03*
%TD*%
D12*
%TO.P,R3,1*%
%TO.N,Net-(J33-Pin_1)*%
X234370000Y-70050000D03*
D13*
%TO.P,R3,2*%
%TO.N,Net-(J12-Pin_2)*%
X221670000Y-70050000D03*
%TD*%
D20*
%TO.P,ON/OFFperipherals1,1*%
%TO.N,/Power Distribution/+5V peripherals*%
X88500000Y-140900000D03*
%TO.P,ON/OFFperipherals1,2*%
%TO.N,Net-(PeripheralsPWR1-VBUS)*%
X81500000Y-140900000D03*
%TD*%
D14*
%TO.P,C2,1*%
%TO.N,Net-(J10-Pin_2)*%
X226072700Y-92800000D03*
D12*
%TO.P,C2,2*%
%TO.N,Net-(J10-Pin_1)*%
X222572700Y-92800000D03*
%TD*%
D16*
%TO.P,RechargeB1,S1,SHIELD*%
%TO.N,Net-(RechargeB1-SHIELD)*%
X120700000Y-39500000D03*
X120700000Y-35700000D03*
X112060000Y-39500000D03*
X112060000Y-35700000D03*
%TD*%
D21*
%TO.P,ModemPWR1,10,SHIELD*%
%TO.N,Net-(Modem1-SHIELD)*%
X82282500Y-49000000D03*
X82282500Y-62600000D03*
%TD*%
D12*
%TO.P,R1,1*%
%TO.N,Net-(A1A-D6)*%
X202600000Y-137700000D03*
D13*
%TO.P,R1,2*%
%TO.N,Net-(CentralLEDs1-Pin_2)*%
X189900000Y-137700000D03*
%TD*%
D10*
%TO.P,J12,1,Pin_1*%
%TO.N,Net-(J10-Pin_2)*%
X221930000Y-105080000D03*
D11*
%TO.P,J12,2,Pin_2*%
%TO.N,Net-(J12-Pin_2)*%
X221930000Y-102540000D03*
%TO.P,J12,3,Pin_3*%
%TO.N,Net-(J10-Pin_2)*%
X221930000Y-100000000D03*
%TD*%
D10*
%TO.P,J7,1,Pin_1*%
%TO.N,Net-(J10-Pin_2)*%
X239300000Y-94700000D03*
D11*
%TO.P,J7,2,Pin_2*%
%TO.N,Net-(J10-Pin_1)*%
X239300000Y-92160000D03*
%TO.P,J7,3,Pin_3*%
%TO.N,Net-(J33-Pin_4)*%
X239300000Y-89620000D03*
%TO.P,J7,4,Pin_4*%
%TO.N,Net-(J33-Pin_5)*%
X239300000Y-87080000D03*
%TO.P,J7,5,Pin_5*%
%TO.N,unconnected-(J7-Pin_5-Pad5)*%
X239300000Y-84540000D03*
%TO.P,J7,6,Pin_6*%
%TO.N,unconnected-(J7-Pin_6-Pad6)*%
X239300000Y-82000000D03*
%TO.P,J7,7,Pin_7*%
%TO.N,unconnected-(J7-Pin_7-Pad7)*%
X239300000Y-79460000D03*
%TO.P,J7,8,Pin_8*%
%TO.N,unconnected-(J7-Pin_8-Pad8)*%
X239300000Y-76920000D03*
%TD*%
D15*
%TO.P,Modem1,10,SHIELD*%
%TO.N,Net-(Modem1-SHIELD)*%
X146100000Y-39250000D03*
X132500000Y-39250000D03*
%TD*%
D10*
%TO.P,CentralLEDs1,1,Pin_1*%
%TO.N,/Power Distribution/+5V peripherals*%
X201840000Y-132200000D03*
D11*
%TO.P,CentralLEDs1,2,Pin_2*%
%TO.N,Net-(CentralLEDs1-Pin_2)*%
X199300000Y-132200000D03*
%TO.P,CentralLEDs1,3,Pin_3*%
%TO.N,GND*%
X196760000Y-132200000D03*
%TD*%
D10*
%TO.P,J8,1,Pin_1*%
%TO.N,Net-(J10-Pin_1)*%
X240290000Y-105080000D03*
D11*
%TO.P,J8,2,Pin_2*%
%TO.N,Net-(J10-Pin_2)*%
X240290000Y-102540000D03*
%TO.P,J8,3,Pin_3*%
%TO.N,Net-(J33-Pin_7)*%
X240290000Y-100000000D03*
%TD*%
D22*
%TO.P,A1,*%
%TO.N,*%
X214500000Y-52150000D03*
D23*
X96500000Y-52150000D03*
X214500000Y-123150000D03*
X96500000Y-123150000D03*
D11*
%TO.P,A1,1,+5V*%
%TO.N,unconnected-(A1A-+5V-Pad1)*%
X119965000Y-52380000D03*
%TO.P,A1,2,GND*%
%TO.N,unconnected-(A1A-GND-Pad2)*%
X119965000Y-54920000D03*
%TO.P,A1,3,+5V*%
%TO.N,unconnected-(A1A-+5V-Pad3)*%
X122505000Y-52380000D03*
%TO.P,A1,4,GND*%
%TO.N,unconnected-(A1A-GND-Pad4)*%
X122505000Y-54920000D03*
%TO.P,A1,5,A2*%
%TO.N,unconnected-(A1A-A2-Pad5)*%
X125045000Y-52380000D03*
%TO.P,A1,6,A5*%
%TO.N,unconnected-(A1A-A5-Pad6)*%
X125045000Y-54920000D03*
%TO.P,A1,7,A1*%
%TO.N,unconnected-(A1A-A1-Pad7)*%
X127585000Y-52380000D03*
%TO.P,A1,8,A4*%
%TO.N,unconnected-(A1A-A4-Pad8)*%
X127585000Y-54920000D03*
%TO.P,A1,9,A0*%
%TO.N,unconnected-(A1A-A0-Pad9)*%
X130125000Y-52380000D03*
%TO.P,A1,10,A3*%
%TO.N,unconnected-(A1A-A3-Pad10)*%
X130125000Y-54920000D03*
%TO.P,A1,11,D6*%
%TO.N,Net-(A1A-D6)*%
X132665000Y-52380000D03*
%TO.P,A1,12,D13*%
%TO.N,Net-(A1A-D13)*%
X132665000Y-54920000D03*
%TO.P,A1,13,D5*%
%TO.N,unconnected-(A1A-D5-Pad13)*%
X135205000Y-52380000D03*
%TO.P,A1,14,D12*%
%TO.N,unconnected-(A1A-D12-Pad14)*%
X135205000Y-54920000D03*
%TO.P,A1,15,D4*%
%TO.N,unconnected-(A1A-D4-Pad15)*%
X137745000Y-52380000D03*
%TO.P,A1,16,D11*%
%TO.N,Net-(A1A-D11)*%
X137745000Y-54920000D03*
%TO.P,A1,17,D3/SCL*%
%TO.N,Net-(A1A-D3{slash}SCL)*%
X140285000Y-52380000D03*
%TO.P,A1,18,D10*%
%TO.N,Net-(A1A-D10)*%
X140285000Y-54920000D03*
%TO.P,A1,19,D2/SDA*%
%TO.N,Net-(A1A-D2{slash}SDA)*%
X142825000Y-52380000D03*
%TO.P,A1,20,D9*%
%TO.N,Net-(A1A-D9)*%
X142825000Y-54920000D03*
%TO.P,A1,21,D1/TX1*%
%TO.N,unconnected-(A1A-D1{slash}TX1-Pad21)*%
X145365000Y-52380000D03*
%TO.P,A1,22,D8*%
%TO.N,Net-(A1A-D8)*%
X145365000Y-54920000D03*
%TO.P,A1,23,D0/RX1*%
%TO.N,unconnected-(A1A-D0{slash}RX1-Pad23)*%
X147905000Y-52380000D03*
%TO.P,A1,24,D7*%
%TO.N,Net-(A1A-D7)*%
X147905000Y-54920000D03*
%TO.P,A1,25,GND*%
%TO.N,unconnected-(A1A-GND-Pad25)*%
X150445000Y-52380000D03*
%TO.P,A1,26,RST*%
%TO.N,unconnected-(A1A-RST-Pad26)*%
X150445000Y-54920000D03*
%TO.P,A1,27,MOSI*%
%TO.N,unconnected-(A1A-MOSI-Pad27)*%
X152985000Y-52380000D03*
%TO.P,A1,28,SCK*%
%TO.N,unconnected-(A1A-SCK-Pad28)*%
X152985000Y-54920000D03*
%TO.P,A1,29,+5V*%
%TO.N,unconnected-(A1A-+5V-Pad29)*%
X155525000Y-52380000D03*
%TO.P,A1,30,MISO*%
%TO.N,unconnected-(A1A-MISO-Pad30)*%
X155525000Y-54920000D03*
%TO.P,A1,33,BIOS_~{CS}*%
%TO.N,unconnected-(A1A-BIOS_~{CS}-Pad33)*%
X160605000Y-52380000D03*
%TO.P,A1,34,BIOS_VCC*%
%TO.N,unconnected-(A1A-BIOS_VCC-Pad34)*%
X160605000Y-54920000D03*
%TO.P,A1,35,BIOS_MISO*%
%TO.N,unconnected-(A1A-BIOS_MISO-Pad35)*%
X163145000Y-52380000D03*
%TO.P,A1,36,BIOS_HOLD*%
%TO.N,unconnected-(A1A-BIOS_HOLD-Pad36)*%
X163145000Y-54920000D03*
%TO.P,A1,37,BIOS_WP*%
%TO.N,unconnected-(A1A-BIOS_WP-Pad37)*%
X165685000Y-52380000D03*
%TO.P,A1,38,BIOS_CLK*%
%TO.N,unconnected-(A1A-BIOS_CLK-Pad38)*%
X165685000Y-54920000D03*
%TO.P,A1,39,BIOS_GND*%
%TO.N,unconnected-(A1A-BIOS_GND-Pad39)*%
X168225000Y-52380000D03*
%TO.P,A1,40,BIOS_MOSI*%
%TO.N,unconnected-(A1A-BIOS_MOSI-Pad40)*%
X168225000Y-54920000D03*
%TO.P,A1,41,+5VSB*%
%TO.N,unconnected-(A1A-+5VSB-Pad41)*%
X170765000Y-52380000D03*
%TO.P,A1,42,GND*%
%TO.N,unconnected-(A1A-GND-Pad42)*%
X170765000Y-54920000D03*
%TO.P,A1,43,+5VSB*%
%TO.N,unconnected-(A1A-+5VSB-Pad43)*%
X173305000Y-52380000D03*
%TO.P,A1,44,GND*%
%TO.N,unconnected-(A1A-GND-Pad44)*%
X173305000Y-54920000D03*
%TO.P,A1,45,+3.3VSB*%
%TO.N,unconnected-(A1A-+3.3VSB-Pad45)*%
X175845000Y-52380000D03*
%TO.P,A1,46,GND*%
%TO.N,unconnected-(A1A-GND-Pad46)*%
X175845000Y-54920000D03*
%TO.P,A1,47,+3.3VSB*%
%TO.N,unconnected-(A1A-+3.3VSB-Pad47)*%
X178385000Y-52380000D03*
%TO.P,A1,48,GND*%
%TO.N,unconnected-(A1A-GND-Pad48)*%
X178385000Y-54920000D03*
%TO.P,A1,49,RTC_VCC*%
%TO.N,unconnected-(A1A-RTC_VCC-Pad49)*%
X180925000Y-52380000D03*
%TO.P,A1,50,GND*%
%TO.N,unconnected-(A1A-GND-Pad50)*%
X180925000Y-54920000D03*
%TO.P,A1,51,+DC_IN*%
%TO.N,unconnected-(A1B-+DC_IN-Pad51)*%
X119965000Y-120380000D03*
%TO.P,A1,52,GND*%
%TO.N,unconnected-(A1B-GND-Pad52)*%
X119965000Y-122920000D03*
%TO.P,A1,53,+DC_IN*%
%TO.N,unconnected-(A1B-+DC_IN-Pad53)*%
X122505000Y-120380000D03*
%TO.P,A1,54,GND*%
%TO.N,unconnected-(A1B-GND-Pad54)*%
X122505000Y-122920000D03*
%TO.P,A1,55,USB_+5V*%
%TO.N,unconnected-(A1B-USB_+5V-Pad55)*%
X125045000Y-120380000D03*
%TO.P,A1,56,GND*%
%TO.N,unconnected-(A1B-GND-Pad56)*%
X125045000Y-122920000D03*
%TO.P,A1,57,USB_D+*%
%TO.N,unconnected-(A1B-USB_D+-Pad57)*%
X127585000Y-120380000D03*
%TO.P,A1,58,GND*%
%TO.N,unconnected-(A1B-GND-Pad58)*%
X127585000Y-122920000D03*
%TO.P,A1,59,USB_D-*%
%TO.N,unconnected-(A1B-USB_D--Pad59)*%
X130125000Y-120380000D03*
%TO.P,A1,60,GND*%
%TO.N,unconnected-(A1B-GND-Pad60)*%
X130125000Y-122920000D03*
%TO.P,A1,61,GND*%
%TO.N,unconnected-(A1B-GND-Pad61)*%
X132665000Y-120380000D03*
%TO.P,A1,62,GND*%
%TO.N,unconnected-(A1B-GND-Pad62)*%
X132665000Y-122920000D03*
%TO.P,A1,65,DCD*%
%TO.N,unconnected-(A1B-DCD-Pad65)*%
X137745000Y-120380000D03*
%TO.P,A1,66,DSR*%
%TO.N,unconnected-(A1B-DSR-Pad66)*%
X137745000Y-122920000D03*
%TO.P,A1,67,RXD*%
%TO.N,unconnected-(A1B-RXD-Pad67)*%
X140285000Y-120380000D03*
%TO.P,A1,68,RTS*%
%TO.N,unconnected-(A1B-RTS-Pad68)*%
X140285000Y-122920000D03*
%TO.P,A1,69,TXD*%
%TO.N,unconnected-(A1B-TXD-Pad69)*%
X142825000Y-120380000D03*
%TO.P,A1,70,CTS*%
%TO.N,unconnected-(A1B-CTS-Pad70)*%
X142825000Y-122920000D03*
%TO.P,A1,71,DTR*%
%TO.N,unconnected-(A1B-DTR-Pad71)*%
X145365000Y-120380000D03*
%TO.P,A1,72,RI*%
%TO.N,unconnected-(A1B-RI-Pad72)*%
X145365000Y-122920000D03*
%TO.P,A1,73,SGND*%
%TO.N,unconnected-(A1B-SGND-Pad73)*%
X147905000Y-120380000D03*
%TO.P,A1,74,GND*%
%TO.N,unconnected-(A1B-GND-Pad74)*%
X147905000Y-122920000D03*
%TO.P,A1,77,+1.8V*%
%TO.N,unconnected-(A1B-+1.8V-Pad77)*%
X152985000Y-120380000D03*
%TO.P,A1,78,GND*%
%TO.N,unconnected-(A1B-GND-Pad78)*%
X152985000Y-122920000D03*
%TO.P,A1,79,SDA*%
%TO.N,unconnected-(A1B-SDA-Pad79)*%
X155525000Y-120380000D03*
%TO.P,A1,80,GND*%
%TO.N,unconnected-(A1B-GND-Pad80)*%
X155525000Y-122920000D03*
%TO.P,A1,81,SCL*%
%TO.N,unconnected-(A1B-SCL-Pad81)*%
X158065000Y-120380000D03*
%TO.P,A1,82,GND*%
%TO.N,unconnected-(A1B-GND-Pad82)*%
X158065000Y-122920000D03*
%TO.P,A1,83,GND*%
%TO.N,unconnected-(A1B-GND-Pad83)*%
X160605000Y-120380000D03*
%TO.P,A1,84,GND*%
%TO.N,unconnected-(A1B-GND-Pad84)*%
X160605000Y-122920000D03*
%TO.P,A1,85,+3.3VSB*%
%TO.N,unconnected-(A1B-+3.3VSB-Pad85)*%
X163145000Y-120380000D03*
%TO.P,A1,86,SPL-*%
%TO.N,unconnected-(A1B-SPL--Pad86)*%
X163145000Y-122920000D03*
%TO.P,A1,87,+3.3VSB*%
%TO.N,unconnected-(A1B-+3.3VSB-Pad87)*%
X165685000Y-120380000D03*
%TO.P,A1,88,SPL+*%
%TO.N,unconnected-(A1B-SPL+-Pad88)*%
X165685000Y-122920000D03*
%TO.P,A1,89,NC*%
%TO.N,unconnected-(A1B-NC-Pad89)*%
X168225000Y-120380000D03*
%TO.P,A1,90,SPR-*%
%TO.N,unconnected-(A1B-SPR--Pad90)*%
X168225000Y-122920000D03*
%TO.P,A1,91,NC*%
%TO.N,unconnected-(A1B-NC-Pad91)*%
X170765000Y-120380000D03*
%TO.P,A1,92,SPR+*%
%TO.N,unconnected-(A1B-SPR+-Pad92)*%
X170765000Y-122920000D03*
%TO.P,A1,93,S0*%
%TO.N,unconnected-(A1B-S0-Pad93)*%
X173305000Y-120380000D03*
%TO.P,A1,94,S3*%
%TO.N,unconnected-(A1B-S3-Pad94)*%
X173305000Y-122920000D03*
%TO.P,A1,95,S4*%
%TO.N,unconnected-(A1B-S4-Pad95)*%
X175845000Y-120380000D03*
%TO.P,A1,96,NC*%
%TO.N,unconnected-(A1B-NC-Pad96)*%
X175845000Y-122920000D03*
%TO.P,A1,97,PWR_SW*%
%TO.N,unconnected-(A1B-PWR_SW-Pad97)*%
X178385000Y-120380000D03*
%TO.P,A1,98,PWR_RST*%
%TO.N,unconnected-(A1B-PWR_RST-Pad98)*%
X178385000Y-122920000D03*
%TO.P,A1,99,GND*%
%TO.N,unconnected-(A1B-GND-Pad99)*%
X180925000Y-120380000D03*
%TO.P,A1,100,GND*%
%TO.N,unconnected-(A1B-GND-Pad100)*%
X180925000Y-122920000D03*
%TD*%
D24*
%TO.N,Net-(RechargeB1-CC2)*%
X104602600Y-112200000D03*
X114854400Y-38407200D03*
%TO.N,Net-(RechargeB1-VBUS-PadA9)*%
X105655000Y-118200000D03*
X115851700Y-40721900D03*
%TO.N,Net-(RechargeB1-CC1)*%
X104085100Y-108946000D03*
X116341800Y-38218100D03*
%TO.N,Net-(PeripheralsPWR1-VBUS)*%
X86068100Y-71190700D03*
%TO.N,Net-(ModemPWR1-VBUS)*%
X102453200Y-139200000D03*
X89529000Y-52050000D03*
X88646100Y-102892700D03*
X100543000Y-103200000D03*
%TO.N,Net-(Modem1-D-)*%
X133340300Y-42287500D03*
X131443900Y-44125700D03*
%TO.N,Net-(Modem1-SSTX-)*%
X141721400Y-49313500D03*
X141456800Y-47479600D03*
%TO.N,Net-(Modem1-D+)*%
X91751300Y-56375000D03*
X91867100Y-49315800D03*
%TO.N,Net-(Modem1-VBUS)*%
X120318200Y-37986100D03*
%TO.N,Net-(Modem1-SHIELD)*%
X130219900Y-43623800D03*
X133660300Y-36268000D03*
%TO.N,Net-(Modem1-SSRX-)*%
X92730900Y-45473300D03*
X90016800Y-53000000D03*
%TO.N,Net-(MainPWR1-CC1)*%
X100573200Y-90586100D03*
X101471300Y-40738500D03*
X106718800Y-149215000D03*
X99662400Y-95660000D03*
%TO.N,Net-(MainPWR1-CC2)*%
X104598700Y-147362800D03*
X98635900Y-96563900D03*
X94944600Y-96287500D03*
X100077900Y-40707800D03*
%TO.N,Net-(MainPWR1-VBUS-PadA9)*%
X94634400Y-93978300D03*
X93601400Y-97027200D03*
X99971200Y-42338900D03*
X97917300Y-97440900D03*
X99956100Y-133674300D03*
%TO.N,Net-(MainPWR1-SHIELD)*%
X79495200Y-145257500D03*
%TO.N,Net-(J33-Pin_6)*%
X231670800Y-77224700D03*
%TO.N,Net-(DisplayPWR1-SHIELD)*%
X187543300Y-55200000D03*
%TO.N,Net-(J33-Pin_8)*%
X250763600Y-97200000D03*
%TO.N,Net-(J10-Pin_3)*%
X231893200Y-76200000D03*
%TO.N,GND*%
X85459600Y-61350400D03*
X85234600Y-77315700D03*
X86697100Y-89756000D03*
X88757800Y-37200000D03*
X196523800Y-46476300D03*
%TO.N,/Power Distribution/+5V peripherals*%
X205504300Y-49200000D03*
%TO.N,Net-(A1A-D11)*%
X123781400Y-30957300D03*
X118099000Y-56250000D03*
X136761500Y-56957200D03*
%TO.N,Net-(A1A-D6)*%
X197397200Y-52200000D03*
%TO.N,Net-(A1A-D13)*%
X155776400Y-35296600D03*
X122251500Y-36718000D03*
%TO.N,Net-(A1A-D3{slash}SCL)*%
X157575000Y-49639400D03*
%TO.N,Net-(A1A-D10)*%
X157416400Y-51008400D03*
%TO.N,Net-(A1A-D9)*%
X124679800Y-31071200D03*
X118157100Y-55198400D03*
X142640800Y-57200400D03*
%TD*%
D25*
%TO.N,Net-(CentralLEDs1-Pin_2)*%
X193800000Y-137700000D02*
X199300000Y-132200000D01*
X189900000Y-137700000D02*
X193800000Y-137700000D01*
%TO.N,Net-(RechargeB1-CC2)*%
X103322200Y-110919600D02*
X104602600Y-112200000D01*
X103322200Y-93209400D02*
X103322200Y-110919600D01*
X104083700Y-92447900D02*
X103322200Y-93209400D01*
X104083700Y-49981100D02*
X104083700Y-92447900D01*
X114854400Y-39210400D02*
X104083700Y-49981100D01*
X114854400Y-38407200D02*
X114854400Y-39210400D01*
%TO.N,Net-(RechargeB1-SHIELD)*%
X112060000Y-39500000D02*
X112060000Y-35700000D01*
X83550000Y-114140000D02*
X83550000Y-105500000D01*
X82200000Y-114140000D02*
X83550000Y-114140000D01*
X82200000Y-105500000D02*
X83550000Y-105500000D01*
X86000000Y-105500000D02*
X87350000Y-105500000D01*
X112060000Y-39500000D02*
X112060000Y-40850000D01*
X120700000Y-35700000D02*
X120700000Y-37050000D01*
X102649200Y-90200800D02*
X87350000Y-105500000D01*
X102649200Y-50260800D02*
X102649200Y-90200800D01*
X112060000Y-40850000D02*
X102649200Y-50260800D01*
X121070000Y-39130000D02*
X120700000Y-39500000D01*
X121070000Y-37420000D02*
X121070000Y-39130000D01*
X120700000Y-37050000D02*
X121070000Y-37420000D01*
%TO.N,Net-(RechargeB1-VBUS-PadA9)*%
X105562400Y-51011200D02*
X115851700Y-40721900D01*
X105562400Y-118107400D02*
X105562400Y-51011200D01*
X105655000Y-118200000D02*
X105562400Y-118107400D01*
%TO.N,Net-(RechargeB1-CC1)*%
X104786800Y-108244300D02*
X104085100Y-108946000D01*
X104786800Y-50723800D02*
X104786800Y-108244300D01*
X116341800Y-39168800D02*
X104786800Y-50723800D01*
X116341800Y-38218100D02*
X116341800Y-39168800D01*
%TO.N,Net-(J33-Pin_2)*%
X234350000Y-73430000D02*
X237980000Y-69800000D01*
X234350000Y-74400000D02*
X234350000Y-73430000D01*
%TO.N,Net-(PeripheralsPWR1-VBUS)*%
X81500000Y-140900000D02*
X83630000Y-140900000D01*
X84337000Y-140193000D02*
X83630000Y-140900000D01*
X84337000Y-91053100D02*
X84337000Y-140193000D01*
X86068100Y-89322000D02*
X84337000Y-91053100D01*
X86068100Y-71190700D02*
X86068100Y-89322000D01*
%TO.N,Net-(ModemPWR1-VBUS)*%
X88646100Y-52932900D02*
X88646100Y-102892700D01*
X89529000Y-52050000D02*
X88646100Y-52932900D01*
X101065900Y-137812700D02*
X102453200Y-139200000D01*
X101065900Y-113288200D02*
X101065900Y-137812700D01*
X101004100Y-113226400D02*
X101065900Y-113288200D01*
X101004100Y-113226400D02*
X101065900Y-113288200D01*
X100593100Y-112815400D02*
X101004100Y-113226400D01*
X100593100Y-103250100D02*
X100593100Y-112815400D01*
X100543000Y-103200000D02*
X100593100Y-103250100D01*
%TO.N,Net-(Modem1-D-)*%
X131502200Y-44125600D02*
X133340300Y-42287500D01*
X131502200Y-44125700D02*
X131502200Y-44125600D01*
X131443900Y-44125700D02*
X131502200Y-44125700D01*
%TO.N,Net-(Modem1-SSTX-)*%
X141721400Y-47744200D02*
X141721400Y-49313500D01*
X141456800Y-47479600D02*
X141721400Y-47744200D01*
%TO.N,Net-(J10-Pin_1)*%
X222572700Y-92800000D02*
X222572700Y-83400000D01*
X247381400Y-73098600D02*
X247381400Y-102540000D01*
X248140000Y-72340000D02*
X247381400Y-73098600D01*
X247381400Y-102540000D02*
X248700000Y-102540000D01*
X247381400Y-102578600D02*
X244880000Y-105080000D01*
X247381400Y-102540000D02*
X247381400Y-102578600D01*
X231372700Y-83400000D02*
X231372700Y-92700000D01*
X232452600Y-103737400D02*
X231110000Y-105080000D01*
X232452600Y-93779900D02*
X232452600Y-103737400D01*
X231372700Y-92700000D02*
X232452600Y-93779900D01*
%TO.N,Net-(Modem1-D+)*%
X91867100Y-56259200D02*
X91867100Y-49315800D01*
X91751300Y-56375000D02*
X91867100Y-56259200D01*
%TO.N,Net-(Modem1-VBUS)*%
X114400000Y-140600000D02*
X112270000Y-140600000D01*
X106339500Y-51964800D02*
X120318200Y-37986100D01*
X106339500Y-117821400D02*
X106339500Y-51964800D01*
X112270000Y-123751900D02*
X106339500Y-117821400D01*
X112270000Y-140600000D02*
X112270000Y-123751900D01*
%TO.N,Net-(Modem1-SHIELD)*%
X80572600Y-50709900D02*
X82282500Y-49000000D01*
X80572600Y-60890100D02*
X80572600Y-50709900D01*
X82282500Y-62600000D02*
X80572600Y-60890100D01*
X132393700Y-41450000D02*
X130219900Y-43623800D01*
X132500000Y-41450000D02*
X132393700Y-41450000D01*
X132500000Y-39850000D02*
X132500000Y-41450000D01*
X132500000Y-39850000D02*
X132500000Y-39250000D01*
X132878300Y-37050000D02*
X133660300Y-36268000D01*
X132500000Y-37050000D02*
X132878300Y-37050000D01*
X133660300Y-36268000D02*
X132500000Y-36268000D01*
X132500000Y-36268000D02*
X133660300Y-36268000D01*
X132500000Y-39250000D02*
X132500000Y-37050000D01*
%TO.N,Net-(Modem1-SSRX-)*%
X91051100Y-51965700D02*
X90016800Y-53000000D01*
X91051100Y-47153100D02*
X91051100Y-51965700D01*
X92730900Y-45473300D02*
X91051100Y-47153100D01*
%TO.N,Net-(MainPWR1-CC1)*%
X101471300Y-89688000D02*
X101471300Y-40738500D01*
X100573200Y-90586100D02*
X101471300Y-89688000D01*
X106718800Y-148011600D02*
X106718800Y-149215000D01*
X103920300Y-145213100D02*
X106718800Y-148011600D01*
X103920300Y-113576100D02*
X103920300Y-145213100D01*
X101996500Y-111652300D02*
X103920300Y-113576100D01*
X101996500Y-97994100D02*
X101996500Y-111652300D01*
X99662400Y-95660000D02*
X101996500Y-97994100D01*
%TO.N,Net-(MainPWR1-CC2)*%
X100747100Y-41377000D02*
X100077900Y-40707800D01*
X100747100Y-89313300D02*
X100747100Y-41377000D01*
X94944600Y-95115800D02*
X100747100Y-89313300D01*
X94944600Y-96287500D02*
X94944600Y-95115800D01*
X103205000Y-145969100D02*
X104598700Y-147362800D01*
X103205000Y-114434900D02*
X103205000Y-145969100D01*
X101294800Y-112524700D02*
X103205000Y-114434900D01*
X101294800Y-99222800D02*
X101294800Y-112524700D01*
X98635900Y-96563900D02*
X101294800Y-99222800D01*
%TO.N,Net-(MainPWR1-VBUS-PadA9)*%
X93601400Y-95011300D02*
X93601400Y-97027200D01*
X94634400Y-93978300D02*
X93601400Y-95011300D01*
X99971200Y-88641500D02*
X94634400Y-93978300D01*
X99971200Y-42338900D02*
X99971200Y-88641500D01*
X99956100Y-113170800D02*
X99956100Y-133674300D01*
X97917300Y-111132000D02*
X99956100Y-113170800D01*
X97917300Y-97440900D02*
X97917300Y-111132000D01*
%TO.N,Net-(MainPWR1-SHIELD)*%
X86100000Y-91840000D02*
X87450000Y-91840000D01*
X104780000Y-39500000D02*
X104780000Y-35700000D01*
X96140000Y-35700000D02*
X96140000Y-39500000D01*
X96140000Y-39500000D02*
X96140000Y-40850000D01*
X86100000Y-100480000D02*
X87200000Y-100480000D01*
X87450000Y-100230000D02*
X87450000Y-91840000D01*
X87200000Y-100480000D02*
X87450000Y-100230000D01*
X154750000Y-144660000D02*
X154750000Y-153300000D01*
X156100000Y-144660000D02*
X154750000Y-144660000D01*
X156100000Y-153300000D02*
X154750000Y-153300000D01*
X87792000Y-49198000D02*
X96140000Y-40850000D01*
X87792000Y-91498000D02*
X87792000Y-49198000D01*
X87450000Y-91840000D02*
X87792000Y-91498000D01*
X75021700Y-140784000D02*
X79495200Y-145257500D01*
X75021700Y-106408300D02*
X75021700Y-140784000D01*
X80950000Y-100480000D02*
X75021700Y-106408300D01*
X82300000Y-100480000D02*
X80950000Y-100480000D01*
%TO.N,Net-(J12-Pin_2)*%
X221670000Y-70050000D02*
X221670000Y-71350000D01*
X220350200Y-72669800D02*
X221670000Y-71350000D01*
X220350200Y-100960200D02*
X220350200Y-72669800D01*
X221930000Y-102540000D02*
X220350200Y-100960200D01*
%TO.N,Net-(J33-Pin_6)*%
X233383200Y-97683200D02*
X235700000Y-100000000D01*
X233383200Y-81603300D02*
X233383200Y-97683200D01*
X231670800Y-79890900D02*
X233383200Y-81603300D01*
X231670800Y-77224700D02*
X231670800Y-79890900D01*
%TO.N,Net-(J33-Pin_7)*%
X245600000Y-94690000D02*
X240290000Y-100000000D01*
X245600000Y-72340000D02*
X245600000Y-94690000D01*
%TO.N,Net-(DisplayPWR1-SHIELD)*%
X83985900Y-68403400D02*
X82282500Y-66700000D01*
X83985900Y-78596600D02*
X83985900Y-68403400D01*
X82282500Y-80300000D02*
X83985900Y-78596600D01*
X189500000Y-53243300D02*
X187543300Y-55200000D01*
X189500000Y-39482500D02*
X189500000Y-53243300D01*
%TO.N,Net-(J11-Pin_2)*%
X224225100Y-100245100D02*
X226520000Y-102540000D01*
X224225100Y-78275100D02*
X224225100Y-100245100D01*
X221650000Y-75700000D02*
X224225100Y-78275100D01*
X221650000Y-74400000D02*
X221650000Y-75700000D01*
%TO.N,Net-(J33-Pin_5)*%
X243060000Y-83320000D02*
X239300000Y-87080000D01*
X243060000Y-72340000D02*
X243060000Y-83320000D01*
%TO.N,Net-(J33-Pin_4)*%
X237309100Y-87629100D02*
X239300000Y-89620000D01*
X237309100Y-83200300D02*
X237309100Y-87629100D01*
X233087300Y-78978500D02*
X237309100Y-83200300D01*
X233087300Y-73196300D02*
X233087300Y-78978500D01*
X236668100Y-69615500D02*
X233087300Y-73196300D01*
X236668100Y-69255700D02*
X236668100Y-69615500D01*
X237444300Y-68479500D02*
X236668100Y-69255700D01*
X239199500Y-68479500D02*
X237444300Y-68479500D01*
X240520000Y-69800000D02*
X239199500Y-68479500D01*
%TO.N,Net-(J33-Pin_8)*%
X250763600Y-70527000D02*
X250763600Y-97200000D01*
X248724800Y-68488200D02*
X250763600Y-70527000D01*
X246911800Y-68488200D02*
X248724800Y-68488200D01*
X245600000Y-69800000D02*
X246911800Y-68488200D01*
%TO.N,Net-(J10-Pin_3)*%
X230114600Y-99004600D02*
X231110000Y-100000000D01*
X230114600Y-77978600D02*
X230114600Y-99004600D01*
X230399300Y-77693900D02*
X230114600Y-77978600D01*
X230399300Y-77691800D02*
X230399300Y-77693900D01*
X230919100Y-77172000D02*
X230399300Y-77691800D01*
X230919100Y-76913400D02*
X230919100Y-77172000D01*
X231359500Y-76473000D02*
X230919100Y-76913400D01*
X231620200Y-76473000D02*
X231359500Y-76473000D01*
X231893200Y-76200000D02*
X231620200Y-76473000D01*
%TO.N,Net-(J10-Pin_2)*%
X234872700Y-83400000D02*
X234872700Y-92700000D01*
X239300000Y-98940000D02*
X235700000Y-102540000D01*
X239300000Y-94700000D02*
X239300000Y-98940000D01*
X249487200Y-99212800D02*
X248700000Y-100000000D01*
X249487200Y-71147200D02*
X249487200Y-99212800D01*
X248140000Y-69800000D02*
X249487200Y-71147200D01*
X226072700Y-83400000D02*
X226072700Y-92800000D01*
X226520000Y-94547300D02*
X226520000Y-100000000D01*
X226072700Y-94100000D02*
X226520000Y-94547300D01*
X226072700Y-92800000D02*
X226072700Y-94100000D01*
X223258600Y-101328600D02*
X221930000Y-100000000D01*
X223258600Y-103751400D02*
X223258600Y-101328600D01*
X221930000Y-105080000D02*
X223258600Y-103751400D01*
%TO.N,GND*%
X85234600Y-70655300D02*
X85459600Y-70430300D01*
X85234600Y-77315700D02*
X85234600Y-70655300D01*
X86837000Y-89616100D02*
X86697100Y-89756000D01*
X86837000Y-70830900D02*
X86837000Y-89616100D01*
X86436400Y-70430300D02*
X86837000Y-70830900D01*
X85459600Y-70430300D02*
X86436400Y-70430300D01*
X85459600Y-70430300D02*
X85459600Y-61350400D01*
X85459600Y-40498200D02*
X88757800Y-37200000D01*
X85459600Y-61350400D02*
X85459600Y-40498200D01*
X196523800Y-131963800D02*
X196523800Y-46476300D01*
X196760000Y-132200000D02*
X196523800Y-131963800D01*
%TO.N,/Power Distribution/+5V peripherals*%
X205504300Y-124504300D02*
X205504300Y-49200000D01*
X211700000Y-130700000D02*
X205504300Y-124504300D01*
X211700000Y-132200000D02*
X211700000Y-130700000D01*
%TO.N,Net-(A1A-D11)*%
X136761500Y-55903500D02*
X136761500Y-56957200D01*
X137745000Y-54920000D02*
X136761500Y-55903500D01*
X118099000Y-56250000D02*
X117405300Y-56250000D01*
X117405300Y-56250000D02*
X118099000Y-56250000D01*
X136761500Y-56957200D02*
X136760300Y-56958400D01*
X136760300Y-56958400D02*
X136761500Y-56957200D01*
X123781400Y-44002100D02*
X123781400Y-30957300D01*
X117405300Y-50378200D02*
X123781400Y-44002100D01*
X117405300Y-55556300D02*
X117405300Y-50378200D01*
X118099000Y-56250000D02*
X117405300Y-55556300D01*
%TO.N,Net-(A1A-D6)*%
X203180300Y-137119700D02*
X202600000Y-137700000D01*
X203180300Y-57983100D02*
X203180300Y-137119700D01*
X197397200Y-52200000D02*
X203180300Y-57983100D01*
%TO.N,Net-(A1A-D13)*%
X130568300Y-57016700D02*
X132665000Y-54920000D01*
X117110700Y-57016700D02*
X130568300Y-57016700D01*
X116699300Y-56605300D02*
X117110700Y-57016700D01*
X116699300Y-46448900D02*
X116699300Y-56605300D01*
X122251500Y-40896700D02*
X116699300Y-46448900D01*
X122251500Y-36718000D02*
X122251500Y-40896700D01*
X122251500Y-36718000D02*
X122892600Y-36076900D01*
X122892600Y-36076900D02*
X122251500Y-36718000D01*
X156083400Y-35296600D02*
X155776400Y-35296600D01*
X159240000Y-32140000D02*
X156083400Y-35296600D01*
X155776400Y-35296600D02*
X156083400Y-35296600D01*
X156083400Y-35296600D02*
X155776400Y-35296600D01*
%TO.N,Net-(A1A-D3{slash}SCL)*%
X157575000Y-38885000D02*
X164320000Y-32140000D01*
X157575000Y-49639400D02*
X157575000Y-38885000D01*
%TO.N,Net-(A1A-D10)*%
X156822400Y-50414400D02*
X157416400Y-51008400D01*
X156822400Y-37097600D02*
X156822400Y-50414400D01*
X161780000Y-32140000D02*
X156822400Y-37097600D01*
X157416400Y-51008400D02*
X156822400Y-51008400D01*
X156822400Y-51008400D02*
X157416400Y-51008400D01*
%TO.N,Net-(A1A-D7)*%
X166860000Y-41698600D02*
X166860000Y-32140000D01*
X158168100Y-50390500D02*
X166860000Y-41698600D01*
X158168100Y-54141400D02*
X158168100Y-50390500D01*
X156066100Y-56243400D02*
X158168100Y-54141400D01*
X149228400Y-56243400D02*
X156066100Y-56243400D01*
X147905000Y-54920000D02*
X149228400Y-56243400D01*
%TO.N,Net-(A1A-D9)*%
X124679800Y-45170200D02*
X124679800Y-31071200D01*
X118157100Y-51692900D02*
X124679800Y-45170200D01*
X118157100Y-55198400D02*
X118157100Y-51692900D01*
X142825000Y-57016200D02*
X142825000Y-54920000D01*
X142640800Y-57200400D02*
X142825000Y-57016200D01*
X142640800Y-57200400D02*
X142825000Y-57200400D01*
X142825000Y-57200400D02*
X142640800Y-57200400D01*
X118157100Y-55198400D02*
X118354300Y-55395600D01*
X118354300Y-55395600D02*
X118157100Y-55198400D01*
%TO.N,Net-(A1A-D8)*%
X168182900Y-30922900D02*
X166860000Y-29600000D01*
X168182900Y-41370200D02*
X168182900Y-30922900D01*
X158869800Y-50683300D02*
X168182900Y-41370200D01*
X158869800Y-54450600D02*
X158869800Y-50683300D01*
X156367800Y-56952600D02*
X158869800Y-54450600D01*
X147397600Y-56952600D02*
X156367800Y-56952600D01*
X145365000Y-54920000D02*
X147397600Y-56952600D01*
%TO.N,Net-(A1A-D2{slash}SDA)*%
X154901900Y-33941300D02*
X154901900Y-34707600D01*
X154611200Y-33650600D02*
X154901900Y-33941300D01*
X154611200Y-33650600D02*
X154901900Y-33941300D01*
X154611200Y-29814700D02*
X154611200Y-33650600D01*
X156169200Y-28256700D02*
X154611200Y-29814700D01*
X160436700Y-28256700D02*
X156169200Y-28256700D01*
X161780000Y-29600000D02*
X160436700Y-28256700D01*
X154901900Y-34707600D02*
X155102100Y-34907800D01*
X154901900Y-34707600D02*
X155102100Y-34907800D01*
X142825000Y-47184900D02*
X142825000Y-52380000D01*
X155102100Y-34907800D02*
X142825000Y-47184900D01*
%TD*%
M02*
