M48
; DRILL file {KiCad 9.0.1} date 2025-06-17T17:32:51-0300
; FORMAT={-:-/ absolute / metric / decimal}
; #@! TF.CreationDate,2025-06-17T17:32:51-03:00
; #@! TF.GenerationSoftware,Kicad,Pcbnew,9.0.1
; #@! TF.FileFunction,Plated,1,2,PTH
FMAT,2
METRIC
; #@! TA.AperFunction,Plated,PTH,ViaDrill
T1C0.300
; #@! TA.AperFunction,Plated,PTH,ComponentDrill
T2C0.600
; #@! TA.AperFunction,Plated,PTH,ComponentDrill
T3C0.800
; #@! TA.AperFunction,Plated,PTH,ComponentDrill
T4C0.980
; #@! TA.AperFunction,Plated,PTH,ComponentDrill
T5C1.000
; #@! TA.AperFunction,Plated,PTH,ComponentDrill
T6C1.120
%
G90
G05
T1
X79.495Y-145.257
X85.235Y-77.316
X85.46Y-61.35
X86.068Y-71.191
X86.697Y-89.756
X88.646Y-102.893
X88.758Y-37.2
X89.529Y-52.05
X90.017Y-53.0
X91.751Y-56.375
X91.867Y-49.316
X92.731Y-45.473
X93.601Y-97.027
X94.634Y-93.978
X94.945Y-96.287
X97.917Y-97.441
X98.636Y-96.564
X99.662Y-95.66
X99.956Y-133.674
X99.971Y-42.339
X100.078Y-40.708
X100.543Y-103.2
X100.573Y-90.586
X101.471Y-40.738
X102.453Y-139.2
X104.085Y-108.946
X104.599Y-147.363
X104.603Y-112.2
X105.655Y-118.2
X106.719Y-149.215
X114.854Y-38.407
X115.852Y-40.722
X116.342Y-38.218
X118.099Y-56.25
X118.157Y-55.198
X120.318Y-37.986
X122.251Y-36.718
X123.781Y-30.957
X124.68Y-31.071
X130.22Y-43.624
X131.444Y-44.126
X133.34Y-42.288
X133.66Y-36.268
X136.761Y-56.957
X141.457Y-47.48
X141.721Y-49.313
X142.641Y-57.2
X155.776Y-35.297
X157.416Y-51.008
X157.575Y-49.639
X187.543Y-55.2
X196.524Y-46.476
X197.397Y-52.2
X205.504Y-49.2
X231.671Y-77.225
X231.893Y-76.2
X250.764Y-97.2
T3
X189.9Y-137.7
X202.6Y-137.7
X221.65Y-74.4
X221.67Y-70.05
X222.573Y-83.4
X222.573Y-92.8
X226.073Y-83.4
X226.073Y-92.8
X231.373Y-83.4
X231.373Y-92.7
X234.35Y-74.4
X234.37Y-70.05
X234.873Y-83.4
X234.873Y-92.7
T5
X119.965Y-52.38
X119.965Y-54.92
X119.965Y-120.38
X119.965Y-122.92
X122.505Y-52.38
X122.505Y-54.92
X122.505Y-120.38
X122.505Y-122.92
X125.045Y-52.38
X125.045Y-54.92
X125.045Y-120.38
X125.045Y-122.92
X127.585Y-52.38
X127.585Y-54.92
X127.585Y-120.38
X127.585Y-122.92
X130.125Y-52.38
X130.125Y-54.92
X130.125Y-120.38
X130.125Y-122.92
X132.665Y-52.38
X132.665Y-54.92
X132.665Y-120.38
X132.665Y-122.92
X135.205Y-52.38
X135.205Y-54.92
X137.745Y-52.38
X137.745Y-54.92
X137.745Y-120.38
X137.745Y-122.92
X140.285Y-52.38
X140.285Y-54.92
X140.285Y-120.38
X140.285Y-122.92
X142.825Y-52.38
X142.825Y-54.92
X142.825Y-120.38
X142.825Y-122.92
X145.365Y-52.38
X145.365Y-54.92
X145.365Y-120.38
X145.365Y-122.92
X147.905Y-52.38
X147.905Y-54.92
X147.905Y-120.38
X147.905Y-122.92
X150.445Y-52.38
X150.445Y-54.92
X152.985Y-52.38
X152.985Y-54.92
X152.985Y-120.38
X152.985Y-122.92
X155.525Y-52.38
X155.525Y-54.92
X155.525Y-120.38
X155.525Y-122.92
X156.7Y-29.6
X156.7Y-32.14
X158.065Y-120.38
X158.065Y-122.92
X159.24Y-29.6
X159.24Y-32.14
X160.605Y-52.38
X160.605Y-54.92
X160.605Y-120.38
X160.605Y-122.92
X161.78Y-29.6
X161.78Y-32.14
X163.145Y-52.38
X163.145Y-54.92
X163.145Y-120.38
X163.145Y-122.92
X164.32Y-29.6
X164.32Y-32.14
X165.685Y-52.38
X165.685Y-54.92
X165.685Y-120.38
X165.685Y-122.92
X166.86Y-29.6
X166.86Y-32.14
X168.225Y-52.38
X168.225Y-54.92
X168.225Y-120.38
X168.225Y-122.92
X170.765Y-52.38
X170.765Y-54.92
X170.765Y-120.38
X170.765Y-122.92
X173.305Y-52.38
X173.305Y-54.92
X173.305Y-120.38
X173.305Y-122.92
X175.845Y-52.38
X175.845Y-54.92
X175.845Y-120.38
X175.845Y-122.92
X178.385Y-52.38
X178.385Y-54.92
X178.385Y-120.38
X178.385Y-122.92
X180.925Y-52.38
X180.925Y-54.92
X180.925Y-120.38
X180.925Y-122.92
X188.4Y-132.2
X190.94Y-132.2
X196.76Y-132.2
X199.3Y-132.2
X201.84Y-132.2
X211.7Y-132.2
X211.7Y-137.2
X221.93Y-100.0
X221.93Y-102.54
X221.93Y-105.08
X226.52Y-100.0
X226.52Y-102.54
X226.52Y-105.08
X231.11Y-100.0
X231.11Y-102.54
X231.11Y-105.08
X235.7Y-100.0
X235.7Y-102.54
X235.7Y-105.08
X237.98Y-69.8
X237.98Y-72.34
X239.3Y-76.92
X239.3Y-79.46
X239.3Y-82.0
X239.3Y-84.54
X239.3Y-87.08
X239.3Y-89.62
X239.3Y-92.16
X239.3Y-94.7
X240.29Y-100.0
X240.29Y-102.54
X240.29Y-105.08
X240.52Y-69.8
X240.52Y-72.34
X243.06Y-69.8
X243.06Y-72.34
X244.88Y-100.0
X244.88Y-102.54
X244.88Y-105.08
X245.6Y-69.8
X245.6Y-72.34
X248.14Y-69.8
X248.14Y-72.34
X248.7Y-100.0
X248.7Y-102.54
T2
G00X82.5Y-105.5
M15
G01X81.9Y-105.5
M16
G05
G00X82.5Y-114.14
M15
G01X81.9Y-114.14
M16
G05
G00X82.6Y-91.84
M15
G01X82.0Y-91.84
M16
G05
G00X82.6Y-100.48
M15
G01X82.0Y-100.48
M16
G05
G00X86.3Y-105.5
M15
G01X85.7Y-105.5
M16
G05
G00X86.3Y-114.14
M15
G01X85.7Y-114.14
M16
G05
G00X86.4Y-91.84
M15
G01X85.8Y-91.84
M16
G05
G00X86.4Y-100.48
M15
G01X85.8Y-100.48
M16
G05
G00X96.14Y-36.0
M15
G01X96.14Y-35.4
M16
G05
G00X96.14Y-39.8
M15
G01X96.14Y-39.2
M16
G05
G00X104.78Y-36.0
M15
G01X104.78Y-35.4
M16
G05
G00X104.78Y-39.8
M15
G01X104.78Y-39.2
M16
G05
G00X112.06Y-36.0
M15
G01X112.06Y-35.4
M16
G05
G00X112.06Y-39.8
M15
G01X112.06Y-39.2
M16
G05
G00X120.7Y-36.0
M15
G01X120.7Y-35.4
M16
G05
G00X120.7Y-39.8
M15
G01X120.7Y-39.2
M16
G05
G00X152.0Y-144.66
M15
G01X152.6Y-144.66
M16
G05
G00X152.0Y-153.3
M15
G01X152.6Y-153.3
M16
G05
G00X155.8Y-144.66
M15
G01X156.4Y-144.66
M16
G05
G00X155.8Y-153.3
M15
G01X156.4Y-153.3
M16
G05
T4
G00X81.5Y-143.3
M15
G01X81.5Y-138.5
M16
G05
G00X88.5Y-143.3
M15
G01X88.5Y-138.5
M16
G05
G00X107.4Y-143.0
M15
G01X107.4Y-138.2
M16
G05
G00X114.4Y-143.0
M15
G01X114.4Y-138.2
M16
G05
G00X132.7Y-143.0
M15
G01X132.7Y-138.2
M16
G05
G00X139.7Y-143.0
M15
G01X139.7Y-138.2
M16
G05
T6
G00X82.722Y-49.0
M15
G01X81.843Y-49.0
M16
G05
G00X82.722Y-62.6
M15
G01X81.843Y-62.6
M16
G05
G00X82.722Y-66.7
M15
G01X81.843Y-66.7
M16
G05
G00X82.722Y-80.3
M15
G01X81.843Y-80.3
M16
G05
G00X132.5Y-39.69
M15
G01X132.5Y-38.81
M16
G05
G00X146.1Y-39.69
M15
G01X146.1Y-38.81
M16
G05
G00X175.9Y-39.922
M15
G01X175.9Y-39.042
M16
G05
G00X189.5Y-39.922
M15
G01X189.5Y-39.042
M16
G05
G00X196.6Y-39.922
M15
G01X196.6Y-39.042
M16
G05
G00X210.2Y-39.922
M15
G01X210.2Y-39.042
M16
G05
M30
